G75*
%MOIN*%
%OFA0B0*%
%FSLAX25Y25*%
%IPPOS*%
%LPD*%
%AMOC8*
5,1,8,0,0,1.08239X$1,22.5*
%
%ADD10OC8,0.04800*%
%ADD11C,0.04800*%
%ADD12C,0.06000*%
%ADD13OC8,0.06000*%
%ADD14C,0.03778*%
%ADD15C,0.07050*%
%ADD16C,0.12598*%
D10*
X0021300Y0061300D03*
X0021300Y0071300D03*
X0016300Y0086300D03*
X0016300Y0096300D03*
X0041300Y0076300D03*
X0041300Y0066300D03*
X0051300Y0061300D03*
X0051300Y0071300D03*
X0061300Y0066300D03*
X0061300Y0076300D03*
X0071300Y0071300D03*
X0071300Y0061300D03*
X0081300Y0071300D03*
X0121300Y0071300D03*
X0126300Y0051300D03*
X0126300Y0041300D03*
X0146300Y0041300D03*
X0146300Y0051300D03*
X0156300Y0051300D03*
X0156300Y0041300D03*
X0186300Y0061300D03*
X0191300Y0068800D03*
X0196300Y0061300D03*
X0211300Y0061300D03*
X0211300Y0071300D03*
X0131300Y0161300D03*
X0121300Y0161300D03*
X0101300Y0161300D03*
X0091300Y0161300D03*
X0076300Y0161300D03*
X0066300Y0161300D03*
X0051300Y0161300D03*
X0041300Y0161300D03*
X0036300Y0196300D03*
X0036300Y0206300D03*
X0021300Y0201300D03*
X0011300Y0201300D03*
X0096300Y0016300D03*
X0106300Y0016300D03*
D11*
X0126300Y0023900D02*
X0126300Y0028700D01*
X0136300Y0028700D02*
X0136300Y0023900D01*
X0146300Y0023900D02*
X0146300Y0028700D01*
X0156300Y0028700D02*
X0156300Y0023900D01*
X0166300Y0023900D02*
X0166300Y0028700D01*
X0161300Y0083900D02*
X0161300Y0088700D01*
X0151300Y0088700D02*
X0151300Y0083900D01*
X0141300Y0083900D02*
X0141300Y0088700D01*
X0131300Y0088700D02*
X0131300Y0083900D01*
X0121300Y0083900D02*
X0121300Y0088700D01*
X0111300Y0088700D02*
X0111300Y0083900D01*
X0101300Y0083900D02*
X0101300Y0088700D01*
X0091300Y0088700D02*
X0091300Y0083900D01*
X0081300Y0083900D02*
X0081300Y0088700D01*
X0071300Y0088700D02*
X0071300Y0083900D01*
X0061300Y0083900D02*
X0061300Y0088700D01*
X0051300Y0088700D02*
X0051300Y0083900D01*
X0041300Y0083900D02*
X0041300Y0088700D01*
X0031300Y0088700D02*
X0031300Y0083900D01*
X0031300Y0143900D02*
X0031300Y0148700D01*
X0041300Y0148700D02*
X0041300Y0143900D01*
X0051300Y0143900D02*
X0051300Y0148700D01*
X0061300Y0148700D02*
X0061300Y0143900D01*
X0071300Y0143900D02*
X0071300Y0148700D01*
X0081300Y0148700D02*
X0081300Y0143900D01*
X0091300Y0143900D02*
X0091300Y0148700D01*
X0101300Y0148700D02*
X0101300Y0143900D01*
X0111300Y0143900D02*
X0111300Y0148700D01*
X0121300Y0148700D02*
X0121300Y0143900D01*
X0131300Y0143900D02*
X0131300Y0148700D01*
X0141300Y0148700D02*
X0141300Y0143900D01*
X0151300Y0143900D02*
X0151300Y0148700D01*
X0161300Y0148700D02*
X0161300Y0143900D01*
X0171300Y0143900D02*
X0171300Y0148700D01*
X0181300Y0148700D02*
X0181300Y0143900D01*
X0191300Y0143900D02*
X0191300Y0148700D01*
X0201300Y0148700D02*
X0201300Y0143900D01*
X0211300Y0143900D02*
X0211300Y0148700D01*
X0221300Y0148700D02*
X0221300Y0143900D01*
X0221300Y0088700D02*
X0221300Y0083900D01*
X0211300Y0083900D02*
X0211300Y0088700D01*
X0201300Y0088700D02*
X0201300Y0083900D01*
X0191300Y0083900D02*
X0191300Y0088700D01*
X0181300Y0088700D02*
X0181300Y0083900D01*
X0171300Y0083900D02*
X0171300Y0088700D01*
X0121300Y0173900D02*
X0121300Y0178700D01*
X0111300Y0178700D02*
X0111300Y0173900D01*
X0101300Y0173900D02*
X0101300Y0178700D01*
X0091300Y0178700D02*
X0091300Y0173900D01*
X0081300Y0173900D02*
X0081300Y0178700D01*
X0071300Y0178700D02*
X0071300Y0173900D01*
X0061300Y0173900D02*
X0061300Y0178700D01*
X0051300Y0178700D02*
X0051300Y0173900D01*
X0051300Y0203900D02*
X0051300Y0208700D01*
X0061300Y0208700D02*
X0061300Y0203900D01*
X0071300Y0203900D02*
X0071300Y0208700D01*
X0081300Y0208700D02*
X0081300Y0203900D01*
X0091300Y0203900D02*
X0091300Y0208700D01*
X0101300Y0208700D02*
X0101300Y0203900D01*
X0111300Y0203900D02*
X0111300Y0208700D01*
X0121300Y0208700D02*
X0121300Y0203900D01*
D12*
X0121300Y0223300D02*
X0121300Y0229300D01*
X0111300Y0229300D02*
X0111300Y0223300D01*
X0101300Y0223300D02*
X0101300Y0229300D01*
X0091300Y0229300D02*
X0091300Y0223300D01*
X0081300Y0223300D02*
X0081300Y0229300D01*
X0071300Y0229300D02*
X0071300Y0223300D01*
X0061300Y0223300D02*
X0061300Y0229300D01*
X0131300Y0229300D02*
X0131300Y0223300D01*
X0151300Y0223300D02*
X0151300Y0229300D01*
X0161300Y0229300D02*
X0161300Y0223300D01*
X0161300Y0216300D02*
X0161300Y0210300D01*
X0161300Y0203300D02*
X0161300Y0197300D01*
X0161300Y0190300D02*
X0161300Y0184300D01*
X0161300Y0177300D02*
X0161300Y0171300D01*
X0161300Y0164300D02*
X0161300Y0158300D01*
X0151300Y0158300D02*
X0151300Y0164300D01*
X0151300Y0171300D02*
X0151300Y0177300D01*
X0151300Y0184300D02*
X0151300Y0190300D01*
X0151300Y0197300D02*
X0151300Y0203300D01*
X0151300Y0210300D02*
X0151300Y0216300D01*
X0171300Y0216300D02*
X0171300Y0210300D01*
X0171300Y0203300D02*
X0171300Y0197300D01*
X0171300Y0190300D02*
X0171300Y0184300D01*
X0171300Y0177300D02*
X0171300Y0171300D01*
X0171300Y0164300D02*
X0171300Y0158300D01*
X0181300Y0158300D02*
X0181300Y0164300D01*
X0181300Y0171300D02*
X0181300Y0177300D01*
X0181300Y0184300D02*
X0181300Y0190300D01*
X0181300Y0197300D02*
X0181300Y0203300D01*
X0181300Y0210300D02*
X0181300Y0216300D01*
X0181300Y0223300D02*
X0181300Y0229300D01*
X0171300Y0229300D02*
X0171300Y0223300D01*
X0233300Y0101300D02*
X0239300Y0101300D01*
X0239300Y0091300D02*
X0233300Y0091300D01*
X0233300Y0081300D02*
X0239300Y0081300D01*
X0239300Y0071300D02*
X0233300Y0071300D01*
X0233300Y0061300D02*
X0239300Y0061300D01*
X0239300Y0051300D02*
X0233300Y0051300D01*
X0196300Y0029300D02*
X0196300Y0023300D01*
X0186300Y0023300D02*
X0186300Y0029300D01*
X0105200Y0030500D02*
X0105200Y0036500D01*
X0087400Y0036500D02*
X0087400Y0030500D01*
X0071300Y0048300D02*
X0071300Y0054300D01*
X0061300Y0054300D02*
X0061300Y0048300D01*
X0051300Y0048300D02*
X0051300Y0054300D01*
X0041300Y0054300D02*
X0041300Y0048300D01*
X0031300Y0048300D02*
X0031300Y0054300D01*
X0087400Y0056100D02*
X0087400Y0062100D01*
X0105200Y0062100D02*
X0105200Y0056100D01*
D13*
X0026300Y0161300D03*
X0026300Y0171300D03*
X0026300Y0181300D03*
X0016300Y0181300D03*
X0016300Y0171300D03*
X0016300Y0161300D03*
D14*
X0141300Y0068189D02*
X0141300Y0064411D01*
X0161300Y0064411D02*
X0161300Y0068189D01*
D15*
X0227775Y0166457D02*
X0234825Y0166457D01*
X0234825Y0186143D02*
X0227775Y0186143D01*
D16*
X0026300Y0023300D03*
X0226300Y0026300D03*
X0231300Y0221300D03*
X0026300Y0226300D03*
M02*
