%
M48
M72
T01C0.02400
T02C0.03200
T03C0.04000
T04C0.04700
T05C0.12598
%
T01
X141300Y66300
X161300Y66300
T02
X156300Y51300
X156300Y41300
X146300Y41300
X146300Y51300
X126300Y51300
X126300Y41300
X126300Y26300
X136300Y26300
X146300Y26300
X156300Y26300
X166300Y26300
X186300Y61300
X191300Y68800
X196300Y61300
X211300Y61300
X211300Y71300
X211300Y86300
X201300Y86300
X191300Y86300
X181300Y86300
X171300Y86300
X161300Y86300
X151300Y86300
X141300Y86300
X131300Y86300
X121300Y86300
X111300Y86300
X101300Y86300
X91300Y86300
X81300Y86300
X71300Y86300
X61300Y86300
X61300Y76300
X61300Y66300
X51300Y61300
X51300Y71300
X41300Y66300
X41300Y76300
X41300Y86300
X31300Y86300
X16300Y86300
X16300Y96300
X21300Y71300
X21300Y61300
X51300Y86300
X71300Y71300
X71300Y61300
X81300Y71300
X121300Y71300
X106300Y16300
X96300Y16300
X221300Y86300
X221300Y146300
X211300Y146300
X201300Y146300
X191300Y146300
X181300Y146300
X171300Y146300
X161300Y146300
X151300Y146300
X141300Y146300
X131300Y146300
X121300Y146300
X111300Y146300
X101300Y146300
X91300Y146300
X81300Y146300
X71300Y146300
X61300Y146300
X51300Y146300
X41300Y146300
X31300Y146300
X41300Y161300
X51300Y161300
X51300Y176300
X61300Y176300
X71300Y176300
X81300Y176300
X91300Y176300
X101300Y176300
X111300Y176300
X121300Y176300
X121300Y161300
X131300Y161300
X101300Y161300
X91300Y161300
X76300Y161300
X66300Y161300
X36300Y196300
X36300Y206300
X21300Y201300
X11300Y201300
X51300Y206300
X61300Y206300
X71300Y206300
X81300Y206300
X91300Y206300
X101300Y206300
X111300Y206300
X121300Y206300
T03
X121300Y226300
X111300Y226300
X101300Y226300
X91300Y226300
X81300Y226300
X71300Y226300
X61300Y226300
X26300Y181300
X26300Y171300
X26300Y161300
X16300Y161300
X16300Y171300
X16300Y181300
X131300Y226300
X151300Y226300
X161300Y226300
X171300Y226300
X181300Y226300
X181300Y213300
X171300Y213300
X161300Y213300
X151300Y213300
X151300Y200300
X161300Y200300
X171300Y200300
X181300Y200300
X181300Y187300
X171300Y187300
X161300Y187300
X151300Y187300
X151300Y174300
X161300Y174300
X171300Y174300
X181300Y174300
X181300Y161300
X171300Y161300
X161300Y161300
X151300Y161300
X236300Y101300
X236300Y91300
X236300Y81300
X236300Y71300
X236300Y61300
X236300Y51300
X196300Y26300
X186300Y26300
X105200Y33500
X87400Y33500
X71300Y51300
X61300Y51300
X51300Y51300
X41300Y51300
X31300Y51300
X87400Y59100
X105200Y59100
T04
X231300Y166457
X231300Y186143
T05
X26300Y23300
X226300Y26300
X231300Y221300
X26300Y226300
M30
