%
M48
M72
T01C0.03200
T02C0.04000
T03C0.04700
T04C0.12598
%
T01
X46300Y46300
X56300Y46300
X66300Y46300
X76300Y46300
X86300Y46300
X96300Y46300
X106300Y46300
X116300Y46300
X126300Y46300
X136300Y46300
X146300Y46300
X146300Y86300
X136300Y86300
X126300Y86300
X116300Y86300
X106300Y86300
X96300Y86300
X86300Y86300
X76300Y86300
X66300Y86300
X56300Y86300
X46300Y86300
X51300Y101300
X51300Y111300
X76300Y101300
X86300Y101300
X96300Y101300
X106300Y101300
X116300Y101300
X126300Y101300
X136300Y101300
X146300Y101300
X146300Y131300
X136300Y131300
X126300Y131300
X116300Y131300
X106300Y131300
X96300Y131300
X86300Y131300
X76300Y131300
X11300Y111300
X11300Y101300
T02
X21300Y76300
X31300Y76300
X31300Y66300
X21300Y66300
X21300Y56300
X31300Y56300
X81300Y151300
X91300Y151300
X101300Y151300
X111300Y151300
T03
X218800Y154300
X218800Y134300
X218800Y114300
X218800Y94300
X218800Y74300
X218800Y54300
X218800Y34300
X218800Y14300
X191300Y23800
X171300Y23800
X151300Y23800
X131300Y23800
X111300Y23800
X91300Y23800
X71300Y23800
X51300Y23800
T04
X21300Y21300
X176300Y71300
X181300Y146300
X21300Y146300
M30
