G75*
%MOIN*%
%OFA0B0*%
%FSLAX25Y25*%
%IPPOS*%
%LPD*%
%AMOC8*
5,1,8,0,0,1.08239X$1,22.5*
%
%ADD10C,0.00600*%
%ADD11C,0.04800*%
%ADD12OC8,0.06000*%
%ADD13OC8,0.04800*%
%ADD14C,0.07050*%
%ADD15C,0.06000*%
%ADD16C,0.01181*%
D10*
X0006512Y0006088D02*
X0015942Y0006088D01*
X0017467Y0005490D02*
X0007110Y0005490D01*
X0007709Y0004891D02*
X0229891Y0004891D01*
X0229293Y0004293D02*
X0008307Y0004293D01*
X0008906Y0003694D02*
X0228694Y0003694D01*
X0228096Y0003096D02*
X0009504Y0003096D01*
X0010016Y0002584D02*
X0002584Y0010016D01*
X0002584Y0157584D01*
X0009976Y0164976D01*
X0236300Y0164976D01*
X0236300Y0011300D01*
X0227584Y0002584D01*
X0010016Y0002584D01*
X0005913Y0006687D02*
X0014417Y0006687D01*
X0013150Y0007184D02*
X0017673Y0005409D01*
X0022518Y0005046D01*
X0027255Y0006127D01*
X0031463Y0008556D01*
X0031463Y0008556D01*
X0031463Y0008556D01*
X0034768Y0012118D01*
X0036876Y0016495D01*
X0037600Y0021300D01*
X0036876Y0026104D01*
X0036876Y0026105D01*
X0034768Y0030482D01*
X0031463Y0034044D01*
X0031463Y0034044D01*
X0027255Y0036473D01*
X0022518Y0037554D01*
X0017673Y0037191D01*
X0017673Y0037191D01*
X0013150Y0035416D01*
X0009351Y0032387D01*
X0009351Y0032387D01*
X0006614Y0028372D01*
X0005182Y0023729D01*
X0005182Y0018871D01*
X0006614Y0014228D01*
X0006614Y0014228D01*
X0009351Y0010213D01*
X0009351Y0010213D01*
X0009351Y0010213D01*
X0013150Y0007184D01*
X0013150Y0007184D01*
X0013023Y0007285D02*
X0005315Y0007285D01*
X0004716Y0007884D02*
X0012272Y0007884D01*
X0011522Y0008482D02*
X0004118Y0008482D01*
X0003519Y0009081D02*
X0010771Y0009081D01*
X0010021Y0009679D02*
X0002921Y0009679D01*
X0002584Y0010278D02*
X0009307Y0010278D01*
X0008899Y0010876D02*
X0002584Y0010876D01*
X0002584Y0011475D02*
X0008491Y0011475D01*
X0008083Y0012073D02*
X0002584Y0012073D01*
X0002584Y0012672D02*
X0007675Y0012672D01*
X0007267Y0013270D02*
X0002584Y0013270D01*
X0002584Y0013869D02*
X0006859Y0013869D01*
X0006540Y0014467D02*
X0002584Y0014467D01*
X0002584Y0015066D02*
X0006356Y0015066D01*
X0006171Y0015664D02*
X0002584Y0015664D01*
X0002584Y0016263D02*
X0005986Y0016263D01*
X0005802Y0016861D02*
X0002584Y0016861D01*
X0002584Y0017460D02*
X0005617Y0017460D01*
X0005433Y0018058D02*
X0002584Y0018058D01*
X0002584Y0018657D02*
X0005248Y0018657D01*
X0005182Y0019255D02*
X0002584Y0019255D01*
X0002584Y0019854D02*
X0005182Y0019854D01*
X0005182Y0020452D02*
X0002584Y0020452D01*
X0002584Y0021051D02*
X0005182Y0021051D01*
X0005182Y0021649D02*
X0002584Y0021649D01*
X0002584Y0022248D02*
X0005182Y0022248D01*
X0005182Y0022846D02*
X0002584Y0022846D01*
X0002584Y0023445D02*
X0005182Y0023445D01*
X0005279Y0024043D02*
X0002584Y0024043D01*
X0002584Y0024642D02*
X0005464Y0024642D01*
X0005648Y0025240D02*
X0002584Y0025240D01*
X0002584Y0025839D02*
X0005833Y0025839D01*
X0006017Y0026437D02*
X0002584Y0026437D01*
X0002584Y0027036D02*
X0006202Y0027036D01*
X0006387Y0027634D02*
X0002584Y0027634D01*
X0002584Y0028233D02*
X0006571Y0028233D01*
X0006614Y0028372D02*
X0006614Y0028372D01*
X0006927Y0028832D02*
X0002584Y0028832D01*
X0002584Y0029430D02*
X0007335Y0029430D01*
X0007743Y0030029D02*
X0002584Y0030029D01*
X0002584Y0030627D02*
X0008151Y0030627D01*
X0008560Y0031226D02*
X0002584Y0031226D01*
X0002584Y0031824D02*
X0008968Y0031824D01*
X0009396Y0032423D02*
X0002584Y0032423D01*
X0002584Y0033021D02*
X0010147Y0033021D01*
X0010897Y0033620D02*
X0002584Y0033620D01*
X0002584Y0034218D02*
X0011648Y0034218D01*
X0012398Y0034817D02*
X0002584Y0034817D01*
X0002584Y0035415D02*
X0013149Y0035415D01*
X0013150Y0035416D02*
X0013150Y0035416D01*
X0014672Y0036014D02*
X0002584Y0036014D01*
X0002584Y0036612D02*
X0016197Y0036612D01*
X0017931Y0037211D02*
X0002584Y0037211D01*
X0002584Y0037809D02*
X0065469Y0037809D01*
X0065469Y0037211D02*
X0024024Y0037211D01*
X0022518Y0037554D02*
X0022518Y0037554D01*
X0026646Y0036612D02*
X0065469Y0036612D01*
X0065469Y0036014D02*
X0028051Y0036014D01*
X0027255Y0036473D02*
X0027255Y0036473D01*
X0029088Y0035415D02*
X0065469Y0035415D01*
X0065469Y0034817D02*
X0030124Y0034817D01*
X0031161Y0034218D02*
X0065469Y0034218D01*
X0065469Y0033620D02*
X0031857Y0033620D01*
X0032412Y0033021D02*
X0065469Y0033021D01*
X0065469Y0032423D02*
X0032967Y0032423D01*
X0033523Y0031824D02*
X0050109Y0031824D01*
X0050383Y0031937D02*
X0048687Y0031235D01*
X0047390Y0029938D01*
X0046688Y0028242D01*
X0046688Y0019358D01*
X0047390Y0017662D01*
X0048687Y0016365D01*
X0050383Y0015663D01*
X0052217Y0015663D01*
X0053913Y0016365D01*
X0055210Y0017662D01*
X0055912Y0019358D01*
X0055912Y0028242D01*
X0055210Y0029938D01*
X0053913Y0031235D01*
X0052217Y0031937D01*
X0050383Y0031937D01*
X0048678Y0031226D02*
X0034078Y0031226D01*
X0034633Y0030627D02*
X0048079Y0030627D01*
X0047481Y0030029D02*
X0034986Y0030029D01*
X0034768Y0030482D02*
X0034768Y0030482D01*
X0035274Y0029430D02*
X0047180Y0029430D01*
X0046932Y0028832D02*
X0035563Y0028832D01*
X0035851Y0028233D02*
X0046688Y0028233D01*
X0046688Y0027634D02*
X0036139Y0027634D01*
X0036427Y0027036D02*
X0046688Y0027036D01*
X0046688Y0026437D02*
X0036715Y0026437D01*
X0036916Y0025839D02*
X0046688Y0025839D01*
X0046688Y0025240D02*
X0037006Y0025240D01*
X0037096Y0024642D02*
X0046688Y0024642D01*
X0046688Y0024043D02*
X0037186Y0024043D01*
X0037277Y0023445D02*
X0046688Y0023445D01*
X0046688Y0022846D02*
X0037367Y0022846D01*
X0037457Y0022248D02*
X0046688Y0022248D01*
X0046688Y0021649D02*
X0037547Y0021649D01*
X0037600Y0021300D02*
X0037600Y0021300D01*
X0037562Y0021051D02*
X0046688Y0021051D01*
X0046688Y0020452D02*
X0037472Y0020452D01*
X0037382Y0019854D02*
X0046688Y0019854D01*
X0046730Y0019255D02*
X0037292Y0019255D01*
X0037202Y0018657D02*
X0046978Y0018657D01*
X0047226Y0018058D02*
X0037111Y0018058D01*
X0037021Y0017460D02*
X0047592Y0017460D01*
X0048191Y0016861D02*
X0036931Y0016861D01*
X0036764Y0016263D02*
X0048934Y0016263D01*
X0050378Y0015664D02*
X0036476Y0015664D01*
X0036187Y0015066D02*
X0086655Y0015066D01*
X0087253Y0014467D02*
X0035899Y0014467D01*
X0035611Y0013869D02*
X0087852Y0013869D01*
X0088450Y0013270D02*
X0035323Y0013270D01*
X0035034Y0012672D02*
X0089049Y0012672D01*
X0089303Y0012417D02*
X0211062Y0012417D01*
X0211365Y0011687D01*
X0212662Y0010390D01*
X0214358Y0009688D01*
X0223242Y0009688D01*
X0224938Y0010390D01*
X0226235Y0011687D01*
X0226937Y0013383D01*
X0226937Y0015217D01*
X0226235Y0016913D01*
X0224938Y0018210D01*
X0224561Y0018366D01*
X0229454Y0023260D01*
X0229454Y0024813D01*
X0229454Y0057293D01*
X0228356Y0058391D01*
X0225108Y0061639D01*
X0222943Y0061639D01*
X0214894Y0069688D01*
X0223242Y0069688D01*
X0224938Y0070390D01*
X0226235Y0071687D01*
X0226937Y0073383D01*
X0226937Y0075217D01*
X0226235Y0076913D01*
X0224938Y0078210D01*
X0223242Y0078912D01*
X0216496Y0078912D01*
X0212131Y0083277D01*
X0212131Y0090921D01*
X0212662Y0090390D01*
X0214358Y0089688D01*
X0223242Y0089688D01*
X0224938Y0090390D01*
X0226235Y0091687D01*
X0226937Y0093383D01*
X0226937Y0095217D01*
X0226235Y0096913D01*
X0224938Y0098210D01*
X0223242Y0098912D01*
X0215245Y0098912D01*
X0219710Y0103378D01*
X0219710Y0109688D01*
X0223242Y0109688D01*
X0224938Y0110390D01*
X0226235Y0111687D01*
X0226937Y0113383D01*
X0226937Y0115217D01*
X0226235Y0116913D01*
X0224938Y0118210D01*
X0223242Y0118912D01*
X0219710Y0118912D01*
X0219710Y0125502D01*
X0215524Y0129688D01*
X0223242Y0129688D01*
X0224938Y0130390D01*
X0226235Y0131687D01*
X0226937Y0133383D01*
X0226937Y0135217D01*
X0226235Y0136913D01*
X0224938Y0138210D01*
X0223242Y0138912D01*
X0214358Y0138912D01*
X0212662Y0138210D01*
X0212131Y0137679D01*
X0212131Y0145602D01*
X0216217Y0149688D01*
X0223242Y0149688D01*
X0224938Y0150390D01*
X0226235Y0151687D01*
X0226937Y0153383D01*
X0226937Y0155217D01*
X0226235Y0156913D01*
X0236300Y0156913D01*
X0236300Y0157511D02*
X0225636Y0157511D01*
X0225038Y0158110D02*
X0236300Y0158110D01*
X0236300Y0158708D02*
X0223735Y0158708D01*
X0223242Y0158912D02*
X0214358Y0158912D01*
X0212662Y0158210D01*
X0211365Y0156913D01*
X0193440Y0156913D01*
X0192885Y0157511D02*
X0211964Y0157511D01*
X0212562Y0158110D02*
X0192329Y0158110D01*
X0191774Y0158708D02*
X0213865Y0158708D01*
X0211365Y0156913D02*
X0210663Y0155217D01*
X0210663Y0153383D01*
X0211365Y0151687D01*
X0212139Y0150913D01*
X0208382Y0147155D01*
X0208382Y0133080D01*
X0206232Y0130931D01*
X0186396Y0130931D01*
X0187255Y0131127D01*
X0191463Y0133556D01*
X0194768Y0137118D01*
X0196876Y0141495D01*
X0196876Y0141495D01*
X0197600Y0146300D01*
X0196876Y0151104D01*
X0196876Y0151105D01*
X0194768Y0155482D01*
X0191463Y0159044D01*
X0191463Y0159044D01*
X0187255Y0161473D01*
X0182518Y0162554D01*
X0177673Y0162191D01*
X0173150Y0160416D01*
X0169351Y0157387D01*
X0166614Y0153372D01*
X0165182Y0148729D01*
X0165182Y0143871D01*
X0166614Y0139228D01*
X0166614Y0139228D01*
X0169351Y0135213D01*
X0169351Y0135213D01*
X0169351Y0135213D01*
X0173150Y0132184D01*
X0176343Y0130931D01*
X0169892Y0130931D01*
X0161230Y0139592D01*
X0106014Y0139592D01*
X0101393Y0144213D01*
X0102113Y0144213D01*
X0103615Y0144835D01*
X0104765Y0145985D01*
X0105387Y0147487D01*
X0105387Y0155113D01*
X0104765Y0156615D01*
X0103615Y0157765D01*
X0102113Y0158387D01*
X0100487Y0158387D01*
X0098985Y0157765D01*
X0097835Y0156615D01*
X0097213Y0155113D01*
X0097213Y0148393D01*
X0095387Y0150218D01*
X0095387Y0155113D01*
X0094765Y0156615D01*
X0093615Y0157765D01*
X0092113Y0158387D01*
X0090487Y0158387D01*
X0088985Y0157765D01*
X0088413Y0157193D01*
X0084360Y0161246D01*
X0078476Y0161246D01*
X0077378Y0160147D01*
X0074130Y0156899D01*
X0074130Y0136462D01*
X0073344Y0135675D01*
X0072813Y0134394D01*
X0072813Y0128206D01*
X0073344Y0126925D01*
X0074325Y0125944D01*
X0075606Y0125413D01*
X0076994Y0125413D01*
X0078275Y0125944D01*
X0078461Y0126129D01*
X0078461Y0114675D01*
X0055740Y0091954D01*
X0054642Y0090856D01*
X0054642Y0089574D01*
X0052813Y0087745D01*
X0052813Y0084855D01*
X0054855Y0082813D01*
X0057745Y0082813D01*
X0059787Y0084855D01*
X0059787Y0087745D01*
X0058391Y0089141D01*
X0058391Y0089303D01*
X0072813Y0103724D01*
X0072813Y0100366D01*
X0065469Y0093021D01*
X0065469Y0089787D01*
X0064855Y0089787D01*
X0062813Y0087745D01*
X0062813Y0084855D01*
X0064855Y0082813D01*
X0067745Y0082813D01*
X0068717Y0083785D01*
X0068717Y0071368D01*
X0047136Y0049787D01*
X0044855Y0049787D01*
X0042813Y0047745D01*
X0042813Y0044855D01*
X0044855Y0042813D01*
X0047745Y0042813D01*
X0049787Y0044855D01*
X0049787Y0047136D01*
X0072466Y0069815D01*
X0072466Y0086055D01*
X0072813Y0086401D01*
X0072813Y0084855D01*
X0074855Y0082813D01*
X0077745Y0082813D01*
X0079787Y0084855D01*
X0079787Y0084957D01*
X0082195Y0084957D01*
X0082813Y0085575D01*
X0082813Y0084855D01*
X0084855Y0082813D01*
X0087745Y0082813D01*
X0089787Y0084855D01*
X0089787Y0087745D01*
X0089327Y0088205D01*
X0091468Y0088205D01*
X0092813Y0086860D01*
X0092813Y0084855D01*
X0094855Y0082813D01*
X0097745Y0082813D01*
X0099787Y0084855D01*
X0099787Y0087392D01*
X0100600Y0088205D01*
X0103273Y0088205D01*
X0102813Y0087745D01*
X0102813Y0084855D01*
X0104855Y0082813D01*
X0107745Y0082813D01*
X0109787Y0084855D01*
X0109787Y0086126D01*
X0110956Y0084957D01*
X0112813Y0084957D01*
X0112813Y0084855D01*
X0114855Y0082813D01*
X0117745Y0082813D01*
X0119602Y0084670D01*
X0119602Y0047930D01*
X0117745Y0049787D01*
X0114855Y0049787D01*
X0113715Y0048647D01*
X0112510Y0048647D01*
X0109277Y0051880D01*
X0108179Y0052978D01*
X0074145Y0052978D01*
X0070897Y0049730D01*
X0069799Y0048632D01*
X0069799Y0034086D01*
X0071948Y0031937D01*
X0070383Y0031937D01*
X0069218Y0031455D01*
X0069218Y0044286D01*
X0069787Y0044855D01*
X0069787Y0047745D01*
X0067745Y0049787D01*
X0064855Y0049787D01*
X0062813Y0047745D01*
X0062813Y0044855D01*
X0064855Y0042813D01*
X0065469Y0042813D01*
X0065469Y0026508D01*
X0066688Y0025289D01*
X0066688Y0019358D01*
X0067390Y0017662D01*
X0068687Y0016365D01*
X0070383Y0015663D01*
X0072217Y0015663D01*
X0073913Y0016365D01*
X0075210Y0017662D01*
X0075912Y0019358D01*
X0075912Y0027973D01*
X0083874Y0020012D01*
X0083874Y0017846D01*
X0089303Y0012417D01*
X0086056Y0015664D02*
X0072221Y0015664D01*
X0073666Y0016263D02*
X0085457Y0016263D01*
X0084859Y0016861D02*
X0074409Y0016861D01*
X0075008Y0017460D02*
X0084260Y0017460D01*
X0083874Y0018058D02*
X0075374Y0018058D01*
X0075622Y0018657D02*
X0083874Y0018657D01*
X0083874Y0019255D02*
X0075870Y0019255D01*
X0075912Y0019854D02*
X0083874Y0019854D01*
X0083433Y0020452D02*
X0075912Y0020452D01*
X0075912Y0021051D02*
X0082835Y0021051D01*
X0082236Y0021649D02*
X0075912Y0021649D01*
X0075912Y0022248D02*
X0081638Y0022248D01*
X0081039Y0022846D02*
X0075912Y0022846D01*
X0075912Y0023445D02*
X0080441Y0023445D01*
X0079842Y0024043D02*
X0075912Y0024043D01*
X0075912Y0024642D02*
X0079244Y0024642D01*
X0078645Y0025240D02*
X0075912Y0025240D01*
X0075912Y0025839D02*
X0078047Y0025839D01*
X0077448Y0026437D02*
X0075912Y0026437D01*
X0075912Y0027036D02*
X0076850Y0027036D01*
X0076251Y0027634D02*
X0075912Y0027634D01*
X0079160Y0030029D02*
X0087481Y0030029D01*
X0087390Y0029938D02*
X0086688Y0028242D01*
X0086688Y0022501D01*
X0086525Y0022663D01*
X0073549Y0035640D01*
X0073549Y0044119D01*
X0074855Y0042813D01*
X0077745Y0042813D01*
X0078747Y0043815D01*
X0080642Y0043815D01*
X0092535Y0031921D01*
X0092732Y0031724D01*
X0092217Y0031937D01*
X0090383Y0031937D01*
X0088687Y0031235D01*
X0087390Y0029938D01*
X0087180Y0029430D02*
X0079758Y0029430D01*
X0080357Y0028832D02*
X0086932Y0028832D01*
X0086688Y0028233D02*
X0080955Y0028233D01*
X0081554Y0027634D02*
X0086688Y0027634D01*
X0086688Y0027036D02*
X0082152Y0027036D01*
X0082751Y0026437D02*
X0086688Y0026437D01*
X0086688Y0025839D02*
X0083349Y0025839D01*
X0083948Y0025240D02*
X0086688Y0025240D01*
X0086688Y0024642D02*
X0084546Y0024642D01*
X0085145Y0024043D02*
X0086688Y0024043D01*
X0086688Y0023445D02*
X0085743Y0023445D01*
X0086342Y0022846D02*
X0086688Y0022846D01*
X0094409Y0016861D02*
X0108191Y0016861D01*
X0108687Y0016365D02*
X0107390Y0017662D01*
X0106688Y0019358D01*
X0106688Y0028242D01*
X0107390Y0029938D01*
X0108275Y0030823D01*
X0094325Y0030823D01*
X0095210Y0029938D01*
X0095912Y0028242D01*
X0095912Y0019358D01*
X0095210Y0017662D01*
X0093913Y0016365D01*
X0093435Y0016167D01*
X0109165Y0016167D01*
X0108687Y0016365D01*
X0108934Y0016263D02*
X0093666Y0016263D01*
X0095008Y0017460D02*
X0107592Y0017460D01*
X0107226Y0018058D02*
X0095374Y0018058D01*
X0095622Y0018657D02*
X0106978Y0018657D01*
X0106730Y0019255D02*
X0095870Y0019255D01*
X0095912Y0019854D02*
X0106688Y0019854D01*
X0106688Y0020452D02*
X0095912Y0020452D01*
X0095912Y0021051D02*
X0106688Y0021051D01*
X0106688Y0021649D02*
X0095912Y0021649D01*
X0095912Y0022248D02*
X0106688Y0022248D01*
X0106688Y0022846D02*
X0095912Y0022846D01*
X0095912Y0023445D02*
X0106688Y0023445D01*
X0106688Y0024043D02*
X0095912Y0024043D01*
X0095912Y0024642D02*
X0106688Y0024642D01*
X0106688Y0025240D02*
X0095912Y0025240D01*
X0095912Y0025839D02*
X0106688Y0025839D01*
X0106688Y0026437D02*
X0095912Y0026437D01*
X0095912Y0027036D02*
X0106688Y0027036D01*
X0106688Y0027634D02*
X0095912Y0027634D01*
X0095912Y0028233D02*
X0106688Y0028233D01*
X0106932Y0028832D02*
X0095668Y0028832D01*
X0095420Y0029430D02*
X0107180Y0029430D01*
X0107481Y0030029D02*
X0095119Y0030029D01*
X0094521Y0030627D02*
X0108079Y0030627D01*
X0114325Y0030823D02*
X0115210Y0029938D01*
X0115912Y0028242D01*
X0115912Y0019358D01*
X0115210Y0017662D01*
X0113913Y0016365D01*
X0113435Y0016167D01*
X0129165Y0016167D01*
X0128687Y0016365D01*
X0127390Y0017662D01*
X0126688Y0019358D01*
X0126688Y0025919D01*
X0121783Y0030823D01*
X0114325Y0030823D01*
X0114521Y0030627D02*
X0121979Y0030627D01*
X0122578Y0030029D02*
X0115119Y0030029D01*
X0115420Y0029430D02*
X0123176Y0029430D01*
X0123775Y0028832D02*
X0115668Y0028832D01*
X0115912Y0028233D02*
X0124373Y0028233D01*
X0124972Y0027634D02*
X0115912Y0027634D01*
X0115912Y0027036D02*
X0125570Y0027036D01*
X0126169Y0026437D02*
X0115912Y0026437D01*
X0115912Y0025839D02*
X0126688Y0025839D01*
X0126688Y0025240D02*
X0115912Y0025240D01*
X0115912Y0024642D02*
X0126688Y0024642D01*
X0126688Y0024043D02*
X0115912Y0024043D01*
X0115912Y0023445D02*
X0126688Y0023445D01*
X0126688Y0022846D02*
X0115912Y0022846D01*
X0115912Y0022248D02*
X0126688Y0022248D01*
X0126688Y0021649D02*
X0115912Y0021649D01*
X0115912Y0021051D02*
X0126688Y0021051D01*
X0126688Y0020452D02*
X0115912Y0020452D01*
X0115912Y0019854D02*
X0126688Y0019854D01*
X0126730Y0019255D02*
X0115870Y0019255D01*
X0115622Y0018657D02*
X0126978Y0018657D01*
X0127226Y0018058D02*
X0115374Y0018058D01*
X0115008Y0017460D02*
X0127592Y0017460D01*
X0128191Y0016861D02*
X0114409Y0016861D01*
X0113666Y0016263D02*
X0128934Y0016263D01*
X0133435Y0016167D02*
X0133913Y0016365D01*
X0135210Y0017662D01*
X0135912Y0019358D01*
X0135912Y0028242D01*
X0135210Y0029938D01*
X0133913Y0031235D01*
X0132217Y0031937D01*
X0130383Y0031937D01*
X0128687Y0031235D01*
X0127680Y0030228D01*
X0123352Y0034557D01*
X0123352Y0044316D01*
X0124855Y0042813D01*
X0127745Y0042813D01*
X0129787Y0044855D01*
X0129787Y0047745D01*
X0128765Y0048767D01*
X0128765Y0080642D01*
X0132896Y0084772D01*
X0134855Y0082813D01*
X0137745Y0082813D01*
X0139787Y0084855D01*
X0139787Y0086441D01*
X0140173Y0086055D01*
X0140173Y0055740D01*
X0146126Y0049787D01*
X0144855Y0049787D01*
X0142813Y0047745D01*
X0142813Y0044855D01*
X0144855Y0042813D01*
X0147745Y0042813D01*
X0149787Y0044855D01*
X0149787Y0046126D01*
X0166976Y0028938D01*
X0166688Y0028242D01*
X0166688Y0019358D01*
X0167390Y0017662D01*
X0168687Y0016365D01*
X0169165Y0016167D01*
X0153435Y0016167D01*
X0153913Y0016365D01*
X0155210Y0017662D01*
X0155912Y0019358D01*
X0155912Y0028242D01*
X0155210Y0029938D01*
X0153913Y0031235D01*
X0152217Y0031937D01*
X0150383Y0031937D01*
X0148687Y0031235D01*
X0147390Y0029938D01*
X0146688Y0028242D01*
X0146688Y0019358D01*
X0147390Y0017662D01*
X0148687Y0016365D01*
X0149165Y0016167D01*
X0133435Y0016167D01*
X0133666Y0016263D02*
X0148934Y0016263D01*
X0148191Y0016861D02*
X0134409Y0016861D01*
X0135008Y0017460D02*
X0147592Y0017460D01*
X0147226Y0018058D02*
X0135374Y0018058D01*
X0135622Y0018657D02*
X0146978Y0018657D01*
X0146730Y0019255D02*
X0135870Y0019255D01*
X0135912Y0019854D02*
X0146688Y0019854D01*
X0146688Y0020452D02*
X0135912Y0020452D01*
X0135912Y0021051D02*
X0146688Y0021051D01*
X0146688Y0021649D02*
X0135912Y0021649D01*
X0135912Y0022248D02*
X0146688Y0022248D01*
X0146688Y0022846D02*
X0135912Y0022846D01*
X0135912Y0023445D02*
X0146688Y0023445D01*
X0146688Y0024043D02*
X0135912Y0024043D01*
X0135912Y0024642D02*
X0146688Y0024642D01*
X0146688Y0025240D02*
X0135912Y0025240D01*
X0135912Y0025839D02*
X0146688Y0025839D01*
X0146688Y0026437D02*
X0135912Y0026437D01*
X0135912Y0027036D02*
X0146688Y0027036D01*
X0146688Y0027634D02*
X0135912Y0027634D01*
X0135912Y0028233D02*
X0146688Y0028233D01*
X0146932Y0028832D02*
X0135668Y0028832D01*
X0135420Y0029430D02*
X0147180Y0029430D01*
X0147481Y0030029D02*
X0135119Y0030029D01*
X0134521Y0030627D02*
X0148079Y0030627D01*
X0148678Y0031226D02*
X0133922Y0031226D01*
X0132491Y0031824D02*
X0150109Y0031824D01*
X0152491Y0031824D02*
X0164089Y0031824D01*
X0163491Y0032423D02*
X0125486Y0032423D01*
X0124888Y0033021D02*
X0162892Y0033021D01*
X0162294Y0033620D02*
X0124289Y0033620D01*
X0123691Y0034218D02*
X0161695Y0034218D01*
X0161097Y0034817D02*
X0123352Y0034817D01*
X0123352Y0035415D02*
X0160498Y0035415D01*
X0159900Y0036014D02*
X0123352Y0036014D01*
X0123352Y0036612D02*
X0159301Y0036612D01*
X0158703Y0037211D02*
X0123352Y0037211D01*
X0123352Y0037809D02*
X0158104Y0037809D01*
X0157505Y0038408D02*
X0123352Y0038408D01*
X0123352Y0039006D02*
X0156907Y0039006D01*
X0156308Y0039605D02*
X0123352Y0039605D01*
X0123352Y0040203D02*
X0155710Y0040203D01*
X0155111Y0040802D02*
X0123352Y0040802D01*
X0123352Y0041400D02*
X0154513Y0041400D01*
X0153914Y0041999D02*
X0123352Y0041999D01*
X0123352Y0042597D02*
X0153316Y0042597D01*
X0152717Y0043196D02*
X0148128Y0043196D01*
X0148726Y0043794D02*
X0152119Y0043794D01*
X0151520Y0044393D02*
X0149325Y0044393D01*
X0149787Y0044991D02*
X0150922Y0044991D01*
X0150323Y0045590D02*
X0149787Y0045590D01*
X0152634Y0048582D02*
X0225705Y0048582D01*
X0225705Y0047984D02*
X0153232Y0047984D01*
X0153831Y0047385D02*
X0225705Y0047385D01*
X0225705Y0046787D02*
X0154429Y0046787D01*
X0155028Y0046188D02*
X0225705Y0046188D01*
X0225705Y0045590D02*
X0155626Y0045590D01*
X0156225Y0044991D02*
X0225705Y0044991D01*
X0225705Y0044393D02*
X0156823Y0044393D01*
X0157422Y0043794D02*
X0225705Y0043794D01*
X0225705Y0043196D02*
X0158020Y0043196D01*
X0158619Y0042597D02*
X0225705Y0042597D01*
X0225705Y0041999D02*
X0159217Y0041999D01*
X0159816Y0041400D02*
X0225705Y0041400D01*
X0225705Y0040802D02*
X0160414Y0040802D01*
X0161013Y0040203D02*
X0225705Y0040203D01*
X0225705Y0039605D02*
X0161611Y0039605D01*
X0162210Y0039006D02*
X0225705Y0039006D01*
X0225705Y0038408D02*
X0224461Y0038408D01*
X0224938Y0038210D02*
X0223242Y0038912D01*
X0214358Y0038912D01*
X0212662Y0038210D01*
X0211365Y0036913D01*
X0210663Y0035217D01*
X0210663Y0033383D01*
X0211365Y0031687D01*
X0212662Y0030390D01*
X0214358Y0029688D01*
X0223242Y0029688D01*
X0224938Y0030390D01*
X0225705Y0031157D01*
X0225705Y0024813D01*
X0219804Y0018912D01*
X0214358Y0018912D01*
X0212662Y0018210D01*
X0211365Y0016913D01*
X0211056Y0016167D01*
X0193435Y0016167D01*
X0193913Y0016365D01*
X0195210Y0017662D01*
X0195912Y0019358D01*
X0195912Y0028242D01*
X0195210Y0029938D01*
X0193913Y0031235D01*
X0192217Y0031937D01*
X0190383Y0031937D01*
X0188687Y0031235D01*
X0187390Y0029938D01*
X0186688Y0028242D01*
X0186688Y0019358D01*
X0187390Y0017662D01*
X0188687Y0016365D01*
X0189165Y0016167D01*
X0173435Y0016167D01*
X0173913Y0016365D01*
X0175210Y0017662D01*
X0175912Y0019358D01*
X0175912Y0028242D01*
X0175210Y0029938D01*
X0173913Y0031235D01*
X0172217Y0031937D01*
X0170383Y0031937D01*
X0169602Y0031614D01*
X0143923Y0057293D01*
X0143923Y0083745D01*
X0144855Y0082813D01*
X0147745Y0082813D01*
X0149787Y0084855D01*
X0149787Y0087745D01*
X0147745Y0089787D01*
X0144855Y0089787D01*
X0143299Y0088231D01*
X0142825Y0088706D01*
X0138509Y0093021D01*
X0138509Y0096178D01*
X0139256Y0096925D01*
X0139787Y0098206D01*
X0139787Y0104394D01*
X0139256Y0105675D01*
X0138322Y0106610D01*
X0144278Y0106610D01*
X0143344Y0105675D01*
X0142813Y0104394D01*
X0142813Y0098206D01*
X0143344Y0096925D01*
X0144325Y0095944D01*
X0145606Y0095413D01*
X0146994Y0095413D01*
X0148275Y0095944D01*
X0149256Y0096925D01*
X0149787Y0098206D01*
X0149787Y0104394D01*
X0149256Y0105675D01*
X0148322Y0106610D01*
X0162925Y0106610D01*
X0184164Y0085371D01*
X0182255Y0086473D01*
X0177518Y0087554D01*
X0172673Y0087191D01*
X0172673Y0087191D01*
X0168150Y0085416D01*
X0164351Y0082387D01*
X0164351Y0082387D01*
X0164351Y0082387D01*
X0161614Y0078372D01*
X0160182Y0073729D01*
X0160182Y0068871D01*
X0161614Y0064228D01*
X0161614Y0064228D01*
X0164351Y0060213D01*
X0164351Y0060213D01*
X0164351Y0060213D01*
X0168150Y0057184D01*
X0172673Y0055409D01*
X0177518Y0055046D01*
X0182255Y0056127D01*
X0186463Y0058556D01*
X0186463Y0058556D01*
X0186463Y0058556D01*
X0189768Y0062118D01*
X0191876Y0066495D01*
X0191876Y0066495D01*
X0192600Y0071300D01*
X0191876Y0076104D01*
X0191876Y0076105D01*
X0190431Y0079104D01*
X0211994Y0057542D01*
X0211365Y0056913D01*
X0210663Y0055217D01*
X0210663Y0053383D01*
X0211365Y0051687D01*
X0212662Y0050390D01*
X0214358Y0049688D01*
X0223242Y0049688D01*
X0224938Y0050390D01*
X0225705Y0051157D01*
X0225705Y0037443D01*
X0224938Y0038210D01*
X0225339Y0037809D02*
X0225705Y0037809D01*
X0229454Y0037809D02*
X0236300Y0037809D01*
X0236300Y0037211D02*
X0229454Y0037211D01*
X0229454Y0036612D02*
X0236300Y0036612D01*
X0236300Y0036014D02*
X0229454Y0036014D01*
X0229454Y0035415D02*
X0236300Y0035415D01*
X0236300Y0034817D02*
X0229454Y0034817D01*
X0229454Y0034218D02*
X0236300Y0034218D01*
X0236300Y0033620D02*
X0229454Y0033620D01*
X0229454Y0033021D02*
X0236300Y0033021D01*
X0236300Y0032423D02*
X0229454Y0032423D01*
X0229454Y0031824D02*
X0236300Y0031824D01*
X0236300Y0031226D02*
X0229454Y0031226D01*
X0229454Y0030627D02*
X0236300Y0030627D01*
X0236300Y0030029D02*
X0229454Y0030029D01*
X0229454Y0029430D02*
X0236300Y0029430D01*
X0236300Y0028832D02*
X0229454Y0028832D01*
X0229454Y0028233D02*
X0236300Y0028233D01*
X0236300Y0027634D02*
X0229454Y0027634D01*
X0229454Y0027036D02*
X0236300Y0027036D01*
X0236300Y0026437D02*
X0229454Y0026437D01*
X0229454Y0025839D02*
X0236300Y0025839D01*
X0236300Y0025240D02*
X0229454Y0025240D01*
X0229454Y0024642D02*
X0236300Y0024642D01*
X0236300Y0024043D02*
X0229454Y0024043D01*
X0229454Y0023445D02*
X0236300Y0023445D01*
X0236300Y0022846D02*
X0229041Y0022846D01*
X0228443Y0022248D02*
X0236300Y0022248D01*
X0236300Y0021649D02*
X0227844Y0021649D01*
X0227246Y0021051D02*
X0236300Y0021051D01*
X0236300Y0020452D02*
X0226647Y0020452D01*
X0226049Y0019854D02*
X0236300Y0019854D01*
X0236300Y0019255D02*
X0225450Y0019255D01*
X0224851Y0018657D02*
X0236300Y0018657D01*
X0236300Y0018058D02*
X0225090Y0018058D01*
X0225688Y0017460D02*
X0236300Y0017460D01*
X0236300Y0016861D02*
X0226256Y0016861D01*
X0226504Y0016263D02*
X0236300Y0016263D01*
X0236300Y0015664D02*
X0226752Y0015664D01*
X0226937Y0015066D02*
X0236300Y0015066D01*
X0236300Y0014467D02*
X0226937Y0014467D01*
X0226937Y0013869D02*
X0236300Y0013869D01*
X0236300Y0013270D02*
X0226891Y0013270D01*
X0226643Y0012672D02*
X0236300Y0012672D01*
X0236300Y0012073D02*
X0226395Y0012073D01*
X0226023Y0011475D02*
X0236300Y0011475D01*
X0235876Y0010876D02*
X0225424Y0010876D01*
X0224667Y0010278D02*
X0235278Y0010278D01*
X0234679Y0009679D02*
X0032505Y0009679D01*
X0031950Y0009081D02*
X0234081Y0009081D01*
X0233482Y0008482D02*
X0031335Y0008482D01*
X0030298Y0007884D02*
X0232884Y0007884D01*
X0232285Y0007285D02*
X0029261Y0007285D01*
X0028225Y0006687D02*
X0231687Y0006687D01*
X0231088Y0006088D02*
X0027086Y0006088D01*
X0027255Y0006127D02*
X0027255Y0006127D01*
X0024463Y0005490D02*
X0230490Y0005490D01*
X0220147Y0019255D02*
X0195870Y0019255D01*
X0195912Y0019854D02*
X0220746Y0019854D01*
X0221344Y0020452D02*
X0195912Y0020452D01*
X0195912Y0021051D02*
X0221943Y0021051D01*
X0222541Y0021649D02*
X0195912Y0021649D01*
X0195912Y0022248D02*
X0223140Y0022248D01*
X0223738Y0022846D02*
X0195912Y0022846D01*
X0195912Y0023445D02*
X0224337Y0023445D01*
X0224935Y0024043D02*
X0195912Y0024043D01*
X0195912Y0024642D02*
X0225534Y0024642D01*
X0225705Y0025240D02*
X0195912Y0025240D01*
X0195912Y0025839D02*
X0225705Y0025839D01*
X0225705Y0026437D02*
X0195912Y0026437D01*
X0195912Y0027036D02*
X0225705Y0027036D01*
X0225705Y0027634D02*
X0195912Y0027634D01*
X0195912Y0028233D02*
X0225705Y0028233D01*
X0225705Y0028832D02*
X0195668Y0028832D01*
X0195420Y0029430D02*
X0225705Y0029430D01*
X0225705Y0030029D02*
X0224066Y0030029D01*
X0225175Y0030627D02*
X0225705Y0030627D01*
X0229454Y0038408D02*
X0236300Y0038408D01*
X0236300Y0039006D02*
X0229454Y0039006D01*
X0229454Y0039605D02*
X0236300Y0039605D01*
X0236300Y0040203D02*
X0229454Y0040203D01*
X0229454Y0040802D02*
X0236300Y0040802D01*
X0236300Y0041400D02*
X0229454Y0041400D01*
X0229454Y0041999D02*
X0236300Y0041999D01*
X0236300Y0042597D02*
X0229454Y0042597D01*
X0229454Y0043196D02*
X0236300Y0043196D01*
X0236300Y0043794D02*
X0229454Y0043794D01*
X0229454Y0044393D02*
X0236300Y0044393D01*
X0236300Y0044991D02*
X0229454Y0044991D01*
X0229454Y0045590D02*
X0236300Y0045590D01*
X0236300Y0046188D02*
X0229454Y0046188D01*
X0229454Y0046787D02*
X0236300Y0046787D01*
X0236300Y0047385D02*
X0229454Y0047385D01*
X0229454Y0047984D02*
X0236300Y0047984D01*
X0236300Y0048582D02*
X0229454Y0048582D01*
X0229454Y0049181D02*
X0236300Y0049181D01*
X0236300Y0049779D02*
X0229454Y0049779D01*
X0229454Y0050378D02*
X0236300Y0050378D01*
X0236300Y0050976D02*
X0229454Y0050976D01*
X0229454Y0051575D02*
X0236300Y0051575D01*
X0236300Y0052173D02*
X0229454Y0052173D01*
X0229454Y0052772D02*
X0236300Y0052772D01*
X0236300Y0053370D02*
X0229454Y0053370D01*
X0229454Y0053969D02*
X0236300Y0053969D01*
X0236300Y0054568D02*
X0229454Y0054568D01*
X0229454Y0055166D02*
X0236300Y0055166D01*
X0236300Y0055765D02*
X0229454Y0055765D01*
X0229454Y0056363D02*
X0236300Y0056363D01*
X0236300Y0056962D02*
X0229454Y0056962D01*
X0229187Y0057560D02*
X0236300Y0057560D01*
X0236300Y0058159D02*
X0228589Y0058159D01*
X0227990Y0058757D02*
X0236300Y0058757D01*
X0236300Y0059356D02*
X0227392Y0059356D01*
X0226793Y0059954D02*
X0236300Y0059954D01*
X0236300Y0060553D02*
X0226195Y0060553D01*
X0225596Y0061151D02*
X0236300Y0061151D01*
X0236300Y0061750D02*
X0222832Y0061750D01*
X0222234Y0062348D02*
X0236300Y0062348D01*
X0236300Y0062947D02*
X0221635Y0062947D01*
X0221037Y0063545D02*
X0236300Y0063545D01*
X0236300Y0064144D02*
X0220438Y0064144D01*
X0219840Y0064742D02*
X0236300Y0064742D01*
X0236300Y0065341D02*
X0219241Y0065341D01*
X0218643Y0065939D02*
X0236300Y0065939D01*
X0236300Y0066538D02*
X0218044Y0066538D01*
X0217446Y0067136D02*
X0236300Y0067136D01*
X0236300Y0067735D02*
X0216847Y0067735D01*
X0216249Y0068333D02*
X0236300Y0068333D01*
X0236300Y0068932D02*
X0215650Y0068932D01*
X0215052Y0069530D02*
X0236300Y0069530D01*
X0236300Y0070129D02*
X0224308Y0070129D01*
X0225275Y0070727D02*
X0236300Y0070727D01*
X0236300Y0071326D02*
X0225874Y0071326D01*
X0226333Y0071924D02*
X0236300Y0071924D01*
X0236300Y0072523D02*
X0226581Y0072523D01*
X0226829Y0073121D02*
X0236300Y0073121D01*
X0236300Y0073720D02*
X0226937Y0073720D01*
X0226937Y0074318D02*
X0236300Y0074318D01*
X0236300Y0074917D02*
X0226937Y0074917D01*
X0226814Y0075515D02*
X0236300Y0075515D01*
X0236300Y0076114D02*
X0226566Y0076114D01*
X0226318Y0076712D02*
X0236300Y0076712D01*
X0236300Y0077311D02*
X0225837Y0077311D01*
X0225238Y0077909D02*
X0236300Y0077909D01*
X0236300Y0078508D02*
X0224219Y0078508D01*
X0216302Y0079106D02*
X0236300Y0079106D01*
X0236300Y0079705D02*
X0215704Y0079705D01*
X0215105Y0080303D02*
X0236300Y0080303D01*
X0236300Y0080902D02*
X0214507Y0080902D01*
X0213908Y0081501D02*
X0236300Y0081501D01*
X0236300Y0082099D02*
X0213310Y0082099D01*
X0212711Y0082698D02*
X0236300Y0082698D01*
X0236300Y0083296D02*
X0212131Y0083296D01*
X0212131Y0083895D02*
X0236300Y0083895D01*
X0236300Y0084493D02*
X0212131Y0084493D01*
X0212131Y0085092D02*
X0236300Y0085092D01*
X0236300Y0085690D02*
X0212131Y0085690D01*
X0212131Y0086289D02*
X0236300Y0086289D01*
X0236300Y0086887D02*
X0212131Y0086887D01*
X0212131Y0087486D02*
X0236300Y0087486D01*
X0236300Y0088084D02*
X0212131Y0088084D01*
X0212131Y0088683D02*
X0236300Y0088683D01*
X0236300Y0089281D02*
X0212131Y0089281D01*
X0212131Y0089880D02*
X0213894Y0089880D01*
X0212574Y0090478D02*
X0212131Y0090478D01*
X0208382Y0090478D02*
X0194104Y0090478D01*
X0194702Y0089880D02*
X0208382Y0089880D01*
X0208382Y0089281D02*
X0195301Y0089281D01*
X0195899Y0088683D02*
X0208382Y0088683D01*
X0208382Y0088084D02*
X0196498Y0088084D01*
X0197096Y0087486D02*
X0208382Y0087486D01*
X0208382Y0086887D02*
X0197695Y0086887D01*
X0198293Y0086289D02*
X0208382Y0086289D01*
X0208382Y0085690D02*
X0198892Y0085690D01*
X0199490Y0085092D02*
X0208382Y0085092D01*
X0208382Y0084493D02*
X0200089Y0084493D01*
X0200687Y0083895D02*
X0208382Y0083895D01*
X0208382Y0083296D02*
X0201286Y0083296D01*
X0201885Y0082698D02*
X0208382Y0082698D01*
X0208382Y0082099D02*
X0202483Y0082099D01*
X0203082Y0081501D02*
X0208606Y0081501D01*
X0208382Y0081724D02*
X0212279Y0077827D01*
X0211365Y0076913D01*
X0210663Y0075217D01*
X0210663Y0073919D01*
X0151486Y0133096D01*
X0149933Y0133096D01*
X0149787Y0133096D01*
X0149787Y0134394D01*
X0149256Y0135675D01*
X0149089Y0135843D01*
X0159677Y0135843D01*
X0167240Y0128279D01*
X0168338Y0127181D01*
X0207785Y0127181D01*
X0210257Y0129653D01*
X0215961Y0123949D01*
X0215961Y0118912D01*
X0214358Y0118912D01*
X0212662Y0118210D01*
X0211365Y0116913D01*
X0210663Y0115217D01*
X0210663Y0113383D01*
X0211365Y0111687D01*
X0212662Y0110390D01*
X0214358Y0109688D01*
X0215961Y0109688D01*
X0215961Y0104931D01*
X0209480Y0098450D01*
X0208382Y0097352D01*
X0208382Y0081724D01*
X0209204Y0080902D02*
X0203680Y0080902D01*
X0204279Y0080303D02*
X0209803Y0080303D01*
X0210401Y0079705D02*
X0204877Y0079705D01*
X0205476Y0079106D02*
X0211000Y0079106D01*
X0211598Y0078508D02*
X0206074Y0078508D01*
X0206673Y0077909D02*
X0212197Y0077909D01*
X0211763Y0077311D02*
X0207271Y0077311D01*
X0207870Y0076712D02*
X0211282Y0076712D01*
X0211034Y0076114D02*
X0208468Y0076114D01*
X0209067Y0075515D02*
X0210786Y0075515D01*
X0210663Y0074917D02*
X0209665Y0074917D01*
X0210264Y0074318D02*
X0210663Y0074318D01*
X0206756Y0072523D02*
X0202315Y0072523D01*
X0201717Y0073121D02*
X0206158Y0073121D01*
X0205559Y0073720D02*
X0201118Y0073720D01*
X0200520Y0074318D02*
X0204961Y0074318D01*
X0204362Y0074917D02*
X0199921Y0074917D01*
X0199323Y0075515D02*
X0203764Y0075515D01*
X0203165Y0076114D02*
X0198724Y0076114D01*
X0198126Y0076712D02*
X0202567Y0076712D01*
X0201968Y0077311D02*
X0197527Y0077311D01*
X0196929Y0077909D02*
X0201370Y0077909D01*
X0200771Y0078508D02*
X0196330Y0078508D01*
X0195731Y0079106D02*
X0200173Y0079106D01*
X0199574Y0079705D02*
X0195133Y0079705D01*
X0194534Y0080303D02*
X0198976Y0080303D01*
X0198377Y0080902D02*
X0193936Y0080902D01*
X0193337Y0081501D02*
X0197779Y0081501D01*
X0197180Y0082099D02*
X0192739Y0082099D01*
X0192140Y0082698D02*
X0196582Y0082698D01*
X0195983Y0083296D02*
X0191542Y0083296D01*
X0190943Y0083895D02*
X0195385Y0083895D01*
X0194786Y0084493D02*
X0190345Y0084493D01*
X0189746Y0085092D02*
X0194188Y0085092D01*
X0193589Y0085690D02*
X0189148Y0085690D01*
X0188549Y0086289D02*
X0192991Y0086289D01*
X0192392Y0086887D02*
X0187951Y0086887D01*
X0187352Y0087486D02*
X0191794Y0087486D01*
X0191195Y0088084D02*
X0186754Y0088084D01*
X0186155Y0088683D02*
X0190597Y0088683D01*
X0189998Y0089281D02*
X0185557Y0089281D01*
X0184958Y0089880D02*
X0189400Y0089880D01*
X0188801Y0090478D02*
X0184360Y0090478D01*
X0183761Y0091077D02*
X0188203Y0091077D01*
X0187604Y0091675D02*
X0183163Y0091675D01*
X0182564Y0092274D02*
X0187006Y0092274D01*
X0186407Y0092872D02*
X0181966Y0092872D01*
X0181367Y0093471D02*
X0185809Y0093471D01*
X0185210Y0094069D02*
X0180769Y0094069D01*
X0180170Y0094668D02*
X0184612Y0094668D01*
X0184013Y0095266D02*
X0179572Y0095266D01*
X0178973Y0095865D02*
X0183415Y0095865D01*
X0182816Y0096463D02*
X0178375Y0096463D01*
X0177776Y0097062D02*
X0182218Y0097062D01*
X0181619Y0097660D02*
X0177178Y0097660D01*
X0176579Y0098259D02*
X0181020Y0098259D01*
X0180422Y0098857D02*
X0175981Y0098857D01*
X0175382Y0099456D02*
X0179823Y0099456D01*
X0179225Y0100054D02*
X0174784Y0100054D01*
X0174185Y0100653D02*
X0178626Y0100653D01*
X0178028Y0101251D02*
X0173587Y0101251D01*
X0172988Y0101850D02*
X0177429Y0101850D01*
X0176831Y0102448D02*
X0172390Y0102448D01*
X0171791Y0103047D02*
X0176232Y0103047D01*
X0175634Y0103645D02*
X0171193Y0103645D01*
X0170594Y0104244D02*
X0175035Y0104244D01*
X0174437Y0104842D02*
X0169996Y0104842D01*
X0169397Y0105441D02*
X0173838Y0105441D01*
X0173240Y0106039D02*
X0168798Y0106039D01*
X0168200Y0106638D02*
X0172641Y0106638D01*
X0172043Y0107237D02*
X0167601Y0107237D01*
X0167003Y0107835D02*
X0171444Y0107835D01*
X0170846Y0108434D02*
X0166404Y0108434D01*
X0165806Y0109032D02*
X0170247Y0109032D01*
X0169649Y0109631D02*
X0165207Y0109631D01*
X0165576Y0109262D02*
X0164478Y0110360D01*
X0134179Y0110360D01*
X0134179Y0126089D01*
X0134325Y0125944D01*
X0135606Y0125413D01*
X0136994Y0125413D01*
X0138275Y0125944D01*
X0139256Y0126925D01*
X0139787Y0128206D01*
X0139787Y0134394D01*
X0139256Y0135675D01*
X0139089Y0135843D01*
X0143511Y0135843D01*
X0143344Y0135675D01*
X0142813Y0134394D01*
X0142813Y0128206D01*
X0143344Y0126925D01*
X0144325Y0125944D01*
X0145606Y0125413D01*
X0146994Y0125413D01*
X0148275Y0125944D01*
X0149256Y0126925D01*
X0149787Y0128206D01*
X0149787Y0129346D01*
X0149933Y0129346D01*
X0220291Y0058988D01*
X0220367Y0058912D01*
X0215926Y0058912D01*
X0165576Y0109262D01*
X0164609Y0110229D02*
X0169050Y0110229D01*
X0168452Y0110828D02*
X0134179Y0110828D01*
X0134179Y0111426D02*
X0167853Y0111426D01*
X0167255Y0112025D02*
X0134179Y0112025D01*
X0134179Y0112623D02*
X0166656Y0112623D01*
X0166058Y0113222D02*
X0134179Y0113222D01*
X0134179Y0113820D02*
X0165459Y0113820D01*
X0164861Y0114419D02*
X0134179Y0114419D01*
X0134179Y0115017D02*
X0164262Y0115017D01*
X0163664Y0115616D02*
X0134179Y0115616D01*
X0134179Y0116214D02*
X0163065Y0116214D01*
X0162467Y0116813D02*
X0134179Y0116813D01*
X0134179Y0117411D02*
X0161868Y0117411D01*
X0161270Y0118010D02*
X0134179Y0118010D01*
X0134179Y0118608D02*
X0160671Y0118608D01*
X0160073Y0119207D02*
X0134179Y0119207D01*
X0134179Y0119805D02*
X0159474Y0119805D01*
X0158876Y0120404D02*
X0134179Y0120404D01*
X0134179Y0121002D02*
X0158277Y0121002D01*
X0157679Y0121601D02*
X0134179Y0121601D01*
X0134179Y0122199D02*
X0157080Y0122199D01*
X0156482Y0122798D02*
X0134179Y0122798D01*
X0134179Y0123396D02*
X0155883Y0123396D01*
X0155285Y0123995D02*
X0134179Y0123995D01*
X0134179Y0124593D02*
X0154686Y0124593D01*
X0154087Y0125192D02*
X0134179Y0125192D01*
X0134179Y0125790D02*
X0134694Y0125790D01*
X0137906Y0125790D02*
X0144694Y0125790D01*
X0143879Y0126389D02*
X0138721Y0126389D01*
X0139282Y0126987D02*
X0143317Y0126987D01*
X0143070Y0127586D02*
X0139530Y0127586D01*
X0139778Y0128184D02*
X0142822Y0128184D01*
X0142813Y0128783D02*
X0139787Y0128783D01*
X0139787Y0129381D02*
X0142813Y0129381D01*
X0142813Y0129980D02*
X0139787Y0129980D01*
X0139787Y0130578D02*
X0142813Y0130578D01*
X0142813Y0131177D02*
X0139787Y0131177D01*
X0139787Y0131775D02*
X0142813Y0131775D01*
X0142813Y0132374D02*
X0139787Y0132374D01*
X0139787Y0132972D02*
X0142813Y0132972D01*
X0142813Y0133571D02*
X0139787Y0133571D01*
X0139787Y0134170D02*
X0142813Y0134170D01*
X0142968Y0134768D02*
X0139632Y0134768D01*
X0139384Y0135367D02*
X0143216Y0135367D01*
X0149384Y0135367D02*
X0160153Y0135367D01*
X0160751Y0134768D02*
X0149632Y0134768D01*
X0149787Y0134170D02*
X0161350Y0134170D01*
X0161948Y0133571D02*
X0149787Y0133571D01*
X0151610Y0132972D02*
X0162547Y0132972D01*
X0163146Y0132374D02*
X0152208Y0132374D01*
X0152807Y0131775D02*
X0163744Y0131775D01*
X0164343Y0131177D02*
X0153405Y0131177D01*
X0154004Y0130578D02*
X0164941Y0130578D01*
X0165540Y0129980D02*
X0154602Y0129980D01*
X0155201Y0129381D02*
X0166138Y0129381D01*
X0166737Y0128783D02*
X0155799Y0128783D01*
X0156398Y0128184D02*
X0167335Y0128184D01*
X0167934Y0127586D02*
X0156996Y0127586D01*
X0157595Y0126987D02*
X0212922Y0126987D01*
X0213520Y0126389D02*
X0158193Y0126389D01*
X0158792Y0125790D02*
X0214119Y0125790D01*
X0214717Y0125192D02*
X0159390Y0125192D01*
X0159989Y0124593D02*
X0190141Y0124593D01*
X0190130Y0124584D02*
X0190030Y0124584D01*
X0189628Y0124182D01*
X0187431Y0122425D01*
X0187357Y0122484D01*
X0187243Y0122717D01*
X0186973Y0123504D01*
X0185461Y0124584D01*
X0183602Y0124584D01*
X0182090Y0123504D01*
X0181820Y0122717D01*
X0181661Y0122390D01*
X0180887Y0123731D01*
X0180887Y0123731D01*
X0180887Y0123731D01*
X0179409Y0124584D01*
X0177781Y0124584D01*
X0176367Y0123954D01*
X0176367Y0123954D01*
X0175331Y0122802D01*
X0175093Y0122066D01*
X0174891Y0121442D01*
X0175488Y0120273D01*
X0176736Y0119868D01*
X0177731Y0120376D01*
X0175434Y0117675D01*
X0175016Y0117256D01*
X0175016Y0117182D01*
X0174968Y0117126D01*
X0175016Y0116536D01*
X0175016Y0115944D01*
X0175068Y0115892D01*
X0175074Y0115818D01*
X0175525Y0115434D01*
X0175944Y0115016D01*
X0176018Y0115016D01*
X0176074Y0114968D01*
X0176664Y0115016D01*
X0180812Y0115016D01*
X0181740Y0115944D01*
X0181740Y0117048D01*
X0181820Y0116883D01*
X0182090Y0116096D01*
X0183602Y0115016D01*
X0185461Y0115016D01*
X0186973Y0116096D01*
X0186973Y0116096D01*
X0187243Y0116883D01*
X0187324Y0117048D01*
X0187324Y0115944D01*
X0188252Y0115016D01*
X0193120Y0115016D01*
X0194048Y0115944D01*
X0194048Y0116490D01*
X0194379Y0115917D01*
X0195939Y0115016D01*
X0197741Y0115016D01*
X0199301Y0115917D01*
X0200202Y0117477D01*
X0200202Y0119539D01*
X0199396Y0120934D01*
X0198562Y0121416D01*
X0198563Y0121416D01*
X0199491Y0122344D01*
X0199491Y0123656D01*
X0198563Y0124584D01*
X0196720Y0124584D01*
X0194664Y0123398D01*
X0194664Y0123398D01*
X0194664Y0123398D01*
X0193478Y0121342D01*
X0193478Y0119034D01*
X0193478Y0119034D01*
X0193478Y0117826D01*
X0193120Y0118184D01*
X0192270Y0118184D01*
X0192270Y0122912D01*
X0192333Y0123477D01*
X0192270Y0123556D01*
X0192270Y0123656D01*
X0191868Y0124058D01*
X0191513Y0124502D01*
X0191413Y0124513D01*
X0191342Y0124584D01*
X0190774Y0124584D01*
X0190209Y0124647D01*
X0190130Y0124584D01*
X0190692Y0124593D02*
X0215316Y0124593D01*
X0215914Y0123995D02*
X0199152Y0123995D01*
X0199491Y0123396D02*
X0215961Y0123396D01*
X0215961Y0122798D02*
X0199491Y0122798D01*
X0199346Y0122199D02*
X0215961Y0122199D01*
X0215961Y0121601D02*
X0198748Y0121601D01*
X0199278Y0121002D02*
X0215961Y0121002D01*
X0215961Y0120404D02*
X0199703Y0120404D01*
X0199396Y0120934D02*
X0199396Y0120934D01*
X0199396Y0120934D01*
X0200048Y0119805D02*
X0215961Y0119805D01*
X0215961Y0119207D02*
X0200202Y0119207D01*
X0200202Y0118608D02*
X0213623Y0118608D01*
X0212462Y0118010D02*
X0200202Y0118010D01*
X0200164Y0117411D02*
X0211863Y0117411D01*
X0211323Y0116813D02*
X0199818Y0116813D01*
X0199473Y0116214D02*
X0211075Y0116214D01*
X0210828Y0115616D02*
X0198780Y0115616D01*
X0199301Y0115917D02*
X0199301Y0115917D01*
X0199301Y0115917D01*
X0197743Y0115017D02*
X0210663Y0115017D01*
X0210663Y0114419D02*
X0170163Y0114419D01*
X0169565Y0115017D02*
X0175942Y0115017D01*
X0175312Y0115616D02*
X0168966Y0115616D01*
X0168368Y0116214D02*
X0175016Y0116214D01*
X0174993Y0116813D02*
X0167769Y0116813D01*
X0167171Y0117411D02*
X0175171Y0117411D01*
X0175719Y0118010D02*
X0166572Y0118010D01*
X0165974Y0118608D02*
X0176228Y0118608D01*
X0176737Y0119207D02*
X0165375Y0119207D01*
X0164777Y0119805D02*
X0177245Y0119805D01*
X0177966Y0120653D02*
X0178107Y0121090D01*
X0178147Y0121180D01*
X0178278Y0121326D01*
X0178457Y0121405D01*
X0178556Y0121416D01*
X0178560Y0121415D01*
X0178567Y0121411D01*
X0178571Y0121404D01*
X0178571Y0121400D01*
X0178569Y0121373D01*
X0178559Y0121351D01*
X0178469Y0121245D01*
X0178054Y0120850D01*
X0178052Y0120754D01*
X0177966Y0120653D01*
X0178079Y0121002D02*
X0178214Y0121002D01*
X0176600Y0121577D02*
X0176629Y0121662D01*
X0176662Y0121745D01*
X0176699Y0121826D01*
X0176739Y0121906D01*
X0176782Y0121983D01*
X0176829Y0122059D01*
X0176879Y0122133D01*
X0176932Y0122205D01*
X0176988Y0122274D01*
X0177047Y0122341D01*
X0177109Y0122405D01*
X0177174Y0122466D01*
X0177241Y0122525D01*
X0177311Y0122580D01*
X0177383Y0122633D01*
X0177457Y0122682D01*
X0177534Y0122728D01*
X0177612Y0122770D01*
X0177692Y0122810D01*
X0177774Y0122845D01*
X0177857Y0122878D01*
X0177941Y0122906D01*
X0178027Y0122931D01*
X0178114Y0122952D01*
X0178201Y0122969D01*
X0178289Y0122983D01*
X0178378Y0122992D01*
X0178467Y0122998D01*
X0178556Y0123000D01*
X0178635Y0122998D01*
X0178713Y0122992D01*
X0178791Y0122983D01*
X0178868Y0122969D01*
X0178945Y0122952D01*
X0179020Y0122931D01*
X0179095Y0122906D01*
X0179168Y0122878D01*
X0179240Y0122846D01*
X0179310Y0122811D01*
X0179379Y0122772D01*
X0179445Y0122730D01*
X0179509Y0122685D01*
X0179571Y0122637D01*
X0179630Y0122586D01*
X0179687Y0122531D01*
X0179742Y0122474D01*
X0179793Y0122415D01*
X0179841Y0122353D01*
X0179886Y0122289D01*
X0179928Y0122223D01*
X0179967Y0122154D01*
X0180002Y0122084D01*
X0180034Y0122012D01*
X0180062Y0121939D01*
X0180087Y0121864D01*
X0180108Y0121789D01*
X0180125Y0121712D01*
X0180139Y0121635D01*
X0180148Y0121557D01*
X0180154Y0121479D01*
X0180156Y0121400D01*
X0179622Y0120156D02*
X0176600Y0116600D01*
X0180156Y0116600D01*
X0180026Y0118184D02*
X0180775Y0119066D01*
X0181170Y0119442D01*
X0181170Y0119019D01*
X0181521Y0117497D01*
X0181521Y0117497D01*
X0181542Y0117454D01*
X0180812Y0118184D01*
X0180026Y0118184D01*
X0180386Y0118608D02*
X0181265Y0118608D01*
X0181170Y0119207D02*
X0180923Y0119207D01*
X0185776Y0117489D02*
X0185836Y0117616D01*
X0185892Y0117745D01*
X0185945Y0117875D01*
X0185995Y0118007D01*
X0186041Y0118140D01*
X0186083Y0118274D01*
X0186122Y0118409D01*
X0186158Y0118546D01*
X0186189Y0118683D01*
X0186217Y0118821D01*
X0186242Y0118959D01*
X0186262Y0119098D01*
X0186279Y0119238D01*
X0186292Y0119378D01*
X0186301Y0119519D01*
X0186307Y0119659D01*
X0186309Y0119800D01*
X0187894Y0119805D02*
X0189102Y0119805D01*
X0189102Y0119962D02*
X0189102Y0118184D01*
X0188252Y0118184D01*
X0187522Y0117454D01*
X0187543Y0117497D01*
X0187894Y0119019D01*
X0187894Y0120310D01*
X0188081Y0120076D01*
X0189102Y0119962D01*
X0189102Y0119207D02*
X0187894Y0119207D01*
X0187799Y0118608D02*
X0189102Y0118608D01*
X0188077Y0118010D02*
X0187661Y0118010D01*
X0187543Y0117497D02*
X0187543Y0117497D01*
X0187324Y0116813D02*
X0187219Y0116813D01*
X0187324Y0116214D02*
X0187014Y0116214D01*
X0186973Y0116096D02*
X0186973Y0116096D01*
X0186301Y0115616D02*
X0187652Y0115616D01*
X0188250Y0115017D02*
X0185463Y0115017D01*
X0183601Y0115017D02*
X0180813Y0115017D01*
X0181412Y0115616D02*
X0182763Y0115616D01*
X0182090Y0116096D02*
X0182090Y0116096D01*
X0182050Y0116214D02*
X0181740Y0116214D01*
X0181740Y0116813D02*
X0181844Y0116813D01*
X0181403Y0118010D02*
X0180986Y0118010D01*
X0186309Y0119800D02*
X0186307Y0119941D01*
X0186301Y0120081D01*
X0186292Y0120222D01*
X0186279Y0120362D01*
X0186262Y0120502D01*
X0186242Y0120641D01*
X0186217Y0120779D01*
X0186189Y0120917D01*
X0186158Y0121054D01*
X0186122Y0121191D01*
X0186083Y0121326D01*
X0186041Y0121460D01*
X0185995Y0121593D01*
X0185945Y0121725D01*
X0185892Y0121855D01*
X0185836Y0121984D01*
X0185776Y0122111D01*
X0185954Y0121578D02*
X0183110Y0118022D01*
X0184532Y0116600D02*
X0184603Y0116602D01*
X0184674Y0116608D01*
X0184744Y0116617D01*
X0184814Y0116631D01*
X0184883Y0116648D01*
X0184950Y0116668D01*
X0185017Y0116693D01*
X0185082Y0116721D01*
X0185146Y0116752D01*
X0185208Y0116787D01*
X0185268Y0116825D01*
X0185325Y0116866D01*
X0185381Y0116910D01*
X0185434Y0116958D01*
X0185484Y0117008D01*
X0185532Y0117060D01*
X0185577Y0117115D01*
X0185618Y0117173D01*
X0185657Y0117233D01*
X0185692Y0117294D01*
X0185724Y0117358D01*
X0185752Y0117423D01*
X0185777Y0117489D01*
X0184532Y0116600D02*
X0184461Y0116602D01*
X0184390Y0116608D01*
X0184320Y0116617D01*
X0184250Y0116631D01*
X0184181Y0116648D01*
X0184114Y0116668D01*
X0184047Y0116693D01*
X0183982Y0116721D01*
X0183918Y0116752D01*
X0183856Y0116787D01*
X0183796Y0116825D01*
X0183738Y0116866D01*
X0183683Y0116910D01*
X0183630Y0116958D01*
X0183580Y0117008D01*
X0183532Y0117060D01*
X0183487Y0117115D01*
X0183446Y0117173D01*
X0183407Y0117233D01*
X0183372Y0117294D01*
X0183340Y0117358D01*
X0183312Y0117423D01*
X0183287Y0117489D01*
X0185777Y0122111D02*
X0185752Y0122177D01*
X0185724Y0122242D01*
X0185692Y0122306D01*
X0185657Y0122367D01*
X0185618Y0122427D01*
X0185577Y0122485D01*
X0185532Y0122540D01*
X0185484Y0122592D01*
X0185434Y0122642D01*
X0185381Y0122690D01*
X0185326Y0122734D01*
X0185268Y0122775D01*
X0185208Y0122813D01*
X0185146Y0122848D01*
X0185082Y0122879D01*
X0185017Y0122907D01*
X0184950Y0122932D01*
X0184883Y0122952D01*
X0184814Y0122969D01*
X0184744Y0122983D01*
X0184674Y0122992D01*
X0184603Y0122998D01*
X0184532Y0123000D01*
X0184461Y0122998D01*
X0184390Y0122992D01*
X0184320Y0122983D01*
X0184250Y0122969D01*
X0184181Y0122952D01*
X0184114Y0122932D01*
X0184047Y0122907D01*
X0183982Y0122879D01*
X0183918Y0122848D01*
X0183856Y0122813D01*
X0183796Y0122775D01*
X0183738Y0122734D01*
X0183683Y0122690D01*
X0183630Y0122642D01*
X0183580Y0122592D01*
X0183532Y0122540D01*
X0183487Y0122485D01*
X0183446Y0122427D01*
X0183407Y0122367D01*
X0183372Y0122306D01*
X0183340Y0122242D01*
X0183312Y0122177D01*
X0183287Y0122111D01*
X0181848Y0122798D02*
X0181425Y0122798D01*
X0181080Y0123396D02*
X0182053Y0123396D01*
X0182090Y0123504D02*
X0182090Y0123504D01*
X0182090Y0123504D01*
X0182777Y0123995D02*
X0180430Y0123995D01*
X0180156Y0121400D02*
X0180154Y0121318D01*
X0180148Y0121236D01*
X0180138Y0121155D01*
X0180125Y0121074D01*
X0180107Y0120994D01*
X0180086Y0120915D01*
X0180061Y0120837D01*
X0180033Y0120761D01*
X0180000Y0120685D01*
X0179965Y0120612D01*
X0179925Y0120540D01*
X0179883Y0120470D01*
X0179837Y0120402D01*
X0179788Y0120337D01*
X0179736Y0120274D01*
X0179680Y0120213D01*
X0179623Y0120155D01*
X0175421Y0120404D02*
X0164178Y0120404D01*
X0163580Y0121002D02*
X0175115Y0121002D01*
X0174942Y0121601D02*
X0162981Y0121601D01*
X0162383Y0122199D02*
X0175136Y0122199D01*
X0175330Y0122798D02*
X0161784Y0122798D01*
X0161186Y0123396D02*
X0175865Y0123396D01*
X0175331Y0122802D02*
X0175331Y0122802D01*
X0176459Y0123995D02*
X0160587Y0123995D01*
X0153489Y0125790D02*
X0147906Y0125790D01*
X0148721Y0126389D02*
X0152890Y0126389D01*
X0152292Y0126987D02*
X0149282Y0126987D01*
X0149530Y0127586D02*
X0151693Y0127586D01*
X0151095Y0128184D02*
X0149778Y0128184D01*
X0149787Y0128783D02*
X0150496Y0128783D01*
X0163660Y0137162D02*
X0168023Y0137162D01*
X0168431Y0136564D02*
X0164259Y0136564D01*
X0164857Y0135965D02*
X0168839Y0135965D01*
X0169247Y0135367D02*
X0165456Y0135367D01*
X0166054Y0134768D02*
X0169909Y0134768D01*
X0170660Y0134170D02*
X0166653Y0134170D01*
X0167251Y0133571D02*
X0171410Y0133571D01*
X0172161Y0132972D02*
X0167850Y0132972D01*
X0168448Y0132374D02*
X0172911Y0132374D01*
X0173150Y0132184D02*
X0173150Y0132184D01*
X0174190Y0131775D02*
X0169047Y0131775D01*
X0169645Y0131177D02*
X0175715Y0131177D01*
X0179167Y0138958D02*
X0179210Y0138958D01*
X0179587Y0138793D02*
X0177450Y0139632D01*
X0177307Y0139746D01*
X0179611Y0138791D01*
X0179587Y0138793D01*
X0180607Y0138717D02*
X0182292Y0138717D01*
X0181875Y0138622D01*
X0180607Y0138717D01*
X0183443Y0138979D02*
X0184113Y0139132D01*
X0184878Y0139574D01*
X0183443Y0138979D01*
X0184835Y0139556D02*
X0184847Y0139556D01*
X0185873Y0140148D02*
X0187340Y0141616D01*
X0186101Y0140280D01*
X0185873Y0140148D01*
X0185879Y0140155D02*
X0185884Y0140155D01*
X0186478Y0140753D02*
X0186540Y0140753D01*
X0187076Y0141352D02*
X0187095Y0141352D01*
X0188016Y0142698D02*
X0188709Y0144371D01*
X0188658Y0144030D01*
X0188016Y0142698D01*
X0188202Y0143147D02*
X0188233Y0143147D01*
X0188450Y0143746D02*
X0188521Y0143746D01*
X0188698Y0144344D02*
X0188705Y0144344D01*
X0188883Y0145527D02*
X0188883Y0147073D01*
X0189000Y0146300D01*
X0188883Y0145527D01*
X0188883Y0145541D02*
X0188886Y0145541D01*
X0188883Y0146140D02*
X0188976Y0146140D01*
X0188934Y0146738D02*
X0188883Y0146738D01*
X0188709Y0148229D02*
X0188016Y0149902D01*
X0188658Y0148570D01*
X0188709Y0148229D01*
X0188663Y0148534D02*
X0188583Y0148534D01*
X0188387Y0149132D02*
X0188335Y0149132D01*
X0188099Y0149731D02*
X0188087Y0149731D01*
X0187340Y0150984D02*
X0185873Y0152452D01*
X0186101Y0152320D01*
X0187340Y0150984D01*
X0186837Y0151526D02*
X0186798Y0151526D01*
X0186282Y0152125D02*
X0186200Y0152125D01*
X0184878Y0153026D02*
X0183443Y0153621D01*
X0184113Y0153468D01*
X0184878Y0153026D01*
X0184366Y0153322D02*
X0184164Y0153322D01*
X0182292Y0153883D02*
X0180607Y0153883D01*
X0181875Y0153978D01*
X0182292Y0153883D01*
X0182130Y0153920D02*
X0181100Y0153920D01*
X0179611Y0153809D02*
X0177307Y0152854D01*
X0177450Y0152968D01*
X0179587Y0153807D01*
X0179611Y0153809D01*
X0178436Y0153322D02*
X0178351Y0153322D01*
X0176432Y0152156D02*
X0175319Y0151043D01*
X0175655Y0151537D01*
X0176432Y0152156D01*
X0176400Y0152125D02*
X0176392Y0152125D01*
X0175802Y0151526D02*
X0175648Y0151526D01*
X0174651Y0150063D02*
X0174363Y0149641D01*
X0174033Y0148572D01*
X0174651Y0150063D01*
X0174513Y0149731D02*
X0174424Y0149731D01*
X0174265Y0149132D02*
X0174206Y0149132D01*
X0173717Y0147547D02*
X0173717Y0145053D01*
X0173686Y0145152D01*
X0173686Y0147448D01*
X0173717Y0147547D01*
X0173717Y0147337D02*
X0173686Y0147337D01*
X0173686Y0146738D02*
X0173717Y0146738D01*
X0173686Y0146140D02*
X0173717Y0146140D01*
X0173686Y0145541D02*
X0173717Y0145541D01*
X0174033Y0144028D02*
X0174651Y0142537D01*
X0174363Y0142959D01*
X0174033Y0144028D01*
X0174120Y0143746D02*
X0174150Y0143746D01*
X0174305Y0143147D02*
X0174398Y0143147D01*
X0174642Y0142549D02*
X0174646Y0142549D01*
X0175319Y0141557D02*
X0176432Y0140444D01*
X0175655Y0141063D01*
X0175319Y0141557D01*
X0175458Y0141352D02*
X0175524Y0141352D01*
X0176044Y0140753D02*
X0176122Y0140753D01*
X0177642Y0139556D02*
X0177765Y0139556D01*
X0167614Y0137761D02*
X0163062Y0137761D01*
X0162463Y0138359D02*
X0167206Y0138359D01*
X0166798Y0138958D02*
X0161865Y0138958D01*
X0161266Y0139556D02*
X0166513Y0139556D01*
X0166328Y0140155D02*
X0105451Y0140155D01*
X0104853Y0140753D02*
X0166144Y0140753D01*
X0165959Y0141352D02*
X0104254Y0141352D01*
X0103656Y0141950D02*
X0165774Y0141950D01*
X0165590Y0142549D02*
X0103057Y0142549D01*
X0102459Y0143147D02*
X0131218Y0143147D01*
X0131482Y0142882D02*
X0131838Y0142882D01*
X0132494Y0142882D01*
X0133095Y0142882D01*
X0133204Y0142882D01*
X0134435Y0143593D01*
X0135145Y0144823D01*
X0135145Y0146082D01*
X0135503Y0145722D01*
X0137197Y0145016D01*
X0138920Y0145016D01*
X0140316Y0145821D01*
X0140631Y0146368D01*
X0141002Y0145726D01*
X0142232Y0145016D01*
X0143599Y0145016D01*
X0145376Y0145016D01*
X0146067Y0145707D01*
X0146758Y0145016D01*
X0148070Y0145016D01*
X0148836Y0145782D01*
X0149602Y0145016D01*
X0150915Y0145016D01*
X0151731Y0145832D01*
X0151799Y0145687D01*
X0152416Y0145465D01*
X0153614Y0145034D01*
X0154230Y0145025D01*
X0154886Y0145016D01*
X0155792Y0145003D01*
X0157201Y0146142D01*
X0157557Y0147919D01*
X0156713Y0149476D01*
X0157156Y0150459D01*
X0156691Y0151686D01*
X0156092Y0151956D01*
X0155030Y0152434D01*
X0154521Y0152441D01*
X0153864Y0152451D01*
X0153706Y0152453D01*
X0153208Y0152460D01*
X0152958Y0152464D01*
X0151549Y0151325D01*
X0151549Y0151325D01*
X0151503Y0151098D01*
X0151133Y0151741D01*
X0151133Y0151741D01*
X0151133Y0151741D01*
X0149902Y0152451D01*
X0146758Y0152451D01*
X0145830Y0151523D01*
X0145830Y0151074D01*
X0145156Y0152002D01*
X0143298Y0152606D01*
X0141440Y0152002D01*
X0141440Y0152002D01*
X0140291Y0150421D01*
X0140291Y0150242D01*
X0140169Y0150314D01*
X0140161Y0150343D01*
X0139608Y0150645D01*
X0139222Y0150872D01*
X0140055Y0150991D01*
X0140843Y0152041D01*
X0140657Y0153340D01*
X0140132Y0153734D01*
X0139580Y0154148D01*
X0138271Y0154584D01*
X0137581Y0154584D01*
X0136925Y0154584D01*
X0136776Y0154584D01*
X0136776Y0154584D01*
X0135381Y0153779D01*
X0135381Y0153779D01*
X0135381Y0153779D01*
X0135315Y0153664D01*
X0134395Y0154584D01*
X0132727Y0154584D01*
X0131799Y0153656D01*
X0131799Y0151988D01*
X0132120Y0151667D01*
X0131977Y0151523D01*
X0131977Y0151332D01*
X0131741Y0151741D01*
X0131741Y0151741D01*
X0131741Y0151741D01*
X0130510Y0152451D01*
X0125944Y0152451D01*
X0125016Y0151523D01*
X0125016Y0145944D01*
X0125944Y0145016D01*
X0127256Y0145016D01*
X0127667Y0145426D01*
X0128077Y0145016D01*
X0129390Y0145016D01*
X0129800Y0145426D01*
X0130210Y0145016D01*
X0130554Y0145016D01*
X0130554Y0143810D01*
X0131482Y0142882D01*
X0131838Y0142882D02*
X0131838Y0142882D01*
X0130619Y0143746D02*
X0101860Y0143746D01*
X0102431Y0144344D02*
X0110169Y0144344D01*
X0110487Y0144213D02*
X0112113Y0144213D01*
X0113615Y0144835D01*
X0114765Y0145985D01*
X0115387Y0147487D01*
X0115387Y0155113D01*
X0114765Y0156615D01*
X0113615Y0157765D01*
X0112113Y0158387D01*
X0110487Y0158387D01*
X0108985Y0157765D01*
X0107835Y0156615D01*
X0107213Y0155113D01*
X0107213Y0147487D01*
X0107835Y0145985D01*
X0108985Y0144835D01*
X0110487Y0144213D01*
X0108877Y0144943D02*
X0103723Y0144943D01*
X0104322Y0145541D02*
X0108278Y0145541D01*
X0107771Y0146140D02*
X0104829Y0146140D01*
X0105077Y0146738D02*
X0107523Y0146738D01*
X0107275Y0147337D02*
X0105325Y0147337D01*
X0105387Y0147935D02*
X0107213Y0147935D01*
X0107213Y0148534D02*
X0105387Y0148534D01*
X0105387Y0149132D02*
X0107213Y0149132D01*
X0107213Y0149731D02*
X0105387Y0149731D01*
X0105387Y0150329D02*
X0107213Y0150329D01*
X0107213Y0150928D02*
X0105387Y0150928D01*
X0105387Y0151526D02*
X0107213Y0151526D01*
X0107213Y0152125D02*
X0105387Y0152125D01*
X0105387Y0152723D02*
X0107213Y0152723D01*
X0107213Y0153322D02*
X0105387Y0153322D01*
X0105387Y0153920D02*
X0107213Y0153920D01*
X0107213Y0154519D02*
X0105387Y0154519D01*
X0105386Y0155117D02*
X0107214Y0155117D01*
X0107462Y0155716D02*
X0105138Y0155716D01*
X0104890Y0156314D02*
X0107710Y0156314D01*
X0108132Y0156913D02*
X0104467Y0156913D01*
X0103869Y0157511D02*
X0108731Y0157511D01*
X0109817Y0158110D02*
X0102783Y0158110D01*
X0099817Y0158110D02*
X0092783Y0158110D01*
X0093869Y0157511D02*
X0098731Y0157511D01*
X0098132Y0156913D02*
X0094467Y0156913D01*
X0094890Y0156314D02*
X0097710Y0156314D01*
X0097462Y0155716D02*
X0095138Y0155716D01*
X0095386Y0155117D02*
X0097214Y0155117D01*
X0097213Y0154519D02*
X0095387Y0154519D01*
X0095387Y0153920D02*
X0097213Y0153920D01*
X0097213Y0153322D02*
X0095387Y0153322D01*
X0095387Y0152723D02*
X0097213Y0152723D01*
X0097213Y0152125D02*
X0095387Y0152125D01*
X0095387Y0151526D02*
X0097213Y0151526D01*
X0097213Y0150928D02*
X0095387Y0150928D01*
X0095387Y0150329D02*
X0097213Y0150329D01*
X0097213Y0149731D02*
X0095875Y0149731D01*
X0096473Y0149132D02*
X0097213Y0149132D01*
X0097213Y0148534D02*
X0097072Y0148534D01*
X0094542Y0145761D02*
X0103362Y0136941D01*
X0103986Y0136317D01*
X0103344Y0135675D01*
X0102813Y0134394D01*
X0102813Y0128206D01*
X0103344Y0126925D01*
X0104325Y0125944D01*
X0105606Y0125413D01*
X0106994Y0125413D01*
X0108275Y0125944D01*
X0109256Y0126925D01*
X0109787Y0128206D01*
X0109787Y0134394D01*
X0109256Y0135675D01*
X0109089Y0135843D01*
X0113511Y0135843D01*
X0113344Y0135675D01*
X0112813Y0134394D01*
X0112813Y0128206D01*
X0113344Y0126925D01*
X0114325Y0125944D01*
X0115606Y0125413D01*
X0116994Y0125413D01*
X0118275Y0125944D01*
X0119256Y0126925D01*
X0119787Y0128206D01*
X0119787Y0134394D01*
X0119256Y0135675D01*
X0119089Y0135843D01*
X0123511Y0135843D01*
X0123344Y0135675D01*
X0122813Y0134394D01*
X0122813Y0128206D01*
X0123344Y0126925D01*
X0124325Y0125944D01*
X0125606Y0125413D01*
X0126994Y0125413D01*
X0128275Y0125944D01*
X0129256Y0126925D01*
X0129787Y0128206D01*
X0129787Y0134394D01*
X0129256Y0135675D01*
X0129089Y0135843D01*
X0133511Y0135843D01*
X0133344Y0135675D01*
X0132813Y0134394D01*
X0132813Y0131133D01*
X0130429Y0128750D01*
X0130429Y0087608D01*
X0129787Y0086966D01*
X0129787Y0087745D01*
X0127745Y0089787D01*
X0127084Y0089787D01*
X0127683Y0090386D01*
X0127683Y0095698D01*
X0128275Y0095944D01*
X0129256Y0096925D01*
X0129787Y0098206D01*
X0129787Y0104394D01*
X0129256Y0105675D01*
X0128275Y0106656D01*
X0126994Y0107187D01*
X0125606Y0107187D01*
X0124325Y0106656D01*
X0123344Y0105675D01*
X0122813Y0104394D01*
X0122813Y0098206D01*
X0123344Y0096925D01*
X0123933Y0096335D01*
X0123933Y0091939D01*
X0120701Y0088706D01*
X0119763Y0087769D01*
X0117745Y0089787D01*
X0114855Y0089787D01*
X0113774Y0088706D01*
X0112510Y0088706D01*
X0110360Y0090856D01*
X0109262Y0091954D01*
X0099047Y0091954D01*
X0097949Y0090856D01*
X0096880Y0089787D01*
X0095188Y0089787D01*
X0094606Y0090370D01*
X0097352Y0090370D01*
X0098450Y0091468D01*
X0103625Y0096643D01*
X0104325Y0095944D01*
X0105606Y0095413D01*
X0106994Y0095413D01*
X0108275Y0095944D01*
X0109256Y0096925D01*
X0109787Y0098206D01*
X0109787Y0104394D01*
X0109256Y0105675D01*
X0108275Y0106656D01*
X0106994Y0107187D01*
X0105606Y0107187D01*
X0104325Y0106656D01*
X0103344Y0105675D01*
X0102813Y0104394D01*
X0102813Y0101133D01*
X0099718Y0098039D01*
X0099787Y0098206D01*
X0099787Y0104394D01*
X0099256Y0105675D01*
X0098275Y0106656D01*
X0096994Y0107187D01*
X0095606Y0107187D01*
X0094325Y0106656D01*
X0093344Y0105675D01*
X0092813Y0104394D01*
X0092813Y0098206D01*
X0093344Y0096925D01*
X0094325Y0095944D01*
X0095606Y0095413D01*
X0096994Y0095413D01*
X0097161Y0095482D01*
X0095799Y0094120D01*
X0075228Y0094120D01*
X0069815Y0088706D01*
X0069320Y0088212D01*
X0069218Y0088314D01*
X0069218Y0091468D01*
X0074009Y0096259D01*
X0074325Y0095944D01*
X0075606Y0095413D01*
X0076994Y0095413D01*
X0078275Y0095944D01*
X0079256Y0096925D01*
X0079787Y0098206D01*
X0079787Y0104394D01*
X0079256Y0105675D01*
X0078275Y0106656D01*
X0076994Y0107187D01*
X0076276Y0107187D01*
X0082210Y0113122D01*
X0082210Y0144253D01*
X0083615Y0144835D01*
X0084765Y0145985D01*
X0085387Y0147487D01*
X0085387Y0154916D01*
X0087213Y0153090D01*
X0087213Y0147487D01*
X0087835Y0145985D01*
X0088985Y0144835D01*
X0090487Y0144213D01*
X0092113Y0144213D01*
X0093615Y0144835D01*
X0094542Y0145761D01*
X0094322Y0145541D02*
X0094762Y0145541D01*
X0095360Y0144943D02*
X0093723Y0144943D01*
X0092431Y0144344D02*
X0095959Y0144344D01*
X0096557Y0143746D02*
X0082210Y0143746D01*
X0082210Y0143147D02*
X0097156Y0143147D01*
X0097754Y0142549D02*
X0082210Y0142549D01*
X0082210Y0141950D02*
X0098353Y0141950D01*
X0098951Y0141352D02*
X0082210Y0141352D01*
X0082210Y0140753D02*
X0099550Y0140753D01*
X0100148Y0140155D02*
X0082210Y0140155D01*
X0082210Y0139556D02*
X0100747Y0139556D01*
X0101345Y0138958D02*
X0082210Y0138958D01*
X0082210Y0138359D02*
X0101944Y0138359D01*
X0102542Y0137761D02*
X0082210Y0137761D01*
X0082210Y0137162D02*
X0085545Y0137162D01*
X0085606Y0137187D02*
X0084325Y0136656D01*
X0083344Y0135675D01*
X0082813Y0134394D01*
X0082813Y0128206D01*
X0083344Y0126925D01*
X0084325Y0125944D01*
X0085606Y0125413D01*
X0086994Y0125413D01*
X0088275Y0125944D01*
X0089256Y0126925D01*
X0089787Y0128206D01*
X0089787Y0134394D01*
X0089256Y0135675D01*
X0088275Y0136656D01*
X0086994Y0137187D01*
X0085606Y0137187D01*
X0087055Y0137162D02*
X0095545Y0137162D01*
X0095606Y0137187D02*
X0094325Y0136656D01*
X0093344Y0135675D01*
X0092813Y0134394D01*
X0092813Y0128206D01*
X0093344Y0126925D01*
X0094325Y0125944D01*
X0095606Y0125413D01*
X0096994Y0125413D01*
X0098275Y0125944D01*
X0099256Y0126925D01*
X0099787Y0128206D01*
X0099787Y0134394D01*
X0099256Y0135675D01*
X0098275Y0136656D01*
X0096994Y0137187D01*
X0095606Y0137187D01*
X0097055Y0137162D02*
X0103141Y0137162D01*
X0103739Y0136564D02*
X0098368Y0136564D01*
X0098967Y0135965D02*
X0103633Y0135965D01*
X0103216Y0135367D02*
X0099384Y0135367D01*
X0099632Y0134768D02*
X0102968Y0134768D01*
X0102813Y0134170D02*
X0099787Y0134170D01*
X0099787Y0133571D02*
X0102813Y0133571D01*
X0102813Y0132972D02*
X0099787Y0132972D01*
X0099787Y0132374D02*
X0102813Y0132374D01*
X0102813Y0131775D02*
X0099787Y0131775D01*
X0099787Y0131177D02*
X0102813Y0131177D01*
X0102813Y0130578D02*
X0099787Y0130578D01*
X0099787Y0129980D02*
X0102813Y0129980D01*
X0102813Y0129381D02*
X0099787Y0129381D01*
X0099787Y0128783D02*
X0102813Y0128783D01*
X0102822Y0128184D02*
X0099778Y0128184D01*
X0099530Y0127586D02*
X0103070Y0127586D01*
X0103317Y0126987D02*
X0099282Y0126987D01*
X0098721Y0126389D02*
X0103879Y0126389D01*
X0104694Y0125790D02*
X0097906Y0125790D01*
X0094694Y0125790D02*
X0087906Y0125790D01*
X0088721Y0126389D02*
X0093879Y0126389D01*
X0093317Y0126987D02*
X0089282Y0126987D01*
X0089530Y0127586D02*
X0093070Y0127586D01*
X0092822Y0128184D02*
X0089778Y0128184D01*
X0089787Y0128783D02*
X0092813Y0128783D01*
X0092813Y0129381D02*
X0089787Y0129381D01*
X0089787Y0129980D02*
X0092813Y0129980D01*
X0092813Y0130578D02*
X0089787Y0130578D01*
X0089787Y0131177D02*
X0092813Y0131177D01*
X0092813Y0131775D02*
X0089787Y0131775D01*
X0089787Y0132374D02*
X0092813Y0132374D01*
X0092813Y0132972D02*
X0089787Y0132972D01*
X0089787Y0133571D02*
X0092813Y0133571D01*
X0092813Y0134170D02*
X0089787Y0134170D01*
X0089632Y0134768D02*
X0092968Y0134768D01*
X0093216Y0135367D02*
X0089384Y0135367D01*
X0088967Y0135965D02*
X0093633Y0135965D01*
X0094232Y0136564D02*
X0088368Y0136564D01*
X0084232Y0136564D02*
X0082210Y0136564D01*
X0082210Y0135965D02*
X0083633Y0135965D01*
X0083216Y0135367D02*
X0082210Y0135367D01*
X0082210Y0134768D02*
X0082968Y0134768D01*
X0082813Y0134170D02*
X0082210Y0134170D01*
X0082210Y0133571D02*
X0082813Y0133571D01*
X0082813Y0132972D02*
X0082210Y0132972D01*
X0082210Y0132374D02*
X0082813Y0132374D01*
X0082813Y0131775D02*
X0082210Y0131775D01*
X0082210Y0131177D02*
X0082813Y0131177D01*
X0082813Y0130578D02*
X0082210Y0130578D01*
X0082210Y0129980D02*
X0082813Y0129980D01*
X0082813Y0129381D02*
X0082210Y0129381D01*
X0082210Y0128783D02*
X0082813Y0128783D01*
X0082822Y0128184D02*
X0082210Y0128184D01*
X0082210Y0127586D02*
X0083070Y0127586D01*
X0083317Y0126987D02*
X0082210Y0126987D01*
X0082210Y0126389D02*
X0083879Y0126389D01*
X0084694Y0125790D02*
X0082210Y0125790D01*
X0082210Y0125192D02*
X0130429Y0125192D01*
X0130429Y0125790D02*
X0127906Y0125790D01*
X0128721Y0126389D02*
X0130429Y0126389D01*
X0130429Y0126987D02*
X0129282Y0126987D01*
X0129530Y0127586D02*
X0130429Y0127586D01*
X0130429Y0128184D02*
X0129778Y0128184D01*
X0129787Y0128783D02*
X0130462Y0128783D01*
X0131061Y0129381D02*
X0129787Y0129381D01*
X0129787Y0129980D02*
X0131659Y0129980D01*
X0132258Y0130578D02*
X0129787Y0130578D01*
X0129787Y0131177D02*
X0132813Y0131177D01*
X0132813Y0131775D02*
X0129787Y0131775D01*
X0129787Y0132374D02*
X0132813Y0132374D01*
X0132813Y0132972D02*
X0129787Y0132972D01*
X0129787Y0133571D02*
X0132813Y0133571D01*
X0132813Y0134170D02*
X0129787Y0134170D01*
X0129632Y0134768D02*
X0132968Y0134768D01*
X0133216Y0135367D02*
X0129384Y0135367D01*
X0123216Y0135367D02*
X0119384Y0135367D01*
X0119632Y0134768D02*
X0122968Y0134768D01*
X0122813Y0134170D02*
X0119787Y0134170D01*
X0119787Y0133571D02*
X0122813Y0133571D01*
X0122813Y0132972D02*
X0119787Y0132972D01*
X0119787Y0132374D02*
X0122813Y0132374D01*
X0122813Y0131775D02*
X0119787Y0131775D01*
X0119787Y0131177D02*
X0122813Y0131177D01*
X0122813Y0130578D02*
X0119787Y0130578D01*
X0119787Y0129980D02*
X0122813Y0129980D01*
X0122813Y0129381D02*
X0119787Y0129381D01*
X0119787Y0128783D02*
X0122813Y0128783D01*
X0122822Y0128184D02*
X0119778Y0128184D01*
X0119530Y0127586D02*
X0123070Y0127586D01*
X0123317Y0126987D02*
X0119282Y0126987D01*
X0118721Y0126389D02*
X0123879Y0126389D01*
X0124694Y0125790D02*
X0117906Y0125790D01*
X0114694Y0125790D02*
X0107906Y0125790D01*
X0108721Y0126389D02*
X0113879Y0126389D01*
X0113317Y0126987D02*
X0109282Y0126987D01*
X0109530Y0127586D02*
X0113070Y0127586D01*
X0112822Y0128184D02*
X0109778Y0128184D01*
X0109787Y0128783D02*
X0112813Y0128783D01*
X0112813Y0129381D02*
X0109787Y0129381D01*
X0109787Y0129980D02*
X0112813Y0129980D01*
X0112813Y0130578D02*
X0109787Y0130578D01*
X0109787Y0131177D02*
X0112813Y0131177D01*
X0112813Y0131775D02*
X0109787Y0131775D01*
X0109787Y0132374D02*
X0112813Y0132374D01*
X0112813Y0132972D02*
X0109787Y0132972D01*
X0109787Y0133571D02*
X0112813Y0133571D01*
X0112813Y0134170D02*
X0109787Y0134170D01*
X0109632Y0134768D02*
X0112968Y0134768D01*
X0113216Y0135367D02*
X0109384Y0135367D01*
X0112431Y0144344D02*
X0130554Y0144344D01*
X0130554Y0144943D02*
X0113723Y0144943D01*
X0114322Y0145541D02*
X0125418Y0145541D01*
X0125016Y0146140D02*
X0114829Y0146140D01*
X0115077Y0146738D02*
X0125016Y0146738D01*
X0125016Y0147337D02*
X0115325Y0147337D01*
X0115387Y0147935D02*
X0125016Y0147935D01*
X0125016Y0148534D02*
X0115387Y0148534D01*
X0115387Y0149132D02*
X0125016Y0149132D01*
X0125016Y0149731D02*
X0115387Y0149731D01*
X0115387Y0150329D02*
X0125016Y0150329D01*
X0125016Y0150928D02*
X0115387Y0150928D01*
X0115387Y0151526D02*
X0125019Y0151526D01*
X0125618Y0152125D02*
X0115387Y0152125D01*
X0115387Y0152723D02*
X0131799Y0152723D01*
X0131799Y0152125D02*
X0131075Y0152125D01*
X0131864Y0151526D02*
X0131980Y0151526D01*
X0133561Y0150867D02*
X0133561Y0145533D01*
X0133559Y0145469D01*
X0133553Y0145404D01*
X0133544Y0145341D01*
X0133530Y0145278D01*
X0133513Y0145216D01*
X0133492Y0145155D01*
X0133467Y0145095D01*
X0133439Y0145037D01*
X0133407Y0144981D01*
X0133372Y0144927D01*
X0133334Y0144875D01*
X0133293Y0144825D01*
X0133248Y0144779D01*
X0133202Y0144734D01*
X0133152Y0144693D01*
X0133100Y0144655D01*
X0133046Y0144620D01*
X0132990Y0144588D01*
X0132932Y0144560D01*
X0132872Y0144535D01*
X0132811Y0144514D01*
X0132749Y0144497D01*
X0132686Y0144483D01*
X0132623Y0144474D01*
X0132558Y0144468D01*
X0132494Y0144466D01*
X0132494Y0144467D02*
X0132139Y0144467D01*
X0133663Y0143147D02*
X0165405Y0143147D01*
X0165221Y0143746D02*
X0134523Y0143746D01*
X0134435Y0143593D02*
X0134435Y0143593D01*
X0134435Y0143593D01*
X0134869Y0144344D02*
X0165182Y0144344D01*
X0165182Y0144943D02*
X0135145Y0144943D01*
X0135145Y0145541D02*
X0135936Y0145541D01*
X0135503Y0145722D02*
X0135503Y0145722D01*
X0135145Y0148891D02*
X0135145Y0149776D01*
X0135373Y0149377D01*
X0135373Y0149377D01*
X0135373Y0149377D01*
X0135527Y0149286D01*
X0135536Y0149257D01*
X0135871Y0149074D01*
X0135332Y0149076D01*
X0135145Y0148891D01*
X0135145Y0149132D02*
X0135764Y0149132D01*
X0135171Y0149731D02*
X0135145Y0149731D01*
X0136870Y0150333D02*
X0138826Y0149267D01*
X0138115Y0146600D02*
X0138007Y0146602D01*
X0137900Y0146608D01*
X0137792Y0146617D01*
X0137685Y0146631D01*
X0137579Y0146648D01*
X0137473Y0146669D01*
X0137368Y0146694D01*
X0137264Y0146723D01*
X0137161Y0146755D01*
X0137060Y0146791D01*
X0136960Y0146831D01*
X0136861Y0146874D01*
X0136764Y0146921D01*
X0136668Y0146971D01*
X0136575Y0147025D01*
X0136483Y0147082D01*
X0136394Y0147142D01*
X0136307Y0147205D01*
X0136222Y0147272D01*
X0136139Y0147341D01*
X0136059Y0147414D01*
X0135982Y0147489D01*
X0138826Y0149266D02*
X0138890Y0149226D01*
X0138951Y0149183D01*
X0139010Y0149137D01*
X0139067Y0149088D01*
X0139121Y0149036D01*
X0139172Y0148982D01*
X0139220Y0148924D01*
X0139266Y0148865D01*
X0139308Y0148803D01*
X0139347Y0148738D01*
X0139382Y0148672D01*
X0139414Y0148605D01*
X0139443Y0148535D01*
X0139468Y0148465D01*
X0139489Y0148393D01*
X0139506Y0148320D01*
X0139520Y0148246D01*
X0139529Y0148172D01*
X0139535Y0148097D01*
X0139537Y0148022D01*
X0139535Y0147948D01*
X0139529Y0147873D01*
X0139519Y0147800D01*
X0139506Y0147726D01*
X0139489Y0147654D01*
X0139467Y0147583D01*
X0139443Y0147512D01*
X0139414Y0147444D01*
X0139382Y0147376D01*
X0139346Y0147311D01*
X0139308Y0147248D01*
X0139265Y0147186D01*
X0139220Y0147127D01*
X0139172Y0147070D01*
X0139121Y0147016D01*
X0139067Y0146965D01*
X0139010Y0146917D01*
X0138951Y0146872D01*
X0138889Y0146829D01*
X0138826Y0146791D01*
X0138761Y0146755D01*
X0138693Y0146723D01*
X0138625Y0146694D01*
X0138554Y0146670D01*
X0138483Y0146648D01*
X0138411Y0146631D01*
X0138337Y0146618D01*
X0138264Y0146608D01*
X0138189Y0146602D01*
X0138115Y0146600D01*
X0139831Y0145541D02*
X0141322Y0145541D01*
X0141002Y0145726D02*
X0141002Y0145726D01*
X0141002Y0145726D01*
X0140763Y0146140D02*
X0140500Y0146140D01*
X0140316Y0145821D02*
X0140316Y0145821D01*
X0140316Y0145821D01*
X0141876Y0147667D02*
X0141876Y0149444D01*
X0141876Y0148733D02*
X0144720Y0148733D01*
X0144720Y0149444D01*
X0144718Y0149518D01*
X0144712Y0149593D01*
X0144702Y0149666D01*
X0144689Y0149740D01*
X0144672Y0149812D01*
X0144650Y0149883D01*
X0144626Y0149954D01*
X0144597Y0150022D01*
X0144565Y0150090D01*
X0144529Y0150155D01*
X0144491Y0150218D01*
X0144448Y0150280D01*
X0144403Y0150339D01*
X0144355Y0150396D01*
X0144304Y0150450D01*
X0144250Y0150501D01*
X0144193Y0150549D01*
X0144134Y0150594D01*
X0144072Y0150637D01*
X0144009Y0150675D01*
X0143944Y0150711D01*
X0143876Y0150743D01*
X0143808Y0150772D01*
X0143737Y0150796D01*
X0143666Y0150818D01*
X0143594Y0150835D01*
X0143520Y0150848D01*
X0143447Y0150858D01*
X0143372Y0150864D01*
X0143298Y0150866D01*
X0143224Y0150864D01*
X0143149Y0150858D01*
X0143076Y0150848D01*
X0143002Y0150835D01*
X0142930Y0150818D01*
X0142859Y0150796D01*
X0142788Y0150772D01*
X0142720Y0150743D01*
X0142652Y0150711D01*
X0142587Y0150675D01*
X0142524Y0150637D01*
X0142462Y0150594D01*
X0142403Y0150549D01*
X0142346Y0150501D01*
X0142292Y0150450D01*
X0142241Y0150396D01*
X0142193Y0150339D01*
X0142148Y0150280D01*
X0142105Y0150218D01*
X0142067Y0150155D01*
X0142031Y0150090D01*
X0141999Y0150022D01*
X0141970Y0149954D01*
X0141946Y0149883D01*
X0141924Y0149812D01*
X0141907Y0149740D01*
X0141894Y0149666D01*
X0141884Y0149593D01*
X0141878Y0149518D01*
X0141876Y0149444D01*
X0140291Y0150329D02*
X0140165Y0150329D01*
X0140659Y0150928D02*
X0139612Y0150928D01*
X0140457Y0151526D02*
X0141094Y0151526D01*
X0140831Y0152125D02*
X0141818Y0152125D01*
X0140745Y0152723D02*
X0166414Y0152723D01*
X0166229Y0152125D02*
X0155716Y0152125D01*
X0154909Y0146600D02*
X0154755Y0146604D01*
X0154602Y0146612D01*
X0154449Y0146624D01*
X0154296Y0146640D01*
X0154144Y0146659D01*
X0153992Y0146683D01*
X0153841Y0146710D01*
X0153691Y0146742D01*
X0153541Y0146777D01*
X0153392Y0146816D01*
X0153245Y0146859D01*
X0153098Y0146905D01*
X0152953Y0146955D01*
X0153842Y0150867D02*
X0153960Y0150863D01*
X0154077Y0150856D01*
X0154195Y0150846D01*
X0154312Y0150832D01*
X0154428Y0150815D01*
X0154544Y0150795D01*
X0154660Y0150771D01*
X0154775Y0150744D01*
X0154889Y0150713D01*
X0155001Y0150679D01*
X0155113Y0150642D01*
X0155224Y0150601D01*
X0155334Y0150558D01*
X0155442Y0150511D01*
X0156828Y0149731D02*
X0165491Y0149731D01*
X0165676Y0150329D02*
X0157097Y0150329D01*
X0156978Y0150928D02*
X0165860Y0150928D01*
X0166045Y0151526D02*
X0156751Y0151526D01*
X0153842Y0150867D02*
X0153783Y0150866D01*
X0153723Y0150861D01*
X0153665Y0150852D01*
X0153606Y0150840D01*
X0153549Y0150823D01*
X0153493Y0150804D01*
X0153438Y0150780D01*
X0153385Y0150753D01*
X0153334Y0150723D01*
X0153285Y0150689D01*
X0153238Y0150653D01*
X0153194Y0150613D01*
X0153152Y0150571D01*
X0153113Y0150526D01*
X0153077Y0150478D01*
X0153044Y0150429D01*
X0153015Y0150377D01*
X0152988Y0150324D01*
X0152966Y0150269D01*
X0152947Y0150212D01*
X0152931Y0150155D01*
X0152920Y0150097D01*
X0152912Y0150038D01*
X0152908Y0149978D01*
X0152907Y0149919D01*
X0152911Y0149859D01*
X0152918Y0149800D01*
X0152930Y0149742D01*
X0152945Y0149684D01*
X0152963Y0149628D01*
X0152986Y0149573D01*
X0153011Y0149519D01*
X0153041Y0149467D01*
X0153073Y0149417D01*
X0153109Y0149370D01*
X0153147Y0149324D01*
X0153189Y0149282D01*
X0153233Y0149242D01*
X0153279Y0149205D01*
X0153328Y0149171D01*
X0153379Y0149140D01*
X0153432Y0149113D01*
X0153487Y0149089D01*
X0153486Y0149089D02*
X0155264Y0148378D01*
X0155319Y0148354D01*
X0155372Y0148327D01*
X0155423Y0148296D01*
X0155472Y0148262D01*
X0155518Y0148225D01*
X0155562Y0148185D01*
X0155604Y0148143D01*
X0155642Y0148097D01*
X0155678Y0148050D01*
X0155710Y0148000D01*
X0155740Y0147948D01*
X0155765Y0147894D01*
X0155788Y0147839D01*
X0155806Y0147783D01*
X0155821Y0147725D01*
X0155833Y0147667D01*
X0155840Y0147608D01*
X0155844Y0147548D01*
X0155843Y0147489D01*
X0155839Y0147429D01*
X0155831Y0147370D01*
X0155820Y0147312D01*
X0155804Y0147255D01*
X0155785Y0147198D01*
X0155763Y0147143D01*
X0155736Y0147090D01*
X0155707Y0147038D01*
X0155674Y0146989D01*
X0155638Y0146941D01*
X0155599Y0146896D01*
X0155557Y0146854D01*
X0155513Y0146814D01*
X0155466Y0146778D01*
X0155417Y0146744D01*
X0155366Y0146714D01*
X0155313Y0146687D01*
X0155258Y0146663D01*
X0155202Y0146644D01*
X0155145Y0146627D01*
X0155086Y0146615D01*
X0155028Y0146606D01*
X0154968Y0146601D01*
X0154909Y0146600D01*
X0154230Y0145025D02*
X0154230Y0145025D01*
X0153614Y0145034D02*
X0153614Y0145034D01*
X0152204Y0145541D02*
X0151440Y0145541D01*
X0150259Y0146600D02*
X0150259Y0149800D01*
X0150257Y0149864D01*
X0150251Y0149929D01*
X0150242Y0149992D01*
X0150228Y0150055D01*
X0150211Y0150117D01*
X0150190Y0150178D01*
X0150165Y0150238D01*
X0150137Y0150296D01*
X0150105Y0150352D01*
X0150070Y0150406D01*
X0150032Y0150458D01*
X0149991Y0150508D01*
X0149946Y0150554D01*
X0149900Y0150599D01*
X0149850Y0150640D01*
X0149798Y0150678D01*
X0149744Y0150713D01*
X0149688Y0150745D01*
X0149630Y0150773D01*
X0149570Y0150798D01*
X0149509Y0150819D01*
X0149447Y0150836D01*
X0149384Y0150850D01*
X0149321Y0150859D01*
X0149256Y0150865D01*
X0149192Y0150867D01*
X0147414Y0150867D01*
X0147414Y0146600D01*
X0146233Y0145541D02*
X0145902Y0145541D01*
X0144720Y0146600D02*
X0142942Y0146600D01*
X0142878Y0146602D01*
X0142813Y0146608D01*
X0142750Y0146617D01*
X0142687Y0146631D01*
X0142625Y0146648D01*
X0142564Y0146669D01*
X0142504Y0146694D01*
X0142446Y0146722D01*
X0142390Y0146754D01*
X0142336Y0146789D01*
X0142284Y0146827D01*
X0142234Y0146868D01*
X0142188Y0146913D01*
X0142143Y0146959D01*
X0142102Y0147009D01*
X0142064Y0147061D01*
X0142029Y0147115D01*
X0141997Y0147171D01*
X0141969Y0147229D01*
X0141944Y0147289D01*
X0141923Y0147350D01*
X0141906Y0147412D01*
X0141892Y0147475D01*
X0141883Y0147538D01*
X0141877Y0147603D01*
X0141875Y0147667D01*
X0139181Y0152467D02*
X0139099Y0152526D01*
X0139015Y0152582D01*
X0138929Y0152634D01*
X0138841Y0152684D01*
X0138751Y0152730D01*
X0138660Y0152772D01*
X0138567Y0152811D01*
X0138472Y0152847D01*
X0138376Y0152879D01*
X0138279Y0152907D01*
X0138182Y0152932D01*
X0138083Y0152952D01*
X0137983Y0152969D01*
X0137883Y0152983D01*
X0137783Y0152992D01*
X0137682Y0152998D01*
X0137581Y0153000D01*
X0137507Y0152998D01*
X0137432Y0152992D01*
X0137359Y0152982D01*
X0137285Y0152969D01*
X0137213Y0152952D01*
X0137142Y0152930D01*
X0137071Y0152906D01*
X0137003Y0152877D01*
X0136935Y0152845D01*
X0136870Y0152809D01*
X0136807Y0152771D01*
X0136745Y0152728D01*
X0136686Y0152683D01*
X0136630Y0152635D01*
X0136575Y0152584D01*
X0136524Y0152530D01*
X0136476Y0152473D01*
X0136431Y0152414D01*
X0136388Y0152352D01*
X0136350Y0152289D01*
X0136314Y0152224D01*
X0136282Y0152156D01*
X0136253Y0152088D01*
X0136229Y0152017D01*
X0136207Y0151946D01*
X0136190Y0151874D01*
X0136177Y0151800D01*
X0136167Y0151727D01*
X0136161Y0151652D01*
X0136159Y0151578D01*
X0136160Y0151578D02*
X0136162Y0151503D01*
X0136168Y0151428D01*
X0136177Y0151354D01*
X0136191Y0151280D01*
X0136208Y0151207D01*
X0136229Y0151135D01*
X0136254Y0151065D01*
X0136283Y0150995D01*
X0136315Y0150928D01*
X0136350Y0150862D01*
X0136389Y0150797D01*
X0136431Y0150735D01*
X0136477Y0150676D01*
X0136525Y0150618D01*
X0136576Y0150564D01*
X0136630Y0150512D01*
X0136687Y0150463D01*
X0136746Y0150417D01*
X0136807Y0150374D01*
X0136871Y0150334D01*
X0135626Y0153920D02*
X0135059Y0153920D01*
X0134460Y0154519D02*
X0136663Y0154519D01*
X0136925Y0154584D02*
X0136925Y0154584D01*
X0138271Y0154584D02*
X0138271Y0154584D01*
X0138467Y0154519D02*
X0167396Y0154519D01*
X0167804Y0155117D02*
X0115386Y0155117D01*
X0115387Y0154519D02*
X0132661Y0154519D01*
X0132063Y0153920D02*
X0115387Y0153920D01*
X0115387Y0153322D02*
X0131799Y0153322D01*
X0133383Y0153000D02*
X0133739Y0153000D01*
X0133739Y0152644D01*
X0133383Y0152644D01*
X0133383Y0153000D01*
X0130867Y0149800D02*
X0130867Y0146600D01*
X0128733Y0146600D02*
X0128733Y0150867D01*
X0129800Y0150867D02*
X0126600Y0150867D01*
X0126600Y0146600D01*
X0130867Y0149800D02*
X0130865Y0149864D01*
X0130859Y0149929D01*
X0130850Y0149992D01*
X0130836Y0150055D01*
X0130819Y0150117D01*
X0130798Y0150178D01*
X0130773Y0150238D01*
X0130745Y0150296D01*
X0130713Y0150352D01*
X0130678Y0150406D01*
X0130640Y0150458D01*
X0130599Y0150508D01*
X0130554Y0150554D01*
X0130508Y0150599D01*
X0130458Y0150640D01*
X0130406Y0150678D01*
X0130352Y0150713D01*
X0130296Y0150745D01*
X0130238Y0150773D01*
X0130178Y0150798D01*
X0130117Y0150819D01*
X0130055Y0150836D01*
X0129992Y0150850D01*
X0129929Y0150859D01*
X0129864Y0150865D01*
X0129800Y0150867D01*
X0139580Y0154148D02*
X0139580Y0154148D01*
X0139884Y0153920D02*
X0166988Y0153920D01*
X0166614Y0153372D02*
X0166614Y0153372D01*
X0166599Y0153322D02*
X0140660Y0153322D01*
X0143298Y0152606D02*
X0143298Y0152606D01*
X0144778Y0152125D02*
X0146432Y0152125D01*
X0145833Y0151526D02*
X0145501Y0151526D01*
X0145156Y0152002D02*
X0145156Y0152002D01*
X0145156Y0152002D01*
X0150467Y0152125D02*
X0152539Y0152125D01*
X0152958Y0152464D02*
X0152958Y0152464D01*
X0153208Y0152460D02*
X0153208Y0152460D01*
X0151798Y0151526D02*
X0151256Y0151526D01*
X0151843Y0148349D02*
X0151843Y0148184D01*
X0151914Y0148218D01*
X0151843Y0148349D01*
X0149077Y0145541D02*
X0148596Y0145541D01*
X0155792Y0145003D02*
X0155792Y0145003D01*
X0156458Y0145541D02*
X0165182Y0145541D01*
X0165182Y0146140D02*
X0157199Y0146140D01*
X0157201Y0146142D02*
X0157201Y0146142D01*
X0157201Y0146142D01*
X0157321Y0146738D02*
X0165182Y0146738D01*
X0165182Y0147337D02*
X0157440Y0147337D01*
X0157557Y0147919D02*
X0157557Y0147919D01*
X0157548Y0147935D02*
X0165182Y0147935D01*
X0165182Y0148534D02*
X0157224Y0148534D01*
X0156899Y0149132D02*
X0165306Y0149132D01*
X0168212Y0155716D02*
X0115138Y0155716D01*
X0114890Y0156314D02*
X0168620Y0156314D01*
X0169028Y0156913D02*
X0114467Y0156913D01*
X0113869Y0157511D02*
X0169508Y0157511D01*
X0169351Y0157387D02*
X0169351Y0157387D01*
X0170258Y0158110D02*
X0112783Y0158110D01*
X0089817Y0158110D02*
X0087496Y0158110D01*
X0088094Y0157511D02*
X0088731Y0157511D01*
X0086897Y0158708D02*
X0171009Y0158708D01*
X0171759Y0159307D02*
X0086299Y0159307D01*
X0085700Y0159905D02*
X0172510Y0159905D01*
X0173150Y0160416D02*
X0173150Y0160416D01*
X0173374Y0160504D02*
X0085102Y0160504D01*
X0084503Y0161103D02*
X0174899Y0161103D01*
X0176424Y0161701D02*
X0026257Y0161701D01*
X0027255Y0161473D02*
X0022518Y0162554D01*
X0017673Y0162191D01*
X0017673Y0162191D01*
X0013150Y0160416D01*
X0009351Y0157387D01*
X0009351Y0157387D01*
X0009351Y0157387D01*
X0006614Y0153372D01*
X0005182Y0148729D01*
X0005182Y0143871D01*
X0006614Y0139228D01*
X0006614Y0139228D01*
X0009351Y0135213D01*
X0009351Y0135213D01*
X0009351Y0135213D01*
X0013150Y0132184D01*
X0017673Y0130409D01*
X0022518Y0130046D01*
X0027255Y0131127D01*
X0031463Y0133556D01*
X0034768Y0137118D01*
X0036876Y0141495D01*
X0036876Y0141495D01*
X0037600Y0146300D01*
X0036876Y0151104D01*
X0036876Y0151105D01*
X0034768Y0155482D01*
X0031463Y0159044D01*
X0031463Y0159044D01*
X0027255Y0161473D01*
X0027255Y0161473D01*
X0027897Y0161103D02*
X0078333Y0161103D01*
X0077735Y0160504D02*
X0028934Y0160504D01*
X0029970Y0159905D02*
X0077136Y0159905D01*
X0076538Y0159307D02*
X0031007Y0159307D01*
X0031774Y0158708D02*
X0075939Y0158708D01*
X0075340Y0158110D02*
X0032329Y0158110D01*
X0032885Y0157511D02*
X0074742Y0157511D01*
X0074143Y0156913D02*
X0033440Y0156913D01*
X0033995Y0156314D02*
X0074130Y0156314D01*
X0074130Y0155716D02*
X0034551Y0155716D01*
X0034768Y0155482D02*
X0034768Y0155482D01*
X0034943Y0155117D02*
X0074130Y0155117D01*
X0074130Y0154519D02*
X0035232Y0154519D01*
X0035520Y0153920D02*
X0074130Y0153920D01*
X0074130Y0153322D02*
X0035808Y0153322D01*
X0036096Y0152723D02*
X0074130Y0152723D01*
X0074130Y0152125D02*
X0036384Y0152125D01*
X0036673Y0151526D02*
X0074130Y0151526D01*
X0074130Y0150928D02*
X0036902Y0150928D01*
X0036993Y0150329D02*
X0074130Y0150329D01*
X0074130Y0149731D02*
X0037083Y0149731D01*
X0037173Y0149132D02*
X0074130Y0149132D01*
X0074130Y0148534D02*
X0037263Y0148534D01*
X0037354Y0147935D02*
X0074130Y0147935D01*
X0074130Y0147337D02*
X0037444Y0147337D01*
X0037534Y0146738D02*
X0074130Y0146738D01*
X0074130Y0146140D02*
X0037576Y0146140D01*
X0037486Y0145541D02*
X0074130Y0145541D01*
X0074130Y0144943D02*
X0037395Y0144943D01*
X0037305Y0144344D02*
X0074130Y0144344D01*
X0074130Y0143746D02*
X0037215Y0143746D01*
X0037125Y0143147D02*
X0074130Y0143147D01*
X0074130Y0142549D02*
X0037035Y0142549D01*
X0036944Y0141950D02*
X0074130Y0141950D01*
X0074130Y0141352D02*
X0036807Y0141352D01*
X0036518Y0140753D02*
X0074130Y0140753D01*
X0074130Y0140155D02*
X0036230Y0140155D01*
X0035942Y0139556D02*
X0074130Y0139556D01*
X0074130Y0138958D02*
X0035654Y0138958D01*
X0035365Y0138359D02*
X0074130Y0138359D01*
X0074130Y0137761D02*
X0035077Y0137761D01*
X0034789Y0137162D02*
X0074130Y0137162D01*
X0074130Y0136564D02*
X0034253Y0136564D01*
X0034768Y0137118D02*
X0034768Y0137118D01*
X0033698Y0135965D02*
X0073633Y0135965D01*
X0073216Y0135367D02*
X0033143Y0135367D01*
X0032587Y0134768D02*
X0072968Y0134768D01*
X0072813Y0134170D02*
X0032032Y0134170D01*
X0031477Y0133571D02*
X0072813Y0133571D01*
X0072813Y0132972D02*
X0030452Y0132972D01*
X0031463Y0133556D02*
X0031463Y0133556D01*
X0029415Y0132374D02*
X0072813Y0132374D01*
X0072813Y0131775D02*
X0028379Y0131775D01*
X0027342Y0131177D02*
X0072813Y0131177D01*
X0072813Y0130578D02*
X0024853Y0130578D01*
X0022518Y0130046D02*
X0022518Y0130046D01*
X0017673Y0130409D02*
X0017673Y0130409D01*
X0017240Y0130578D02*
X0002584Y0130578D01*
X0002584Y0129980D02*
X0072813Y0129980D01*
X0072813Y0129381D02*
X0002584Y0129381D01*
X0002584Y0128783D02*
X0072813Y0128783D01*
X0072822Y0128184D02*
X0002584Y0128184D01*
X0002584Y0127586D02*
X0073070Y0127586D01*
X0073317Y0126987D02*
X0002584Y0126987D01*
X0002584Y0126389D02*
X0073879Y0126389D01*
X0074694Y0125790D02*
X0002584Y0125790D01*
X0002584Y0125192D02*
X0078461Y0125192D01*
X0078461Y0125790D02*
X0077906Y0125790D01*
X0078461Y0124593D02*
X0002584Y0124593D01*
X0002584Y0123995D02*
X0078461Y0123995D01*
X0078461Y0123396D02*
X0002584Y0123396D01*
X0002584Y0122798D02*
X0078461Y0122798D01*
X0078461Y0122199D02*
X0002584Y0122199D01*
X0002584Y0121601D02*
X0078461Y0121601D01*
X0078461Y0121002D02*
X0002584Y0121002D01*
X0002584Y0120404D02*
X0078461Y0120404D01*
X0078461Y0119805D02*
X0002584Y0119805D01*
X0002584Y0119207D02*
X0078461Y0119207D01*
X0078461Y0118608D02*
X0002584Y0118608D01*
X0002584Y0118010D02*
X0078461Y0118010D01*
X0078461Y0117411D02*
X0002584Y0117411D01*
X0002584Y0116813D02*
X0078461Y0116813D01*
X0078461Y0116214D02*
X0002584Y0116214D01*
X0002584Y0115616D02*
X0078461Y0115616D01*
X0078461Y0115017D02*
X0002584Y0115017D01*
X0002584Y0114419D02*
X0009487Y0114419D01*
X0009855Y0114787D02*
X0007813Y0112745D01*
X0007813Y0109855D01*
X0009855Y0107813D01*
X0012745Y0107813D01*
X0014787Y0109855D01*
X0014787Y0112745D01*
X0012745Y0114787D01*
X0009855Y0114787D01*
X0008888Y0113820D02*
X0002584Y0113820D01*
X0002584Y0113222D02*
X0008290Y0113222D01*
X0007813Y0112623D02*
X0002584Y0112623D01*
X0002584Y0112025D02*
X0007813Y0112025D01*
X0007813Y0111426D02*
X0002584Y0111426D01*
X0002584Y0110828D02*
X0007813Y0110828D01*
X0007813Y0110229D02*
X0002584Y0110229D01*
X0002584Y0109631D02*
X0008038Y0109631D01*
X0008636Y0109032D02*
X0002584Y0109032D01*
X0002584Y0108434D02*
X0009235Y0108434D01*
X0009833Y0107835D02*
X0002584Y0107835D01*
X0002584Y0107237D02*
X0071022Y0107237D01*
X0071621Y0107835D02*
X0052767Y0107835D01*
X0052745Y0107813D02*
X0054787Y0109855D01*
X0054787Y0112745D01*
X0052745Y0114787D01*
X0049855Y0114787D01*
X0047813Y0112745D01*
X0047813Y0109855D01*
X0049855Y0107813D01*
X0052745Y0107813D01*
X0053365Y0108434D02*
X0072219Y0108434D01*
X0072818Y0109032D02*
X0053964Y0109032D01*
X0054562Y0109631D02*
X0073416Y0109631D01*
X0074015Y0110229D02*
X0054787Y0110229D01*
X0054787Y0110828D02*
X0074613Y0110828D01*
X0075212Y0111426D02*
X0054787Y0111426D01*
X0054787Y0112025D02*
X0075810Y0112025D01*
X0076409Y0112623D02*
X0054787Y0112623D01*
X0054310Y0113222D02*
X0077007Y0113222D01*
X0077606Y0113820D02*
X0053712Y0113820D01*
X0053113Y0114419D02*
X0078204Y0114419D01*
X0081711Y0112623D02*
X0130429Y0112623D01*
X0130429Y0112025D02*
X0081113Y0112025D01*
X0080514Y0111426D02*
X0130429Y0111426D01*
X0130429Y0110828D02*
X0079916Y0110828D01*
X0079317Y0110229D02*
X0130429Y0110229D01*
X0130429Y0109631D02*
X0078719Y0109631D01*
X0078120Y0109032D02*
X0130429Y0109032D01*
X0130429Y0108434D02*
X0077522Y0108434D01*
X0076923Y0107835D02*
X0130429Y0107835D01*
X0130429Y0107237D02*
X0076325Y0107237D01*
X0078294Y0106638D02*
X0084306Y0106638D01*
X0084325Y0106656D02*
X0083344Y0105675D01*
X0082813Y0104394D01*
X0082813Y0098206D01*
X0083344Y0096925D01*
X0084325Y0095944D01*
X0085606Y0095413D01*
X0086994Y0095413D01*
X0088275Y0095944D01*
X0089256Y0096925D01*
X0089787Y0098206D01*
X0089787Y0104394D01*
X0089256Y0105675D01*
X0088275Y0106656D01*
X0086994Y0107187D01*
X0085606Y0107187D01*
X0084325Y0106656D01*
X0083708Y0106039D02*
X0078892Y0106039D01*
X0079354Y0105441D02*
X0083246Y0105441D01*
X0082998Y0104842D02*
X0079602Y0104842D01*
X0079787Y0104244D02*
X0082813Y0104244D01*
X0082813Y0103645D02*
X0079787Y0103645D01*
X0079787Y0103047D02*
X0082813Y0103047D01*
X0082813Y0102448D02*
X0079787Y0102448D01*
X0079787Y0101850D02*
X0082813Y0101850D01*
X0082813Y0101251D02*
X0079787Y0101251D01*
X0079787Y0100653D02*
X0082813Y0100653D01*
X0082813Y0100054D02*
X0079787Y0100054D01*
X0079787Y0099456D02*
X0082813Y0099456D01*
X0082813Y0098857D02*
X0079787Y0098857D01*
X0079787Y0098259D02*
X0082813Y0098259D01*
X0083039Y0097660D02*
X0079561Y0097660D01*
X0079313Y0097062D02*
X0083287Y0097062D01*
X0083805Y0096463D02*
X0078795Y0096463D01*
X0078085Y0095865D02*
X0084515Y0095865D01*
X0088085Y0095865D02*
X0094515Y0095865D01*
X0093805Y0096463D02*
X0088795Y0096463D01*
X0089313Y0097062D02*
X0093287Y0097062D01*
X0093039Y0097660D02*
X0089561Y0097660D01*
X0089787Y0098259D02*
X0092813Y0098259D01*
X0092813Y0098857D02*
X0089787Y0098857D01*
X0089787Y0099456D02*
X0092813Y0099456D01*
X0092813Y0100054D02*
X0089787Y0100054D01*
X0089787Y0100653D02*
X0092813Y0100653D01*
X0092813Y0101251D02*
X0089787Y0101251D01*
X0089787Y0101850D02*
X0092813Y0101850D01*
X0092813Y0102448D02*
X0089787Y0102448D01*
X0089787Y0103047D02*
X0092813Y0103047D01*
X0092813Y0103645D02*
X0089787Y0103645D01*
X0089787Y0104244D02*
X0092813Y0104244D01*
X0092998Y0104842D02*
X0089602Y0104842D01*
X0089354Y0105441D02*
X0093246Y0105441D01*
X0093708Y0106039D02*
X0088892Y0106039D01*
X0088294Y0106638D02*
X0094306Y0106638D01*
X0098294Y0106638D02*
X0104306Y0106638D01*
X0103708Y0106039D02*
X0098892Y0106039D01*
X0099354Y0105441D02*
X0103246Y0105441D01*
X0102998Y0104842D02*
X0099602Y0104842D01*
X0099787Y0104244D02*
X0102813Y0104244D01*
X0102813Y0103645D02*
X0099787Y0103645D01*
X0099787Y0103047D02*
X0102813Y0103047D01*
X0102813Y0102448D02*
X0099787Y0102448D01*
X0099787Y0101850D02*
X0102813Y0101850D01*
X0102813Y0101251D02*
X0099787Y0101251D01*
X0099787Y0100653D02*
X0102332Y0100653D01*
X0101734Y0100054D02*
X0099787Y0100054D01*
X0099787Y0099456D02*
X0101135Y0099456D01*
X0100537Y0098857D02*
X0099787Y0098857D01*
X0099787Y0098259D02*
X0099938Y0098259D01*
X0102847Y0095865D02*
X0104515Y0095865D01*
X0103805Y0096463D02*
X0103445Y0096463D01*
X0102248Y0095266D02*
X0123933Y0095266D01*
X0123933Y0094668D02*
X0101650Y0094668D01*
X0101051Y0094069D02*
X0123933Y0094069D01*
X0123933Y0093471D02*
X0100453Y0093471D01*
X0099854Y0092872D02*
X0123933Y0092872D01*
X0123933Y0092274D02*
X0099256Y0092274D01*
X0098768Y0091675D02*
X0098657Y0091675D01*
X0098169Y0091077D02*
X0098059Y0091077D01*
X0097949Y0090856D02*
X0097949Y0090856D01*
X0097571Y0090478D02*
X0097460Y0090478D01*
X0096972Y0089880D02*
X0095096Y0089880D01*
X0092187Y0087486D02*
X0089787Y0087486D01*
X0089787Y0086887D02*
X0092786Y0086887D01*
X0092813Y0086289D02*
X0089787Y0086289D01*
X0089787Y0085690D02*
X0092813Y0085690D01*
X0092813Y0085092D02*
X0089787Y0085092D01*
X0089425Y0084493D02*
X0093175Y0084493D01*
X0093774Y0083895D02*
X0088826Y0083895D01*
X0088228Y0083296D02*
X0094372Y0083296D01*
X0098228Y0083296D02*
X0104372Y0083296D01*
X0103774Y0083895D02*
X0098826Y0083895D01*
X0099425Y0084493D02*
X0103175Y0084493D01*
X0102813Y0085092D02*
X0099787Y0085092D01*
X0099787Y0085690D02*
X0102813Y0085690D01*
X0102813Y0086289D02*
X0099787Y0086289D01*
X0099787Y0086887D02*
X0102813Y0086887D01*
X0102813Y0087486D02*
X0099881Y0087486D01*
X0100480Y0088084D02*
X0103152Y0088084D01*
X0108826Y0083895D02*
X0113774Y0083895D01*
X0114372Y0083296D02*
X0108228Y0083296D01*
X0109425Y0084493D02*
X0113175Y0084493D01*
X0110822Y0085092D02*
X0109787Y0085092D01*
X0109787Y0085690D02*
X0110223Y0085690D01*
X0111935Y0089281D02*
X0114349Y0089281D01*
X0118251Y0089281D02*
X0121275Y0089281D01*
X0120677Y0088683D02*
X0118849Y0088683D01*
X0119448Y0088084D02*
X0120078Y0088084D01*
X0121874Y0089880D02*
X0111336Y0089880D01*
X0110738Y0090478D02*
X0122472Y0090478D01*
X0123071Y0091077D02*
X0110139Y0091077D01*
X0109541Y0091675D02*
X0123670Y0091675D01*
X0127177Y0089880D02*
X0130429Y0089880D01*
X0130429Y0090478D02*
X0127683Y0090478D01*
X0127683Y0091077D02*
X0130429Y0091077D01*
X0130429Y0091675D02*
X0127683Y0091675D01*
X0127683Y0092274D02*
X0130429Y0092274D01*
X0130429Y0092872D02*
X0127683Y0092872D01*
X0127683Y0093471D02*
X0130429Y0093471D01*
X0130429Y0094069D02*
X0127683Y0094069D01*
X0127683Y0094668D02*
X0130429Y0094668D01*
X0130429Y0095266D02*
X0127683Y0095266D01*
X0128085Y0095865D02*
X0130429Y0095865D01*
X0130429Y0096463D02*
X0128795Y0096463D01*
X0129313Y0097062D02*
X0130429Y0097062D01*
X0130429Y0097660D02*
X0129561Y0097660D01*
X0129787Y0098259D02*
X0130429Y0098259D01*
X0130429Y0098857D02*
X0129787Y0098857D01*
X0129787Y0099456D02*
X0130429Y0099456D01*
X0130429Y0100054D02*
X0129787Y0100054D01*
X0129787Y0100653D02*
X0130429Y0100653D01*
X0130429Y0101251D02*
X0129787Y0101251D01*
X0129787Y0101850D02*
X0130429Y0101850D01*
X0130429Y0102448D02*
X0129787Y0102448D01*
X0129787Y0103047D02*
X0130429Y0103047D01*
X0130429Y0103645D02*
X0129787Y0103645D01*
X0129787Y0104244D02*
X0130429Y0104244D01*
X0130429Y0104842D02*
X0129602Y0104842D01*
X0129354Y0105441D02*
X0130429Y0105441D01*
X0130429Y0106039D02*
X0128892Y0106039D01*
X0128294Y0106638D02*
X0130429Y0106638D01*
X0134179Y0106610D02*
X0134278Y0106610D01*
X0134179Y0106511D01*
X0134179Y0106610D01*
X0138892Y0106039D02*
X0143708Y0106039D01*
X0143246Y0105441D02*
X0139354Y0105441D01*
X0139602Y0104842D02*
X0142998Y0104842D01*
X0142813Y0104244D02*
X0139787Y0104244D01*
X0139787Y0103645D02*
X0142813Y0103645D01*
X0142813Y0103047D02*
X0139787Y0103047D01*
X0139787Y0102448D02*
X0142813Y0102448D01*
X0142813Y0101850D02*
X0139787Y0101850D01*
X0139787Y0101251D02*
X0142813Y0101251D01*
X0142813Y0100653D02*
X0139787Y0100653D01*
X0139787Y0100054D02*
X0142813Y0100054D01*
X0142813Y0099456D02*
X0139787Y0099456D01*
X0139787Y0098857D02*
X0142813Y0098857D01*
X0142813Y0098259D02*
X0139787Y0098259D01*
X0139561Y0097660D02*
X0143039Y0097660D01*
X0143287Y0097062D02*
X0139313Y0097062D01*
X0138795Y0096463D02*
X0143805Y0096463D01*
X0144515Y0095865D02*
X0138509Y0095865D01*
X0138509Y0095266D02*
X0174269Y0095266D01*
X0174867Y0094668D02*
X0138509Y0094668D01*
X0138509Y0094069D02*
X0175466Y0094069D01*
X0176064Y0093471D02*
X0138509Y0093471D01*
X0138659Y0092872D02*
X0176663Y0092872D01*
X0177262Y0092274D02*
X0139257Y0092274D01*
X0139856Y0091675D02*
X0177860Y0091675D01*
X0178459Y0091077D02*
X0140454Y0091077D01*
X0141053Y0090478D02*
X0179057Y0090478D01*
X0179656Y0089880D02*
X0141651Y0089880D01*
X0142250Y0089281D02*
X0144349Y0089281D01*
X0143751Y0088683D02*
X0142848Y0088683D01*
X0139940Y0086289D02*
X0139787Y0086289D01*
X0139787Y0085690D02*
X0140173Y0085690D01*
X0140173Y0085092D02*
X0139787Y0085092D01*
X0139425Y0084493D02*
X0140173Y0084493D01*
X0140173Y0083895D02*
X0138826Y0083895D01*
X0138228Y0083296D02*
X0140173Y0083296D01*
X0140173Y0082698D02*
X0130821Y0082698D01*
X0131420Y0083296D02*
X0134372Y0083296D01*
X0133774Y0083895D02*
X0132018Y0083895D01*
X0132617Y0084493D02*
X0133175Y0084493D01*
X0130223Y0082099D02*
X0140173Y0082099D01*
X0140173Y0081501D02*
X0129624Y0081501D01*
X0129026Y0080902D02*
X0140173Y0080902D01*
X0140173Y0080303D02*
X0128765Y0080303D01*
X0128765Y0079705D02*
X0140173Y0079705D01*
X0140173Y0079106D02*
X0128765Y0079106D01*
X0128765Y0078508D02*
X0140173Y0078508D01*
X0140173Y0077909D02*
X0128765Y0077909D01*
X0128765Y0077311D02*
X0140173Y0077311D01*
X0140173Y0076712D02*
X0128765Y0076712D01*
X0128765Y0076114D02*
X0140173Y0076114D01*
X0140173Y0075515D02*
X0128765Y0075515D01*
X0128765Y0074917D02*
X0140173Y0074917D01*
X0140173Y0074318D02*
X0128765Y0074318D01*
X0128765Y0073720D02*
X0140173Y0073720D01*
X0140173Y0073121D02*
X0128765Y0073121D01*
X0128765Y0072523D02*
X0140173Y0072523D01*
X0140173Y0071924D02*
X0128765Y0071924D01*
X0128765Y0071326D02*
X0140173Y0071326D01*
X0140173Y0070727D02*
X0128765Y0070727D01*
X0128765Y0070129D02*
X0140173Y0070129D01*
X0140173Y0069530D02*
X0128765Y0069530D01*
X0128765Y0068932D02*
X0140173Y0068932D01*
X0140173Y0068333D02*
X0128765Y0068333D01*
X0128765Y0067735D02*
X0140173Y0067735D01*
X0140173Y0067136D02*
X0128765Y0067136D01*
X0128765Y0066538D02*
X0140173Y0066538D01*
X0140173Y0065939D02*
X0128765Y0065939D01*
X0128765Y0065341D02*
X0140173Y0065341D01*
X0140173Y0064742D02*
X0128765Y0064742D01*
X0128765Y0064144D02*
X0140173Y0064144D01*
X0140173Y0063545D02*
X0128765Y0063545D01*
X0128765Y0062947D02*
X0140173Y0062947D01*
X0140173Y0062348D02*
X0128765Y0062348D01*
X0128765Y0061750D02*
X0140173Y0061750D01*
X0140173Y0061151D02*
X0128765Y0061151D01*
X0128765Y0060553D02*
X0140173Y0060553D01*
X0140173Y0059954D02*
X0128765Y0059954D01*
X0128765Y0059356D02*
X0140173Y0059356D01*
X0140173Y0058757D02*
X0128765Y0058757D01*
X0128765Y0058159D02*
X0140173Y0058159D01*
X0140173Y0057560D02*
X0128765Y0057560D01*
X0128765Y0056962D02*
X0140173Y0056962D01*
X0140173Y0056363D02*
X0128765Y0056363D01*
X0128765Y0055765D02*
X0140173Y0055765D01*
X0140747Y0055166D02*
X0128765Y0055166D01*
X0128765Y0054568D02*
X0141346Y0054568D01*
X0141944Y0053969D02*
X0128765Y0053969D01*
X0128765Y0053370D02*
X0142543Y0053370D01*
X0143141Y0052772D02*
X0128765Y0052772D01*
X0128765Y0052173D02*
X0143740Y0052173D01*
X0144338Y0051575D02*
X0128765Y0051575D01*
X0128765Y0050976D02*
X0144937Y0050976D01*
X0145535Y0050378D02*
X0128765Y0050378D01*
X0128765Y0049779D02*
X0134848Y0049779D01*
X0134855Y0049787D02*
X0132813Y0047745D01*
X0132813Y0044855D01*
X0134855Y0042813D01*
X0137745Y0042813D01*
X0139787Y0044855D01*
X0139787Y0047745D01*
X0137745Y0049787D01*
X0134855Y0049787D01*
X0134249Y0049181D02*
X0128765Y0049181D01*
X0128950Y0048582D02*
X0133650Y0048582D01*
X0133052Y0047984D02*
X0129548Y0047984D01*
X0129787Y0047385D02*
X0132813Y0047385D01*
X0132813Y0046787D02*
X0129787Y0046787D01*
X0129787Y0046188D02*
X0132813Y0046188D01*
X0132813Y0045590D02*
X0129787Y0045590D01*
X0129787Y0044991D02*
X0132813Y0044991D01*
X0133275Y0044393D02*
X0129325Y0044393D01*
X0128726Y0043794D02*
X0133874Y0043794D01*
X0134472Y0043196D02*
X0128128Y0043196D01*
X0124472Y0043196D02*
X0123352Y0043196D01*
X0123352Y0043794D02*
X0123874Y0043794D01*
X0119602Y0043794D02*
X0118726Y0043794D01*
X0118128Y0043196D02*
X0119602Y0043196D01*
X0119602Y0042597D02*
X0087162Y0042597D01*
X0086947Y0042813D02*
X0087745Y0042813D01*
X0089787Y0044855D01*
X0089787Y0047745D01*
X0088304Y0049228D01*
X0094296Y0049228D01*
X0092813Y0047745D01*
X0092813Y0044855D01*
X0094855Y0042813D01*
X0097745Y0042813D01*
X0099787Y0044855D01*
X0099787Y0047745D01*
X0098304Y0049228D01*
X0104296Y0049228D01*
X0102813Y0047745D01*
X0102813Y0044855D01*
X0104855Y0042813D01*
X0107745Y0042813D01*
X0109787Y0044855D01*
X0109787Y0046067D01*
X0110956Y0044898D01*
X0112813Y0044898D01*
X0112813Y0044855D01*
X0114855Y0042813D01*
X0117745Y0042813D01*
X0119602Y0044670D01*
X0119602Y0034572D01*
X0095187Y0034572D01*
X0086947Y0042813D01*
X0087760Y0041999D02*
X0119602Y0041999D01*
X0119602Y0041400D02*
X0088359Y0041400D01*
X0088957Y0040802D02*
X0119602Y0040802D01*
X0119602Y0040203D02*
X0089556Y0040203D01*
X0090155Y0039605D02*
X0119602Y0039605D01*
X0119602Y0039006D02*
X0090753Y0039006D01*
X0091352Y0038408D02*
X0119602Y0038408D01*
X0119602Y0037809D02*
X0091950Y0037809D01*
X0092549Y0037211D02*
X0119602Y0037211D01*
X0119602Y0036612D02*
X0093147Y0036612D01*
X0093746Y0036014D02*
X0119602Y0036014D01*
X0119602Y0035415D02*
X0094344Y0035415D01*
X0094943Y0034817D02*
X0119602Y0034817D01*
X0126085Y0031824D02*
X0130109Y0031824D01*
X0128678Y0031226D02*
X0126683Y0031226D01*
X0127282Y0030627D02*
X0128079Y0030627D01*
X0138128Y0043196D02*
X0144472Y0043196D01*
X0143874Y0043794D02*
X0138726Y0043794D01*
X0139325Y0044393D02*
X0143275Y0044393D01*
X0142813Y0044991D02*
X0139787Y0044991D01*
X0139787Y0045590D02*
X0142813Y0045590D01*
X0142813Y0046188D02*
X0139787Y0046188D01*
X0139787Y0046787D02*
X0142813Y0046787D01*
X0142813Y0047385D02*
X0139787Y0047385D01*
X0139548Y0047984D02*
X0143052Y0047984D01*
X0143650Y0048582D02*
X0138950Y0048582D01*
X0138351Y0049181D02*
X0144249Y0049181D01*
X0144848Y0049779D02*
X0137752Y0049779D01*
X0144853Y0056363D02*
X0170241Y0056363D01*
X0168716Y0056962D02*
X0144254Y0056962D01*
X0143923Y0057560D02*
X0167678Y0057560D01*
X0168150Y0057184D02*
X0168150Y0057184D01*
X0166928Y0058159D02*
X0143923Y0058159D01*
X0143923Y0058757D02*
X0166177Y0058757D01*
X0165427Y0059356D02*
X0143923Y0059356D01*
X0143923Y0059954D02*
X0164676Y0059954D01*
X0164120Y0060553D02*
X0143923Y0060553D01*
X0143923Y0061151D02*
X0163712Y0061151D01*
X0163304Y0061750D02*
X0143923Y0061750D01*
X0143923Y0062348D02*
X0162896Y0062348D01*
X0162488Y0062947D02*
X0143923Y0062947D01*
X0143923Y0063545D02*
X0162080Y0063545D01*
X0161671Y0064144D02*
X0143923Y0064144D01*
X0143923Y0064742D02*
X0161455Y0064742D01*
X0161271Y0065341D02*
X0143923Y0065341D01*
X0143923Y0065939D02*
X0161086Y0065939D01*
X0160902Y0066538D02*
X0143923Y0066538D01*
X0143923Y0067136D02*
X0160717Y0067136D01*
X0160532Y0067735D02*
X0143923Y0067735D01*
X0143923Y0068333D02*
X0160348Y0068333D01*
X0160182Y0068932D02*
X0143923Y0068932D01*
X0143923Y0069530D02*
X0160182Y0069530D01*
X0160182Y0070129D02*
X0143923Y0070129D01*
X0143923Y0070727D02*
X0160182Y0070727D01*
X0160182Y0071326D02*
X0143923Y0071326D01*
X0143923Y0071924D02*
X0160182Y0071924D01*
X0160182Y0072523D02*
X0143923Y0072523D01*
X0143923Y0073121D02*
X0160182Y0073121D01*
X0160182Y0073720D02*
X0143923Y0073720D01*
X0143923Y0074318D02*
X0160364Y0074318D01*
X0160548Y0074917D02*
X0143923Y0074917D01*
X0143923Y0075515D02*
X0160733Y0075515D01*
X0160918Y0076114D02*
X0143923Y0076114D01*
X0143923Y0076712D02*
X0161102Y0076712D01*
X0161287Y0077311D02*
X0143923Y0077311D01*
X0143923Y0077909D02*
X0161471Y0077909D01*
X0161614Y0078372D02*
X0161614Y0078372D01*
X0161707Y0078508D02*
X0143923Y0078508D01*
X0143923Y0079106D02*
X0162115Y0079106D01*
X0162523Y0079705D02*
X0143923Y0079705D01*
X0143923Y0080303D02*
X0162931Y0080303D01*
X0163339Y0080902D02*
X0143923Y0080902D01*
X0143923Y0081501D02*
X0163747Y0081501D01*
X0164155Y0082099D02*
X0143923Y0082099D01*
X0143923Y0082698D02*
X0164741Y0082698D01*
X0165491Y0083296D02*
X0148228Y0083296D01*
X0148826Y0083895D02*
X0166242Y0083895D01*
X0166992Y0084493D02*
X0149425Y0084493D01*
X0149787Y0085092D02*
X0167743Y0085092D01*
X0168150Y0085416D02*
X0168150Y0085416D01*
X0168848Y0085690D02*
X0149787Y0085690D01*
X0149787Y0086289D02*
X0170373Y0086289D01*
X0171898Y0086887D02*
X0149787Y0086887D01*
X0149787Y0087486D02*
X0176600Y0087486D01*
X0177518Y0087554D02*
X0177518Y0087554D01*
X0177819Y0087486D02*
X0182050Y0087486D01*
X0182648Y0086887D02*
X0180442Y0086887D01*
X0181451Y0088084D02*
X0149448Y0088084D01*
X0148849Y0088683D02*
X0180853Y0088683D01*
X0180254Y0089281D02*
X0148251Y0089281D01*
X0148085Y0095865D02*
X0173670Y0095865D01*
X0173072Y0096463D02*
X0148795Y0096463D01*
X0149313Y0097062D02*
X0172473Y0097062D01*
X0171875Y0097660D02*
X0149561Y0097660D01*
X0149787Y0098259D02*
X0171276Y0098259D01*
X0170678Y0098857D02*
X0149787Y0098857D01*
X0149787Y0099456D02*
X0170079Y0099456D01*
X0169481Y0100054D02*
X0149787Y0100054D01*
X0149787Y0100653D02*
X0168882Y0100653D01*
X0168284Y0101251D02*
X0149787Y0101251D01*
X0149787Y0101850D02*
X0167685Y0101850D01*
X0167087Y0102448D02*
X0149787Y0102448D01*
X0149787Y0103047D02*
X0166488Y0103047D01*
X0165890Y0103645D02*
X0149787Y0103645D01*
X0149787Y0104244D02*
X0165291Y0104244D01*
X0164693Y0104842D02*
X0149602Y0104842D01*
X0149354Y0105441D02*
X0164094Y0105441D01*
X0163496Y0106039D02*
X0148892Y0106039D01*
X0134760Y0095763D02*
X0134760Y0091468D01*
X0136441Y0089787D01*
X0134855Y0089787D01*
X0134179Y0089111D01*
X0134179Y0096089D01*
X0134325Y0095944D01*
X0134760Y0095763D01*
X0134515Y0095865D02*
X0134179Y0095865D01*
X0134179Y0095266D02*
X0134760Y0095266D01*
X0134760Y0094668D02*
X0134179Y0094668D01*
X0134179Y0094069D02*
X0134760Y0094069D01*
X0134760Y0093471D02*
X0134179Y0093471D01*
X0134179Y0092872D02*
X0134760Y0092872D01*
X0134760Y0092274D02*
X0134179Y0092274D01*
X0134179Y0091675D02*
X0134760Y0091675D01*
X0135151Y0091077D02*
X0134179Y0091077D01*
X0134179Y0090478D02*
X0135750Y0090478D01*
X0136348Y0089880D02*
X0134179Y0089880D01*
X0134179Y0089281D02*
X0134349Y0089281D01*
X0130429Y0089281D02*
X0128251Y0089281D01*
X0128849Y0088683D02*
X0130429Y0088683D01*
X0130429Y0088084D02*
X0129448Y0088084D01*
X0129787Y0087486D02*
X0130307Y0087486D01*
X0123774Y0083895D02*
X0123352Y0083895D01*
X0123352Y0084316D02*
X0124855Y0082813D01*
X0125634Y0082813D01*
X0125016Y0082195D01*
X0125016Y0049787D01*
X0124855Y0049787D01*
X0123352Y0048284D01*
X0123352Y0084316D01*
X0123352Y0083296D02*
X0124372Y0083296D01*
X0123352Y0082698D02*
X0125519Y0082698D01*
X0125016Y0082099D02*
X0123352Y0082099D01*
X0123352Y0081501D02*
X0125016Y0081501D01*
X0125016Y0080902D02*
X0123352Y0080902D01*
X0123352Y0080303D02*
X0125016Y0080303D01*
X0125016Y0079705D02*
X0123352Y0079705D01*
X0123352Y0079106D02*
X0125016Y0079106D01*
X0125016Y0078508D02*
X0123352Y0078508D01*
X0123352Y0077909D02*
X0125016Y0077909D01*
X0125016Y0077311D02*
X0123352Y0077311D01*
X0123352Y0076712D02*
X0125016Y0076712D01*
X0125016Y0076114D02*
X0123352Y0076114D01*
X0123352Y0075515D02*
X0125016Y0075515D01*
X0125016Y0074917D02*
X0123352Y0074917D01*
X0123352Y0074318D02*
X0125016Y0074318D01*
X0125016Y0073720D02*
X0123352Y0073720D01*
X0123352Y0073121D02*
X0125016Y0073121D01*
X0125016Y0072523D02*
X0123352Y0072523D01*
X0123352Y0071924D02*
X0125016Y0071924D01*
X0125016Y0071326D02*
X0123352Y0071326D01*
X0123352Y0070727D02*
X0125016Y0070727D01*
X0125016Y0070129D02*
X0123352Y0070129D01*
X0123352Y0069530D02*
X0125016Y0069530D01*
X0125016Y0068932D02*
X0123352Y0068932D01*
X0123352Y0068333D02*
X0125016Y0068333D01*
X0125016Y0067735D02*
X0123352Y0067735D01*
X0123352Y0067136D02*
X0125016Y0067136D01*
X0125016Y0066538D02*
X0123352Y0066538D01*
X0123352Y0065939D02*
X0125016Y0065939D01*
X0125016Y0065341D02*
X0123352Y0065341D01*
X0123352Y0064742D02*
X0125016Y0064742D01*
X0125016Y0064144D02*
X0123352Y0064144D01*
X0123352Y0063545D02*
X0125016Y0063545D01*
X0125016Y0062947D02*
X0123352Y0062947D01*
X0123352Y0062348D02*
X0125016Y0062348D01*
X0125016Y0061750D02*
X0123352Y0061750D01*
X0123352Y0061151D02*
X0125016Y0061151D01*
X0125016Y0060553D02*
X0123352Y0060553D01*
X0123352Y0059954D02*
X0125016Y0059954D01*
X0125016Y0059356D02*
X0123352Y0059356D01*
X0123352Y0058757D02*
X0125016Y0058757D01*
X0125016Y0058159D02*
X0123352Y0058159D01*
X0123352Y0057560D02*
X0125016Y0057560D01*
X0125016Y0056962D02*
X0123352Y0056962D01*
X0123352Y0056363D02*
X0125016Y0056363D01*
X0125016Y0055765D02*
X0123352Y0055765D01*
X0123352Y0055166D02*
X0125016Y0055166D01*
X0125016Y0054568D02*
X0123352Y0054568D01*
X0123352Y0053969D02*
X0125016Y0053969D01*
X0125016Y0053370D02*
X0123352Y0053370D01*
X0123352Y0052772D02*
X0125016Y0052772D01*
X0125016Y0052173D02*
X0123352Y0052173D01*
X0123352Y0051575D02*
X0125016Y0051575D01*
X0125016Y0050976D02*
X0123352Y0050976D01*
X0123352Y0050378D02*
X0125016Y0050378D01*
X0124848Y0049779D02*
X0123352Y0049779D01*
X0123352Y0049181D02*
X0124249Y0049181D01*
X0123650Y0048582D02*
X0123352Y0048582D01*
X0119602Y0048582D02*
X0118950Y0048582D01*
X0119548Y0047984D02*
X0119602Y0047984D01*
X0119602Y0049181D02*
X0118351Y0049181D01*
X0117752Y0049779D02*
X0119602Y0049779D01*
X0119602Y0050378D02*
X0110779Y0050378D01*
X0110180Y0050976D02*
X0119602Y0050976D01*
X0119602Y0051575D02*
X0109582Y0051575D01*
X0108983Y0052173D02*
X0119602Y0052173D01*
X0119602Y0052772D02*
X0108385Y0052772D01*
X0111377Y0049779D02*
X0114848Y0049779D01*
X0114249Y0049181D02*
X0111976Y0049181D01*
X0110264Y0045590D02*
X0109787Y0045590D01*
X0109787Y0044991D02*
X0110863Y0044991D01*
X0109325Y0044393D02*
X0113275Y0044393D01*
X0113874Y0043794D02*
X0108726Y0043794D01*
X0108128Y0043196D02*
X0114472Y0043196D01*
X0119325Y0044393D02*
X0119602Y0044393D01*
X0119602Y0053370D02*
X0056022Y0053370D01*
X0055423Y0052772D02*
X0073940Y0052772D01*
X0073341Y0052173D02*
X0054825Y0052173D01*
X0054226Y0051575D02*
X0072742Y0051575D01*
X0072144Y0050976D02*
X0053628Y0050976D01*
X0053029Y0050378D02*
X0071545Y0050378D01*
X0070947Y0049779D02*
X0067752Y0049779D01*
X0068351Y0049181D02*
X0070348Y0049181D01*
X0069799Y0048582D02*
X0068950Y0048582D01*
X0069548Y0047984D02*
X0069799Y0047984D01*
X0069787Y0047385D02*
X0069799Y0047385D01*
X0069787Y0046787D02*
X0069799Y0046787D01*
X0069787Y0046188D02*
X0069799Y0046188D01*
X0069787Y0045590D02*
X0069799Y0045590D01*
X0069787Y0044991D02*
X0069799Y0044991D01*
X0069799Y0044393D02*
X0069325Y0044393D01*
X0069218Y0043794D02*
X0069799Y0043794D01*
X0069799Y0043196D02*
X0069218Y0043196D01*
X0069218Y0042597D02*
X0069799Y0042597D01*
X0069799Y0041999D02*
X0069218Y0041999D01*
X0069218Y0041400D02*
X0069799Y0041400D01*
X0069799Y0040802D02*
X0069218Y0040802D01*
X0069218Y0040203D02*
X0069799Y0040203D01*
X0069799Y0039605D02*
X0069218Y0039605D01*
X0069218Y0039006D02*
X0069799Y0039006D01*
X0069799Y0038408D02*
X0069218Y0038408D01*
X0069218Y0037809D02*
X0069799Y0037809D01*
X0069799Y0037211D02*
X0069218Y0037211D01*
X0069218Y0036612D02*
X0069799Y0036612D01*
X0069799Y0036014D02*
X0069218Y0036014D01*
X0069218Y0035415D02*
X0069799Y0035415D01*
X0069799Y0034817D02*
X0069218Y0034817D01*
X0069218Y0034218D02*
X0069799Y0034218D01*
X0070266Y0033620D02*
X0069218Y0033620D01*
X0069218Y0033021D02*
X0070865Y0033021D01*
X0071463Y0032423D02*
X0069218Y0032423D01*
X0069218Y0031824D02*
X0070109Y0031824D01*
X0065469Y0031824D02*
X0052491Y0031824D01*
X0053922Y0031226D02*
X0065469Y0031226D01*
X0065469Y0030627D02*
X0054521Y0030627D01*
X0055119Y0030029D02*
X0065469Y0030029D01*
X0065469Y0029430D02*
X0055420Y0029430D01*
X0055668Y0028832D02*
X0065469Y0028832D01*
X0065469Y0028233D02*
X0055912Y0028233D01*
X0055912Y0027634D02*
X0065469Y0027634D01*
X0065469Y0027036D02*
X0055912Y0027036D01*
X0055912Y0026437D02*
X0065539Y0026437D01*
X0066137Y0025839D02*
X0055912Y0025839D01*
X0055912Y0025240D02*
X0066688Y0025240D01*
X0066688Y0024642D02*
X0055912Y0024642D01*
X0055912Y0024043D02*
X0066688Y0024043D01*
X0066688Y0023445D02*
X0055912Y0023445D01*
X0055912Y0022846D02*
X0066688Y0022846D01*
X0066688Y0022248D02*
X0055912Y0022248D01*
X0055912Y0021649D02*
X0066688Y0021649D01*
X0066688Y0021051D02*
X0055912Y0021051D01*
X0055912Y0020452D02*
X0066688Y0020452D01*
X0066688Y0019854D02*
X0055912Y0019854D01*
X0055870Y0019255D02*
X0066730Y0019255D01*
X0066978Y0018657D02*
X0055622Y0018657D01*
X0055374Y0018058D02*
X0067226Y0018058D01*
X0067592Y0017460D02*
X0055008Y0017460D01*
X0054409Y0016861D02*
X0068191Y0016861D01*
X0068934Y0016263D02*
X0053666Y0016263D01*
X0052221Y0015664D02*
X0070378Y0015664D01*
X0078561Y0030627D02*
X0088079Y0030627D01*
X0088678Y0031226D02*
X0077963Y0031226D01*
X0077364Y0031824D02*
X0090109Y0031824D01*
X0091435Y0033021D02*
X0076167Y0033021D01*
X0075569Y0033620D02*
X0090837Y0033620D01*
X0090238Y0034218D02*
X0074970Y0034218D01*
X0074372Y0034817D02*
X0089640Y0034817D01*
X0089041Y0035415D02*
X0073773Y0035415D01*
X0073549Y0036014D02*
X0088443Y0036014D01*
X0087844Y0036612D02*
X0073549Y0036612D01*
X0073549Y0037211D02*
X0087246Y0037211D01*
X0086647Y0037809D02*
X0073549Y0037809D01*
X0073549Y0038408D02*
X0086049Y0038408D01*
X0085450Y0039006D02*
X0073549Y0039006D01*
X0073549Y0039605D02*
X0084852Y0039605D01*
X0084253Y0040203D02*
X0073549Y0040203D01*
X0073549Y0040802D02*
X0083655Y0040802D01*
X0083056Y0041400D02*
X0073549Y0041400D01*
X0073549Y0041999D02*
X0082458Y0041999D01*
X0081859Y0042597D02*
X0073549Y0042597D01*
X0073549Y0043196D02*
X0074472Y0043196D01*
X0073874Y0043794D02*
X0073549Y0043794D01*
X0078128Y0043196D02*
X0081261Y0043196D01*
X0080662Y0043794D02*
X0078726Y0043794D01*
X0079787Y0047565D02*
X0079787Y0047745D01*
X0078304Y0049228D01*
X0084296Y0049228D01*
X0082813Y0047745D01*
X0082813Y0046947D01*
X0082195Y0047565D01*
X0079787Y0047565D01*
X0079548Y0047984D02*
X0083052Y0047984D01*
X0082813Y0047385D02*
X0082374Y0047385D01*
X0083650Y0048582D02*
X0078950Y0048582D01*
X0078351Y0049181D02*
X0084249Y0049181D01*
X0088351Y0049181D02*
X0094249Y0049181D01*
X0093650Y0048582D02*
X0088950Y0048582D01*
X0089548Y0047984D02*
X0093052Y0047984D01*
X0092813Y0047385D02*
X0089787Y0047385D01*
X0089787Y0046787D02*
X0092813Y0046787D01*
X0092813Y0046188D02*
X0089787Y0046188D01*
X0089787Y0045590D02*
X0092813Y0045590D01*
X0092813Y0044991D02*
X0089787Y0044991D01*
X0089325Y0044393D02*
X0093275Y0044393D01*
X0093874Y0043794D02*
X0088726Y0043794D01*
X0088128Y0043196D02*
X0094472Y0043196D01*
X0098128Y0043196D02*
X0104472Y0043196D01*
X0103874Y0043794D02*
X0098726Y0043794D01*
X0099325Y0044393D02*
X0103275Y0044393D01*
X0102813Y0044991D02*
X0099787Y0044991D01*
X0099787Y0045590D02*
X0102813Y0045590D01*
X0102813Y0046188D02*
X0099787Y0046188D01*
X0099787Y0046787D02*
X0102813Y0046787D01*
X0102813Y0047385D02*
X0099787Y0047385D01*
X0099548Y0047984D02*
X0103052Y0047984D01*
X0103650Y0048582D02*
X0098950Y0048582D01*
X0098351Y0049181D02*
X0104249Y0049181D01*
X0119602Y0053969D02*
X0056620Y0053969D01*
X0057219Y0054568D02*
X0119602Y0054568D01*
X0119602Y0055166D02*
X0057817Y0055166D01*
X0058416Y0055765D02*
X0119602Y0055765D01*
X0119602Y0056363D02*
X0059014Y0056363D01*
X0059613Y0056962D02*
X0119602Y0056962D01*
X0119602Y0057560D02*
X0060211Y0057560D01*
X0060810Y0058159D02*
X0119602Y0058159D01*
X0119602Y0058757D02*
X0061408Y0058757D01*
X0062007Y0059356D02*
X0119602Y0059356D01*
X0119602Y0059954D02*
X0062605Y0059954D01*
X0063204Y0060553D02*
X0119602Y0060553D01*
X0119602Y0061151D02*
X0063802Y0061151D01*
X0064401Y0061750D02*
X0119602Y0061750D01*
X0119602Y0062348D02*
X0065000Y0062348D01*
X0065598Y0062947D02*
X0119602Y0062947D01*
X0119602Y0063545D02*
X0066197Y0063545D01*
X0066795Y0064144D02*
X0119602Y0064144D01*
X0119602Y0064742D02*
X0067394Y0064742D01*
X0067992Y0065341D02*
X0119602Y0065341D01*
X0119602Y0065939D02*
X0068591Y0065939D01*
X0069189Y0066538D02*
X0119602Y0066538D01*
X0119602Y0067136D02*
X0069788Y0067136D01*
X0070386Y0067735D02*
X0119602Y0067735D01*
X0119602Y0068333D02*
X0070985Y0068333D01*
X0071583Y0068932D02*
X0119602Y0068932D01*
X0119602Y0069530D02*
X0072182Y0069530D01*
X0072466Y0070129D02*
X0119602Y0070129D01*
X0119602Y0070727D02*
X0072466Y0070727D01*
X0072466Y0071326D02*
X0119602Y0071326D01*
X0119602Y0071924D02*
X0072466Y0071924D01*
X0072466Y0072523D02*
X0119602Y0072523D01*
X0119602Y0073121D02*
X0072466Y0073121D01*
X0072466Y0073720D02*
X0119602Y0073720D01*
X0119602Y0074318D02*
X0072466Y0074318D01*
X0072466Y0074917D02*
X0119602Y0074917D01*
X0119602Y0075515D02*
X0072466Y0075515D01*
X0072466Y0076114D02*
X0119602Y0076114D01*
X0119602Y0076712D02*
X0072466Y0076712D01*
X0072466Y0077311D02*
X0119602Y0077311D01*
X0119602Y0077909D02*
X0072466Y0077909D01*
X0072466Y0078508D02*
X0119602Y0078508D01*
X0119602Y0079106D02*
X0072466Y0079106D01*
X0072466Y0079705D02*
X0119602Y0079705D01*
X0119602Y0080303D02*
X0072466Y0080303D01*
X0072466Y0080902D02*
X0119602Y0080902D01*
X0119602Y0081501D02*
X0072466Y0081501D01*
X0072466Y0082099D02*
X0119602Y0082099D01*
X0119602Y0082698D02*
X0072466Y0082698D01*
X0072466Y0083296D02*
X0074372Y0083296D01*
X0073774Y0083895D02*
X0072466Y0083895D01*
X0072466Y0084493D02*
X0073175Y0084493D01*
X0072813Y0085092D02*
X0072466Y0085092D01*
X0072466Y0085690D02*
X0072813Y0085690D01*
X0072813Y0086289D02*
X0072700Y0086289D01*
X0069791Y0088683D02*
X0069218Y0088683D01*
X0069218Y0089281D02*
X0070390Y0089281D01*
X0070988Y0089880D02*
X0069218Y0089880D01*
X0069218Y0090478D02*
X0071587Y0090478D01*
X0072185Y0091077D02*
X0069218Y0091077D01*
X0069425Y0091675D02*
X0072784Y0091675D01*
X0073382Y0092274D02*
X0070023Y0092274D01*
X0070622Y0092872D02*
X0073981Y0092872D01*
X0074579Y0093471D02*
X0071221Y0093471D01*
X0071819Y0094069D02*
X0075178Y0094069D01*
X0074515Y0095865D02*
X0073615Y0095865D01*
X0073016Y0095266D02*
X0096946Y0095266D01*
X0096347Y0094668D02*
X0072418Y0094668D01*
X0069509Y0097062D02*
X0066150Y0097062D01*
X0066749Y0097660D02*
X0070107Y0097660D01*
X0070706Y0098259D02*
X0067347Y0098259D01*
X0067946Y0098857D02*
X0071304Y0098857D01*
X0071903Y0099456D02*
X0068544Y0099456D01*
X0069143Y0100054D02*
X0072501Y0100054D01*
X0072813Y0100653D02*
X0069741Y0100653D01*
X0070340Y0101251D02*
X0072813Y0101251D01*
X0072813Y0101850D02*
X0070938Y0101850D01*
X0071537Y0102448D02*
X0072813Y0102448D01*
X0072813Y0103047D02*
X0072135Y0103047D01*
X0072734Y0103645D02*
X0072813Y0103645D01*
X0069825Y0106039D02*
X0002584Y0106039D01*
X0002584Y0105441D02*
X0069227Y0105441D01*
X0068628Y0104842D02*
X0002584Y0104842D01*
X0002584Y0104244D02*
X0009312Y0104244D01*
X0009855Y0104787D02*
X0007813Y0102745D01*
X0007813Y0099855D01*
X0009855Y0097813D01*
X0012745Y0097813D01*
X0014787Y0099855D01*
X0014787Y0102745D01*
X0012745Y0104787D01*
X0009855Y0104787D01*
X0008714Y0103645D02*
X0002584Y0103645D01*
X0002584Y0103047D02*
X0008115Y0103047D01*
X0007813Y0102448D02*
X0002584Y0102448D01*
X0002584Y0101850D02*
X0007813Y0101850D01*
X0007813Y0101251D02*
X0002584Y0101251D01*
X0002584Y0100653D02*
X0007813Y0100653D01*
X0007813Y0100054D02*
X0002584Y0100054D01*
X0002584Y0099456D02*
X0008212Y0099456D01*
X0008811Y0098857D02*
X0002584Y0098857D01*
X0002584Y0098259D02*
X0009409Y0098259D01*
X0013191Y0098259D02*
X0049409Y0098259D01*
X0049855Y0097813D02*
X0052745Y0097813D01*
X0054787Y0099855D01*
X0054787Y0102745D01*
X0052745Y0104787D01*
X0049855Y0104787D01*
X0047813Y0102745D01*
X0047813Y0099855D01*
X0049855Y0097813D01*
X0048811Y0098857D02*
X0013789Y0098857D01*
X0014388Y0099456D02*
X0048212Y0099456D01*
X0047813Y0100054D02*
X0014787Y0100054D01*
X0014787Y0100653D02*
X0047813Y0100653D01*
X0047813Y0101251D02*
X0014787Y0101251D01*
X0014787Y0101850D02*
X0047813Y0101850D01*
X0047813Y0102448D02*
X0014787Y0102448D01*
X0014485Y0103047D02*
X0048115Y0103047D01*
X0048714Y0103645D02*
X0013886Y0103645D01*
X0013288Y0104244D02*
X0049312Y0104244D01*
X0053288Y0104244D02*
X0068030Y0104244D01*
X0067431Y0103645D02*
X0053886Y0103645D01*
X0054485Y0103047D02*
X0066833Y0103047D01*
X0066234Y0102448D02*
X0054787Y0102448D01*
X0054787Y0101850D02*
X0065636Y0101850D01*
X0065037Y0101251D02*
X0054787Y0101251D01*
X0054787Y0100653D02*
X0064439Y0100653D01*
X0063840Y0100054D02*
X0054787Y0100054D01*
X0054388Y0099456D02*
X0063241Y0099456D01*
X0062643Y0098857D02*
X0053789Y0098857D01*
X0053191Y0098259D02*
X0062044Y0098259D01*
X0061446Y0097660D02*
X0002584Y0097660D01*
X0002584Y0097062D02*
X0060847Y0097062D01*
X0060249Y0096463D02*
X0002584Y0096463D01*
X0002584Y0095865D02*
X0059650Y0095865D01*
X0059052Y0095266D02*
X0002584Y0095266D01*
X0002584Y0094668D02*
X0058453Y0094668D01*
X0057855Y0094069D02*
X0002584Y0094069D01*
X0002584Y0093471D02*
X0057256Y0093471D01*
X0056658Y0092872D02*
X0002584Y0092872D01*
X0002584Y0092274D02*
X0056059Y0092274D01*
X0055461Y0091675D02*
X0002584Y0091675D01*
X0002584Y0091077D02*
X0054862Y0091077D01*
X0054642Y0090478D02*
X0002584Y0090478D01*
X0002584Y0089880D02*
X0054642Y0089880D01*
X0054349Y0089281D02*
X0048251Y0089281D01*
X0047745Y0089787D02*
X0044855Y0089787D01*
X0042813Y0087745D01*
X0042813Y0084855D01*
X0044855Y0082813D01*
X0047745Y0082813D01*
X0049787Y0084855D01*
X0049787Y0087745D01*
X0047745Y0089787D01*
X0048849Y0088683D02*
X0053751Y0088683D01*
X0053152Y0088084D02*
X0049448Y0088084D01*
X0049787Y0087486D02*
X0052813Y0087486D01*
X0052813Y0086887D02*
X0049787Y0086887D01*
X0049787Y0086289D02*
X0052813Y0086289D01*
X0052813Y0085690D02*
X0049787Y0085690D01*
X0049787Y0085092D02*
X0052813Y0085092D01*
X0053175Y0084493D02*
X0049425Y0084493D01*
X0048826Y0083895D02*
X0053774Y0083895D01*
X0054372Y0083296D02*
X0048228Y0083296D01*
X0044372Y0083296D02*
X0002584Y0083296D01*
X0002584Y0082698D02*
X0068717Y0082698D01*
X0068717Y0083296D02*
X0068228Y0083296D01*
X0068717Y0082099D02*
X0002584Y0082099D01*
X0002584Y0081501D02*
X0068717Y0081501D01*
X0068717Y0080902D02*
X0002584Y0080902D01*
X0002584Y0080303D02*
X0019523Y0080303D01*
X0019607Y0080387D02*
X0017213Y0077993D01*
X0017213Y0074607D01*
X0019607Y0072213D01*
X0022993Y0072213D01*
X0025387Y0074607D01*
X0025387Y0077993D01*
X0022993Y0080387D01*
X0019607Y0080387D01*
X0018925Y0079705D02*
X0002584Y0079705D01*
X0002584Y0079106D02*
X0018326Y0079106D01*
X0017728Y0078508D02*
X0002584Y0078508D01*
X0002584Y0077909D02*
X0017213Y0077909D01*
X0017213Y0077311D02*
X0002584Y0077311D01*
X0002584Y0076712D02*
X0017213Y0076712D01*
X0017213Y0076114D02*
X0002584Y0076114D01*
X0002584Y0075515D02*
X0017213Y0075515D01*
X0017213Y0074917D02*
X0002584Y0074917D01*
X0002584Y0074318D02*
X0017501Y0074318D01*
X0018100Y0073720D02*
X0002584Y0073720D01*
X0002584Y0073121D02*
X0018698Y0073121D01*
X0019297Y0072523D02*
X0002584Y0072523D01*
X0002584Y0071924D02*
X0068717Y0071924D01*
X0068717Y0072523D02*
X0033303Y0072523D01*
X0032993Y0072213D02*
X0035387Y0074607D01*
X0035387Y0077993D01*
X0032993Y0080387D01*
X0029607Y0080387D01*
X0027213Y0077993D01*
X0027213Y0074607D01*
X0029607Y0072213D01*
X0032993Y0072213D01*
X0033902Y0073121D02*
X0068717Y0073121D01*
X0068717Y0073720D02*
X0034500Y0073720D01*
X0035099Y0074318D02*
X0068717Y0074318D01*
X0068717Y0074917D02*
X0035387Y0074917D01*
X0035387Y0075515D02*
X0068717Y0075515D01*
X0068717Y0076114D02*
X0035387Y0076114D01*
X0035387Y0076712D02*
X0068717Y0076712D01*
X0068717Y0077311D02*
X0035387Y0077311D01*
X0035387Y0077909D02*
X0068717Y0077909D01*
X0068717Y0078508D02*
X0034872Y0078508D01*
X0034274Y0079106D02*
X0068717Y0079106D01*
X0068717Y0079705D02*
X0033675Y0079705D01*
X0033077Y0080303D02*
X0068717Y0080303D01*
X0064372Y0083296D02*
X0058228Y0083296D01*
X0058826Y0083895D02*
X0063774Y0083895D01*
X0063175Y0084493D02*
X0059425Y0084493D01*
X0059787Y0085092D02*
X0062813Y0085092D01*
X0062813Y0085690D02*
X0059787Y0085690D01*
X0059787Y0086289D02*
X0062813Y0086289D01*
X0062813Y0086887D02*
X0059787Y0086887D01*
X0059787Y0087486D02*
X0062813Y0087486D01*
X0063152Y0088084D02*
X0059448Y0088084D01*
X0058849Y0088683D02*
X0063751Y0088683D01*
X0064349Y0089281D02*
X0058391Y0089281D01*
X0058968Y0089880D02*
X0065469Y0089880D01*
X0065469Y0090478D02*
X0059567Y0090478D01*
X0060165Y0091077D02*
X0065469Y0091077D01*
X0065469Y0091675D02*
X0060764Y0091675D01*
X0061362Y0092274D02*
X0065469Y0092274D01*
X0065469Y0092872D02*
X0061961Y0092872D01*
X0062559Y0093471D02*
X0065918Y0093471D01*
X0066516Y0094069D02*
X0063158Y0094069D01*
X0063756Y0094668D02*
X0067115Y0094668D01*
X0067713Y0095266D02*
X0064355Y0095266D01*
X0064953Y0095865D02*
X0068312Y0095865D01*
X0068910Y0096463D02*
X0065552Y0096463D01*
X0076199Y0089787D02*
X0076781Y0090370D01*
X0082305Y0090370D01*
X0080642Y0088706D01*
X0078826Y0088706D01*
X0077745Y0089787D01*
X0076199Y0089787D01*
X0076291Y0089880D02*
X0081815Y0089880D01*
X0081216Y0089281D02*
X0078251Y0089281D01*
X0079425Y0084493D02*
X0083175Y0084493D01*
X0082813Y0085092D02*
X0082330Y0085092D01*
X0083774Y0083895D02*
X0078826Y0083895D01*
X0078228Y0083296D02*
X0084372Y0083296D01*
X0089448Y0088084D02*
X0091589Y0088084D01*
X0108085Y0095865D02*
X0114515Y0095865D01*
X0114325Y0095944D02*
X0115606Y0095413D01*
X0116994Y0095413D01*
X0118275Y0095944D01*
X0119256Y0096925D01*
X0119787Y0098206D01*
X0119787Y0104394D01*
X0119256Y0105675D01*
X0118275Y0106656D01*
X0116994Y0107187D01*
X0115606Y0107187D01*
X0114325Y0106656D01*
X0113344Y0105675D01*
X0112813Y0104394D01*
X0112813Y0098206D01*
X0113344Y0096925D01*
X0114325Y0095944D01*
X0113805Y0096463D02*
X0108795Y0096463D01*
X0109313Y0097062D02*
X0113287Y0097062D01*
X0113039Y0097660D02*
X0109561Y0097660D01*
X0109787Y0098259D02*
X0112813Y0098259D01*
X0112813Y0098857D02*
X0109787Y0098857D01*
X0109787Y0099456D02*
X0112813Y0099456D01*
X0112813Y0100054D02*
X0109787Y0100054D01*
X0109787Y0100653D02*
X0112813Y0100653D01*
X0112813Y0101251D02*
X0109787Y0101251D01*
X0109787Y0101850D02*
X0112813Y0101850D01*
X0112813Y0102448D02*
X0109787Y0102448D01*
X0109787Y0103047D02*
X0112813Y0103047D01*
X0112813Y0103645D02*
X0109787Y0103645D01*
X0109787Y0104244D02*
X0112813Y0104244D01*
X0112998Y0104842D02*
X0109602Y0104842D01*
X0109354Y0105441D02*
X0113246Y0105441D01*
X0113708Y0106039D02*
X0108892Y0106039D01*
X0108294Y0106638D02*
X0114306Y0106638D01*
X0118294Y0106638D02*
X0124306Y0106638D01*
X0123708Y0106039D02*
X0118892Y0106039D01*
X0119354Y0105441D02*
X0123246Y0105441D01*
X0122998Y0104842D02*
X0119602Y0104842D01*
X0119787Y0104244D02*
X0122813Y0104244D01*
X0122813Y0103645D02*
X0119787Y0103645D01*
X0119787Y0103047D02*
X0122813Y0103047D01*
X0122813Y0102448D02*
X0119787Y0102448D01*
X0119787Y0101850D02*
X0122813Y0101850D01*
X0122813Y0101251D02*
X0119787Y0101251D01*
X0119787Y0100653D02*
X0122813Y0100653D01*
X0122813Y0100054D02*
X0119787Y0100054D01*
X0119787Y0099456D02*
X0122813Y0099456D01*
X0122813Y0098857D02*
X0119787Y0098857D01*
X0119787Y0098259D02*
X0122813Y0098259D01*
X0123039Y0097660D02*
X0119561Y0097660D01*
X0119313Y0097062D02*
X0123287Y0097062D01*
X0123805Y0096463D02*
X0118795Y0096463D01*
X0118085Y0095865D02*
X0123933Y0095865D01*
X0119602Y0084493D02*
X0119425Y0084493D01*
X0119602Y0083895D02*
X0118826Y0083895D01*
X0118228Y0083296D02*
X0119602Y0083296D01*
X0143923Y0083296D02*
X0144372Y0083296D01*
X0169363Y0074641D02*
X0169033Y0073572D01*
X0169651Y0075063D01*
X0169363Y0074641D01*
X0169342Y0074318D02*
X0169263Y0074318D01*
X0169094Y0073720D02*
X0169078Y0073720D01*
X0168717Y0072547D02*
X0168717Y0070053D01*
X0168686Y0070152D01*
X0168686Y0072448D01*
X0168717Y0072547D01*
X0168717Y0072523D02*
X0168709Y0072523D01*
X0168686Y0071924D02*
X0168717Y0071924D01*
X0168686Y0071326D02*
X0168717Y0071326D01*
X0168686Y0070727D02*
X0168717Y0070727D01*
X0168693Y0070129D02*
X0168717Y0070129D01*
X0169033Y0069028D02*
X0169651Y0067537D01*
X0169363Y0067959D01*
X0169033Y0069028D01*
X0169062Y0068932D02*
X0169073Y0068932D01*
X0169247Y0068333D02*
X0169321Y0068333D01*
X0169515Y0067735D02*
X0169568Y0067735D01*
X0170319Y0066557D02*
X0171432Y0065444D01*
X0170655Y0066063D01*
X0170319Y0066557D01*
X0170332Y0066538D02*
X0170338Y0066538D01*
X0170810Y0065939D02*
X0170936Y0065939D01*
X0172307Y0064746D02*
X0174611Y0063791D01*
X0174587Y0063793D01*
X0172450Y0064632D01*
X0172307Y0064746D01*
X0172311Y0064742D02*
X0172315Y0064742D01*
X0173693Y0064144D02*
X0173760Y0064144D01*
X0175607Y0063717D02*
X0176875Y0063622D01*
X0177292Y0063717D01*
X0175607Y0063717D01*
X0178443Y0063979D02*
X0179878Y0064574D01*
X0179113Y0064132D01*
X0178443Y0063979D01*
X0178840Y0064144D02*
X0179133Y0064144D01*
X0180873Y0065148D02*
X0182340Y0066616D01*
X0181101Y0065280D01*
X0180873Y0065148D01*
X0181065Y0065341D02*
X0181157Y0065341D01*
X0181664Y0065939D02*
X0181713Y0065939D01*
X0182262Y0066538D02*
X0182268Y0066538D01*
X0183016Y0067698D02*
X0183709Y0069371D01*
X0183658Y0069030D01*
X0183016Y0067698D01*
X0183031Y0067735D02*
X0183034Y0067735D01*
X0183279Y0068333D02*
X0183322Y0068333D01*
X0183527Y0068932D02*
X0183610Y0068932D01*
X0183883Y0070527D02*
X0183883Y0072073D01*
X0184000Y0071300D01*
X0183883Y0070527D01*
X0183883Y0070727D02*
X0183914Y0070727D01*
X0183883Y0071326D02*
X0183996Y0071326D01*
X0183906Y0071924D02*
X0183883Y0071924D01*
X0183709Y0073229D02*
X0183016Y0074902D01*
X0183658Y0073570D01*
X0183709Y0073229D01*
X0183586Y0073720D02*
X0183506Y0073720D01*
X0183297Y0074318D02*
X0183258Y0074318D01*
X0182340Y0075984D02*
X0180873Y0077452D01*
X0181101Y0077320D01*
X0182340Y0075984D01*
X0182220Y0076114D02*
X0182211Y0076114D01*
X0181665Y0076712D02*
X0181612Y0076712D01*
X0181109Y0077311D02*
X0181014Y0077311D01*
X0179878Y0078026D02*
X0178443Y0078621D01*
X0179113Y0078468D01*
X0179878Y0078026D01*
X0178937Y0078508D02*
X0178715Y0078508D01*
X0177292Y0078883D02*
X0175607Y0078883D01*
X0176875Y0078978D01*
X0177292Y0078883D01*
X0174611Y0078809D02*
X0172307Y0077854D01*
X0172450Y0077968D01*
X0174587Y0078807D01*
X0174611Y0078809D01*
X0173885Y0078508D02*
X0173825Y0078508D01*
X0172440Y0077909D02*
X0172376Y0077909D01*
X0171432Y0077156D02*
X0170319Y0076043D01*
X0170655Y0076537D01*
X0171432Y0077156D01*
X0170988Y0076712D02*
X0170875Y0076712D01*
X0170389Y0076114D02*
X0170367Y0076114D01*
X0169590Y0074917D02*
X0169551Y0074917D01*
X0182255Y0086473D02*
X0182255Y0086473D01*
X0182575Y0086289D02*
X0183247Y0086289D01*
X0183611Y0085690D02*
X0183845Y0085690D01*
X0191111Y0093471D02*
X0208382Y0093471D01*
X0208382Y0094069D02*
X0190513Y0094069D01*
X0189914Y0094668D02*
X0208382Y0094668D01*
X0208382Y0095266D02*
X0189316Y0095266D01*
X0188717Y0095865D02*
X0208382Y0095865D01*
X0208382Y0096463D02*
X0188119Y0096463D01*
X0187520Y0097062D02*
X0208382Y0097062D01*
X0208690Y0097660D02*
X0186922Y0097660D01*
X0186323Y0098259D02*
X0209289Y0098259D01*
X0209887Y0098857D02*
X0185725Y0098857D01*
X0185126Y0099456D02*
X0210486Y0099456D01*
X0211084Y0100054D02*
X0184528Y0100054D01*
X0183929Y0100653D02*
X0211683Y0100653D01*
X0212281Y0101251D02*
X0183331Y0101251D01*
X0182732Y0101850D02*
X0212880Y0101850D01*
X0213478Y0102448D02*
X0182134Y0102448D01*
X0181535Y0103047D02*
X0214077Y0103047D01*
X0214675Y0103645D02*
X0180937Y0103645D01*
X0180338Y0104244D02*
X0215274Y0104244D01*
X0215872Y0104842D02*
X0179740Y0104842D01*
X0179141Y0105441D02*
X0215961Y0105441D01*
X0215961Y0106039D02*
X0178543Y0106039D01*
X0177944Y0106638D02*
X0215961Y0106638D01*
X0215961Y0107237D02*
X0177346Y0107237D01*
X0176747Y0107835D02*
X0215961Y0107835D01*
X0215961Y0108434D02*
X0176149Y0108434D01*
X0175550Y0109032D02*
X0215961Y0109032D01*
X0215961Y0109631D02*
X0174952Y0109631D01*
X0174353Y0110229D02*
X0213050Y0110229D01*
X0212224Y0110828D02*
X0173754Y0110828D01*
X0173156Y0111426D02*
X0211626Y0111426D01*
X0211225Y0112025D02*
X0172557Y0112025D01*
X0171959Y0112623D02*
X0210977Y0112623D01*
X0210729Y0113222D02*
X0171360Y0113222D01*
X0170762Y0113820D02*
X0210663Y0113820D01*
X0219710Y0109631D02*
X0236300Y0109631D01*
X0236300Y0110229D02*
X0224550Y0110229D01*
X0225375Y0110828D02*
X0236300Y0110828D01*
X0236300Y0111426D02*
X0225974Y0111426D01*
X0226375Y0112025D02*
X0236300Y0112025D01*
X0236300Y0112623D02*
X0226623Y0112623D01*
X0226871Y0113222D02*
X0236300Y0113222D01*
X0236300Y0113820D02*
X0226937Y0113820D01*
X0226937Y0114419D02*
X0236300Y0114419D01*
X0236300Y0115017D02*
X0226937Y0115017D01*
X0226772Y0115616D02*
X0236300Y0115616D01*
X0236300Y0116214D02*
X0226525Y0116214D01*
X0226277Y0116813D02*
X0236300Y0116813D01*
X0236300Y0117411D02*
X0225737Y0117411D01*
X0225138Y0118010D02*
X0236300Y0118010D01*
X0236300Y0118608D02*
X0223977Y0118608D01*
X0219710Y0119207D02*
X0236300Y0119207D01*
X0236300Y0119805D02*
X0219710Y0119805D01*
X0219710Y0120404D02*
X0236300Y0120404D01*
X0236300Y0121002D02*
X0219710Y0121002D01*
X0219710Y0121601D02*
X0236300Y0121601D01*
X0236300Y0122199D02*
X0219710Y0122199D01*
X0219710Y0122798D02*
X0236300Y0122798D01*
X0236300Y0123396D02*
X0219710Y0123396D01*
X0219710Y0123995D02*
X0236300Y0123995D01*
X0236300Y0124593D02*
X0219710Y0124593D01*
X0219710Y0125192D02*
X0236300Y0125192D01*
X0236300Y0125790D02*
X0219422Y0125790D01*
X0218823Y0126389D02*
X0236300Y0126389D01*
X0236300Y0126987D02*
X0218225Y0126987D01*
X0217626Y0127586D02*
X0236300Y0127586D01*
X0236300Y0128184D02*
X0217028Y0128184D01*
X0216429Y0128783D02*
X0236300Y0128783D01*
X0236300Y0129381D02*
X0215831Y0129381D01*
X0212323Y0127586D02*
X0208190Y0127586D01*
X0208789Y0128184D02*
X0211725Y0128184D01*
X0211126Y0128783D02*
X0209387Y0128783D01*
X0209986Y0129381D02*
X0210528Y0129381D01*
X0207675Y0132374D02*
X0189415Y0132374D01*
X0188379Y0131775D02*
X0207077Y0131775D01*
X0206478Y0131177D02*
X0187342Y0131177D01*
X0187255Y0131127D02*
X0187255Y0131127D01*
X0190452Y0132972D02*
X0208274Y0132972D01*
X0208382Y0133571D02*
X0191477Y0133571D01*
X0191463Y0133556D02*
X0191463Y0133556D01*
X0192032Y0134170D02*
X0208382Y0134170D01*
X0208382Y0134768D02*
X0192587Y0134768D01*
X0193143Y0135367D02*
X0208382Y0135367D01*
X0208382Y0135965D02*
X0193698Y0135965D01*
X0194253Y0136564D02*
X0208382Y0136564D01*
X0208382Y0137162D02*
X0194789Y0137162D01*
X0194768Y0137118D02*
X0194768Y0137118D01*
X0195077Y0137761D02*
X0208382Y0137761D01*
X0208382Y0138359D02*
X0195365Y0138359D01*
X0195654Y0138958D02*
X0208382Y0138958D01*
X0208382Y0139556D02*
X0195942Y0139556D01*
X0196230Y0140155D02*
X0208382Y0140155D01*
X0208382Y0140753D02*
X0196518Y0140753D01*
X0196807Y0141352D02*
X0208382Y0141352D01*
X0208382Y0141950D02*
X0196944Y0141950D01*
X0197035Y0142549D02*
X0208382Y0142549D01*
X0208382Y0143147D02*
X0197125Y0143147D01*
X0197215Y0143746D02*
X0208382Y0143746D01*
X0208382Y0144344D02*
X0197305Y0144344D01*
X0197395Y0144943D02*
X0208382Y0144943D01*
X0208382Y0145541D02*
X0197486Y0145541D01*
X0197576Y0146140D02*
X0208382Y0146140D01*
X0208382Y0146738D02*
X0197534Y0146738D01*
X0197444Y0147337D02*
X0208563Y0147337D01*
X0209162Y0147935D02*
X0197354Y0147935D01*
X0197263Y0148534D02*
X0209760Y0148534D01*
X0210359Y0149132D02*
X0197173Y0149132D01*
X0197083Y0149731D02*
X0210957Y0149731D01*
X0211556Y0150329D02*
X0196993Y0150329D01*
X0196902Y0150928D02*
X0212124Y0150928D01*
X0211526Y0151526D02*
X0196673Y0151526D01*
X0196384Y0152125D02*
X0211184Y0152125D01*
X0210936Y0152723D02*
X0196096Y0152723D01*
X0195808Y0153322D02*
X0210688Y0153322D01*
X0210663Y0153920D02*
X0195520Y0153920D01*
X0195232Y0154519D02*
X0210663Y0154519D01*
X0210663Y0155117D02*
X0194943Y0155117D01*
X0194768Y0155482D02*
X0194768Y0155482D01*
X0194551Y0155716D02*
X0210869Y0155716D01*
X0211117Y0156314D02*
X0193995Y0156314D01*
X0191007Y0159307D02*
X0236300Y0159307D01*
X0236300Y0159905D02*
X0189970Y0159905D01*
X0188934Y0160504D02*
X0236300Y0160504D01*
X0236300Y0161103D02*
X0187897Y0161103D01*
X0187255Y0161473D02*
X0187255Y0161473D01*
X0186257Y0161701D02*
X0236300Y0161701D01*
X0236300Y0162300D02*
X0183635Y0162300D01*
X0179117Y0162300D02*
X0023635Y0162300D01*
X0022518Y0162554D02*
X0022518Y0162554D01*
X0019117Y0162300D02*
X0007300Y0162300D01*
X0007898Y0162898D02*
X0236300Y0162898D01*
X0236300Y0163497D02*
X0008497Y0163497D01*
X0009095Y0164095D02*
X0236300Y0164095D01*
X0236300Y0164694D02*
X0009694Y0164694D01*
X0006701Y0161701D02*
X0016424Y0161701D01*
X0014899Y0161103D02*
X0006103Y0161103D01*
X0005504Y0160504D02*
X0013374Y0160504D01*
X0013150Y0160416D02*
X0013150Y0160416D01*
X0012510Y0159905D02*
X0004905Y0159905D01*
X0004307Y0159307D02*
X0011759Y0159307D01*
X0011009Y0158708D02*
X0003708Y0158708D01*
X0003110Y0158110D02*
X0010258Y0158110D01*
X0009508Y0157511D02*
X0002584Y0157511D01*
X0002584Y0156913D02*
X0009028Y0156913D01*
X0008620Y0156314D02*
X0002584Y0156314D01*
X0002584Y0155716D02*
X0008212Y0155716D01*
X0007804Y0155117D02*
X0002584Y0155117D01*
X0002584Y0154519D02*
X0007396Y0154519D01*
X0006988Y0153920D02*
X0002584Y0153920D01*
X0002584Y0153322D02*
X0006599Y0153322D01*
X0006614Y0153372D02*
X0006614Y0153372D01*
X0006414Y0152723D02*
X0002584Y0152723D01*
X0002584Y0152125D02*
X0006229Y0152125D01*
X0006045Y0151526D02*
X0002584Y0151526D01*
X0002584Y0150928D02*
X0005860Y0150928D01*
X0005676Y0150329D02*
X0002584Y0150329D01*
X0002584Y0149731D02*
X0005491Y0149731D01*
X0005306Y0149132D02*
X0002584Y0149132D01*
X0002584Y0148534D02*
X0005182Y0148534D01*
X0005182Y0147935D02*
X0002584Y0147935D01*
X0002584Y0147337D02*
X0005182Y0147337D01*
X0005182Y0146738D02*
X0002584Y0146738D01*
X0002584Y0146140D02*
X0005182Y0146140D01*
X0005182Y0145541D02*
X0002584Y0145541D01*
X0002584Y0144943D02*
X0005182Y0144943D01*
X0005182Y0144344D02*
X0002584Y0144344D01*
X0002584Y0143746D02*
X0005221Y0143746D01*
X0005405Y0143147D02*
X0002584Y0143147D01*
X0002584Y0142549D02*
X0005590Y0142549D01*
X0005774Y0141950D02*
X0002584Y0141950D01*
X0002584Y0141352D02*
X0005959Y0141352D01*
X0006144Y0140753D02*
X0002584Y0140753D01*
X0002584Y0140155D02*
X0006328Y0140155D01*
X0006513Y0139556D02*
X0002584Y0139556D01*
X0002584Y0138958D02*
X0006798Y0138958D01*
X0007206Y0138359D02*
X0002584Y0138359D01*
X0002584Y0137761D02*
X0007614Y0137761D01*
X0008023Y0137162D02*
X0002584Y0137162D01*
X0002584Y0136564D02*
X0008431Y0136564D01*
X0008839Y0135965D02*
X0002584Y0135965D01*
X0002584Y0135367D02*
X0009247Y0135367D01*
X0009909Y0134768D02*
X0002584Y0134768D01*
X0002584Y0134170D02*
X0010660Y0134170D01*
X0011410Y0133571D02*
X0002584Y0133571D01*
X0002584Y0132972D02*
X0012161Y0132972D01*
X0012911Y0132374D02*
X0002584Y0132374D01*
X0002584Y0131775D02*
X0014190Y0131775D01*
X0013150Y0132184D02*
X0013150Y0132184D01*
X0015715Y0131177D02*
X0002584Y0131177D01*
X0015655Y0141063D02*
X0016432Y0140444D01*
X0015319Y0141557D01*
X0015655Y0141063D01*
X0015524Y0141352D02*
X0015458Y0141352D01*
X0016044Y0140753D02*
X0016122Y0140753D01*
X0017307Y0139746D02*
X0019611Y0138791D01*
X0019587Y0138793D01*
X0017450Y0139632D01*
X0017307Y0139746D01*
X0017642Y0139556D02*
X0017765Y0139556D01*
X0019167Y0138958D02*
X0019210Y0138958D01*
X0020607Y0138717D02*
X0022292Y0138717D01*
X0021875Y0138622D01*
X0020607Y0138717D01*
X0023443Y0138979D02*
X0024113Y0139132D01*
X0024878Y0139574D01*
X0023443Y0138979D01*
X0024835Y0139556D02*
X0024847Y0139556D01*
X0025873Y0140148D02*
X0027340Y0141616D01*
X0026101Y0140280D01*
X0025873Y0140148D01*
X0025879Y0140155D02*
X0025884Y0140155D01*
X0026478Y0140753D02*
X0026540Y0140753D01*
X0027076Y0141352D02*
X0027095Y0141352D01*
X0028016Y0142698D02*
X0028709Y0144371D01*
X0028658Y0144030D01*
X0028016Y0142698D01*
X0028202Y0143147D02*
X0028233Y0143147D01*
X0028450Y0143746D02*
X0028521Y0143746D01*
X0028698Y0144344D02*
X0028705Y0144344D01*
X0028883Y0145527D02*
X0028883Y0147073D01*
X0029000Y0146300D01*
X0028883Y0145527D01*
X0028883Y0145541D02*
X0028886Y0145541D01*
X0028883Y0146140D02*
X0028976Y0146140D01*
X0028934Y0146738D02*
X0028883Y0146738D01*
X0028709Y0148229D02*
X0028016Y0149902D01*
X0028658Y0148570D01*
X0028709Y0148229D01*
X0028663Y0148534D02*
X0028583Y0148534D01*
X0028387Y0149132D02*
X0028335Y0149132D01*
X0028099Y0149731D02*
X0028087Y0149731D01*
X0027340Y0150984D02*
X0025873Y0152452D01*
X0026101Y0152320D01*
X0027340Y0150984D01*
X0026837Y0151526D02*
X0026798Y0151526D01*
X0026282Y0152125D02*
X0026200Y0152125D01*
X0024878Y0153026D02*
X0023443Y0153621D01*
X0024113Y0153468D01*
X0024878Y0153026D01*
X0024366Y0153322D02*
X0024164Y0153322D01*
X0022292Y0153883D02*
X0020607Y0153883D01*
X0021875Y0153978D01*
X0022292Y0153883D01*
X0022130Y0153920D02*
X0021100Y0153920D01*
X0019611Y0153809D02*
X0017307Y0152854D01*
X0017450Y0152968D01*
X0019587Y0153807D01*
X0019611Y0153809D01*
X0018436Y0153322D02*
X0018351Y0153322D01*
X0016432Y0152156D02*
X0015319Y0151043D01*
X0015655Y0151537D01*
X0016432Y0152156D01*
X0016400Y0152125D02*
X0016392Y0152125D01*
X0015802Y0151526D02*
X0015648Y0151526D01*
X0014651Y0150063D02*
X0014363Y0149641D01*
X0014033Y0148572D01*
X0014651Y0150063D01*
X0014513Y0149731D02*
X0014424Y0149731D01*
X0014265Y0149132D02*
X0014206Y0149132D01*
X0013717Y0147547D02*
X0013717Y0145053D01*
X0013686Y0145152D01*
X0013686Y0147448D01*
X0013717Y0147547D01*
X0013717Y0147337D02*
X0013686Y0147337D01*
X0013686Y0146738D02*
X0013717Y0146738D01*
X0013686Y0146140D02*
X0013717Y0146140D01*
X0013686Y0145541D02*
X0013717Y0145541D01*
X0014033Y0144028D02*
X0014651Y0142537D01*
X0014363Y0142959D01*
X0014033Y0144028D01*
X0014120Y0143746D02*
X0014150Y0143746D01*
X0014305Y0143147D02*
X0014398Y0143147D01*
X0014642Y0142549D02*
X0014646Y0142549D01*
X0027255Y0131127D02*
X0027255Y0131127D01*
X0013113Y0114419D02*
X0049487Y0114419D01*
X0048888Y0113820D02*
X0013712Y0113820D01*
X0014310Y0113222D02*
X0048290Y0113222D01*
X0047813Y0112623D02*
X0014787Y0112623D01*
X0014787Y0112025D02*
X0047813Y0112025D01*
X0047813Y0111426D02*
X0014787Y0111426D01*
X0014787Y0110828D02*
X0047813Y0110828D01*
X0047813Y0110229D02*
X0014787Y0110229D01*
X0014562Y0109631D02*
X0048038Y0109631D01*
X0048636Y0109032D02*
X0013964Y0109032D01*
X0013365Y0108434D02*
X0049235Y0108434D01*
X0049833Y0107835D02*
X0012767Y0107835D01*
X0002584Y0106638D02*
X0070424Y0106638D01*
X0082210Y0113222D02*
X0130429Y0113222D01*
X0130429Y0113820D02*
X0082210Y0113820D01*
X0082210Y0114419D02*
X0130429Y0114419D01*
X0130429Y0115017D02*
X0082210Y0115017D01*
X0082210Y0115616D02*
X0130429Y0115616D01*
X0130429Y0116214D02*
X0082210Y0116214D01*
X0082210Y0116813D02*
X0130429Y0116813D01*
X0130429Y0117411D02*
X0082210Y0117411D01*
X0082210Y0118010D02*
X0130429Y0118010D01*
X0130429Y0118608D02*
X0082210Y0118608D01*
X0082210Y0119207D02*
X0130429Y0119207D01*
X0130429Y0119805D02*
X0082210Y0119805D01*
X0082210Y0120404D02*
X0130429Y0120404D01*
X0130429Y0121002D02*
X0082210Y0121002D01*
X0082210Y0121601D02*
X0130429Y0121601D01*
X0130429Y0122199D02*
X0082210Y0122199D01*
X0082210Y0122798D02*
X0130429Y0122798D01*
X0130429Y0123396D02*
X0082210Y0123396D01*
X0082210Y0123995D02*
X0130429Y0123995D01*
X0130429Y0124593D02*
X0082210Y0124593D01*
X0078461Y0136471D02*
X0078275Y0136656D01*
X0077880Y0136820D01*
X0077880Y0145940D01*
X0078461Y0145359D01*
X0078461Y0136471D01*
X0078461Y0136564D02*
X0078368Y0136564D01*
X0078461Y0137162D02*
X0077880Y0137162D01*
X0077880Y0137761D02*
X0078461Y0137761D01*
X0078461Y0138359D02*
X0077880Y0138359D01*
X0077880Y0138958D02*
X0078461Y0138958D01*
X0078461Y0139556D02*
X0077880Y0139556D01*
X0077880Y0140155D02*
X0078461Y0140155D01*
X0078461Y0140753D02*
X0077880Y0140753D01*
X0077880Y0141352D02*
X0078461Y0141352D01*
X0078461Y0141950D02*
X0077880Y0141950D01*
X0077880Y0142549D02*
X0078461Y0142549D01*
X0078461Y0143147D02*
X0077880Y0143147D01*
X0077880Y0143746D02*
X0078461Y0143746D01*
X0078461Y0144344D02*
X0077880Y0144344D01*
X0077880Y0144943D02*
X0078461Y0144943D01*
X0078278Y0145541D02*
X0077880Y0145541D01*
X0082431Y0144344D02*
X0090169Y0144344D01*
X0088877Y0144943D02*
X0083723Y0144943D01*
X0084322Y0145541D02*
X0088278Y0145541D01*
X0087771Y0146140D02*
X0084829Y0146140D01*
X0085077Y0146738D02*
X0087523Y0146738D01*
X0087275Y0147337D02*
X0085325Y0147337D01*
X0085387Y0147935D02*
X0087213Y0147935D01*
X0087213Y0148534D02*
X0085387Y0148534D01*
X0085387Y0149132D02*
X0087213Y0149132D01*
X0087213Y0149731D02*
X0085387Y0149731D01*
X0085387Y0150329D02*
X0087213Y0150329D01*
X0087213Y0150928D02*
X0085387Y0150928D01*
X0085387Y0151526D02*
X0087213Y0151526D01*
X0087213Y0152125D02*
X0085387Y0152125D01*
X0085387Y0152723D02*
X0087213Y0152723D01*
X0086981Y0153322D02*
X0085387Y0153322D01*
X0085387Y0153920D02*
X0086383Y0153920D01*
X0085784Y0154519D02*
X0085387Y0154519D01*
X0044349Y0089281D02*
X0002584Y0089281D01*
X0002584Y0088683D02*
X0043751Y0088683D01*
X0043152Y0088084D02*
X0002584Y0088084D01*
X0002584Y0087486D02*
X0042813Y0087486D01*
X0042813Y0086887D02*
X0002584Y0086887D01*
X0002584Y0086289D02*
X0042813Y0086289D01*
X0042813Y0085690D02*
X0002584Y0085690D01*
X0002584Y0085092D02*
X0042813Y0085092D01*
X0043175Y0084493D02*
X0002584Y0084493D01*
X0002584Y0083895D02*
X0043774Y0083895D01*
X0029523Y0080303D02*
X0023077Y0080303D01*
X0023675Y0079705D02*
X0028925Y0079705D01*
X0028326Y0079106D02*
X0024274Y0079106D01*
X0024872Y0078508D02*
X0027728Y0078508D01*
X0027213Y0077909D02*
X0025387Y0077909D01*
X0025387Y0077311D02*
X0027213Y0077311D01*
X0027213Y0076712D02*
X0025387Y0076712D01*
X0025387Y0076114D02*
X0027213Y0076114D01*
X0027213Y0075515D02*
X0025387Y0075515D01*
X0025387Y0074917D02*
X0027213Y0074917D01*
X0027501Y0074318D02*
X0025099Y0074318D01*
X0024500Y0073720D02*
X0028100Y0073720D01*
X0028698Y0073121D02*
X0023902Y0073121D01*
X0023303Y0072523D02*
X0029297Y0072523D01*
X0029607Y0070387D02*
X0027213Y0067993D01*
X0027213Y0064607D01*
X0029607Y0062213D01*
X0032993Y0062213D01*
X0035387Y0064607D01*
X0035387Y0067993D01*
X0032993Y0070387D01*
X0029607Y0070387D01*
X0029348Y0070129D02*
X0023252Y0070129D01*
X0022993Y0070387D02*
X0019607Y0070387D01*
X0017213Y0067993D01*
X0017213Y0064607D01*
X0019607Y0062213D01*
X0022993Y0062213D01*
X0025387Y0064607D01*
X0025387Y0067993D01*
X0022993Y0070387D01*
X0023850Y0069530D02*
X0028750Y0069530D01*
X0028151Y0068932D02*
X0024449Y0068932D01*
X0025047Y0068333D02*
X0027553Y0068333D01*
X0027213Y0067735D02*
X0025387Y0067735D01*
X0025387Y0067136D02*
X0027213Y0067136D01*
X0027213Y0066538D02*
X0025387Y0066538D01*
X0025387Y0065939D02*
X0027213Y0065939D01*
X0027213Y0065341D02*
X0025387Y0065341D01*
X0025387Y0064742D02*
X0027213Y0064742D01*
X0027676Y0064144D02*
X0024924Y0064144D01*
X0024326Y0063545D02*
X0028274Y0063545D01*
X0028873Y0062947D02*
X0023727Y0062947D01*
X0023129Y0062348D02*
X0029471Y0062348D01*
X0029607Y0060387D02*
X0027213Y0057993D01*
X0027213Y0054607D01*
X0029607Y0052213D01*
X0032993Y0052213D01*
X0035387Y0054607D01*
X0035387Y0057993D01*
X0032993Y0060387D01*
X0029607Y0060387D01*
X0029174Y0059954D02*
X0023426Y0059954D01*
X0022993Y0060387D02*
X0019607Y0060387D01*
X0017213Y0057993D01*
X0017213Y0054607D01*
X0019607Y0052213D01*
X0022993Y0052213D01*
X0025387Y0054607D01*
X0025387Y0057993D01*
X0022993Y0060387D01*
X0024025Y0059356D02*
X0028575Y0059356D01*
X0027977Y0058757D02*
X0024623Y0058757D01*
X0025222Y0058159D02*
X0027378Y0058159D01*
X0027213Y0057560D02*
X0025387Y0057560D01*
X0025387Y0056962D02*
X0027213Y0056962D01*
X0027213Y0056363D02*
X0025387Y0056363D01*
X0025387Y0055765D02*
X0027213Y0055765D01*
X0027213Y0055166D02*
X0025387Y0055166D01*
X0025348Y0054568D02*
X0027252Y0054568D01*
X0027851Y0053969D02*
X0024749Y0053969D01*
X0024151Y0053370D02*
X0028449Y0053370D01*
X0029048Y0052772D02*
X0023552Y0052772D01*
X0019048Y0052772D02*
X0002584Y0052772D01*
X0002584Y0053370D02*
X0018449Y0053370D01*
X0017851Y0053969D02*
X0002584Y0053969D01*
X0002584Y0054568D02*
X0017252Y0054568D01*
X0017213Y0055166D02*
X0002584Y0055166D01*
X0002584Y0055765D02*
X0017213Y0055765D01*
X0017213Y0056363D02*
X0002584Y0056363D01*
X0002584Y0056962D02*
X0017213Y0056962D01*
X0017213Y0057560D02*
X0002584Y0057560D01*
X0002584Y0058159D02*
X0017378Y0058159D01*
X0017977Y0058757D02*
X0002584Y0058757D01*
X0002584Y0059356D02*
X0018575Y0059356D01*
X0019174Y0059954D02*
X0002584Y0059954D01*
X0002584Y0060553D02*
X0057901Y0060553D01*
X0058500Y0061151D02*
X0002584Y0061151D01*
X0002584Y0061750D02*
X0059098Y0061750D01*
X0059697Y0062348D02*
X0033129Y0062348D01*
X0033727Y0062947D02*
X0060295Y0062947D01*
X0060894Y0063545D02*
X0034326Y0063545D01*
X0034924Y0064144D02*
X0061492Y0064144D01*
X0062091Y0064742D02*
X0035387Y0064742D01*
X0035387Y0065341D02*
X0062689Y0065341D01*
X0063288Y0065939D02*
X0035387Y0065939D01*
X0035387Y0066538D02*
X0063886Y0066538D01*
X0064485Y0067136D02*
X0035387Y0067136D01*
X0035387Y0067735D02*
X0065083Y0067735D01*
X0065682Y0068333D02*
X0035047Y0068333D01*
X0034449Y0068932D02*
X0066280Y0068932D01*
X0066879Y0069530D02*
X0033850Y0069530D01*
X0033252Y0070129D02*
X0067477Y0070129D01*
X0068076Y0070727D02*
X0002584Y0070727D01*
X0002584Y0070129D02*
X0019348Y0070129D01*
X0018750Y0069530D02*
X0002584Y0069530D01*
X0002584Y0068932D02*
X0018151Y0068932D01*
X0017553Y0068333D02*
X0002584Y0068333D01*
X0002584Y0067735D02*
X0017213Y0067735D01*
X0017213Y0067136D02*
X0002584Y0067136D01*
X0002584Y0066538D02*
X0017213Y0066538D01*
X0017213Y0065939D02*
X0002584Y0065939D01*
X0002584Y0065341D02*
X0017213Y0065341D01*
X0017213Y0064742D02*
X0002584Y0064742D01*
X0002584Y0064144D02*
X0017676Y0064144D01*
X0018274Y0063545D02*
X0002584Y0063545D01*
X0002584Y0062947D02*
X0018873Y0062947D01*
X0019471Y0062348D02*
X0002584Y0062348D01*
X0002584Y0071326D02*
X0068674Y0071326D01*
X0057303Y0059954D02*
X0033426Y0059954D01*
X0034025Y0059356D02*
X0056704Y0059356D01*
X0056106Y0058757D02*
X0034623Y0058757D01*
X0035222Y0058159D02*
X0055507Y0058159D01*
X0054909Y0057560D02*
X0035387Y0057560D01*
X0035387Y0056962D02*
X0054310Y0056962D01*
X0053712Y0056363D02*
X0035387Y0056363D01*
X0035387Y0055765D02*
X0053113Y0055765D01*
X0052515Y0055166D02*
X0035387Y0055166D01*
X0035348Y0054568D02*
X0051916Y0054568D01*
X0051318Y0053969D02*
X0034749Y0053969D01*
X0034151Y0053370D02*
X0050719Y0053370D01*
X0050121Y0052772D02*
X0033552Y0052772D01*
X0043052Y0047984D02*
X0002584Y0047984D01*
X0002584Y0048582D02*
X0043650Y0048582D01*
X0044249Y0049181D02*
X0002584Y0049181D01*
X0002584Y0049779D02*
X0044848Y0049779D01*
X0047727Y0050378D02*
X0002584Y0050378D01*
X0002584Y0050976D02*
X0048325Y0050976D01*
X0048924Y0051575D02*
X0002584Y0051575D01*
X0002584Y0052173D02*
X0049522Y0052173D01*
X0052431Y0049779D02*
X0054848Y0049779D01*
X0054855Y0049787D02*
X0052813Y0047745D01*
X0052813Y0044855D01*
X0054855Y0042813D01*
X0057745Y0042813D01*
X0059787Y0044855D01*
X0059787Y0047745D01*
X0057745Y0049787D01*
X0054855Y0049787D01*
X0054249Y0049181D02*
X0051832Y0049181D01*
X0051234Y0048582D02*
X0053650Y0048582D01*
X0053052Y0047984D02*
X0050635Y0047984D01*
X0050037Y0047385D02*
X0052813Y0047385D01*
X0052813Y0046787D02*
X0049787Y0046787D01*
X0049787Y0046188D02*
X0052813Y0046188D01*
X0052813Y0045590D02*
X0049787Y0045590D01*
X0049787Y0044991D02*
X0052813Y0044991D01*
X0053275Y0044393D02*
X0049325Y0044393D01*
X0048726Y0043794D02*
X0053874Y0043794D01*
X0054472Y0043196D02*
X0048128Y0043196D01*
X0044472Y0043196D02*
X0002584Y0043196D01*
X0002584Y0043794D02*
X0043874Y0043794D01*
X0043275Y0044393D02*
X0002584Y0044393D01*
X0002584Y0044991D02*
X0042813Y0044991D01*
X0042813Y0045590D02*
X0002584Y0045590D01*
X0002584Y0046188D02*
X0042813Y0046188D01*
X0042813Y0046787D02*
X0002584Y0046787D01*
X0002584Y0047385D02*
X0042813Y0047385D01*
X0057752Y0049779D02*
X0064848Y0049779D01*
X0064249Y0049181D02*
X0058351Y0049181D01*
X0058950Y0048582D02*
X0063650Y0048582D01*
X0063052Y0047984D02*
X0059548Y0047984D01*
X0059787Y0047385D02*
X0062813Y0047385D01*
X0062813Y0046787D02*
X0059787Y0046787D01*
X0059787Y0046188D02*
X0062813Y0046188D01*
X0062813Y0045590D02*
X0059787Y0045590D01*
X0059787Y0044991D02*
X0062813Y0044991D01*
X0063275Y0044393D02*
X0059325Y0044393D01*
X0058726Y0043794D02*
X0063874Y0043794D01*
X0064472Y0043196D02*
X0058128Y0043196D01*
X0065469Y0042597D02*
X0002584Y0042597D01*
X0002584Y0041999D02*
X0065469Y0041999D01*
X0065469Y0041400D02*
X0002584Y0041400D01*
X0002584Y0040802D02*
X0065469Y0040802D01*
X0065469Y0040203D02*
X0002584Y0040203D01*
X0002584Y0039605D02*
X0065469Y0039605D01*
X0065469Y0039006D02*
X0002584Y0039006D01*
X0002584Y0038408D02*
X0065469Y0038408D01*
X0076766Y0032423D02*
X0092034Y0032423D01*
X0092491Y0031824D02*
X0092632Y0031824D01*
X0145451Y0055765D02*
X0171766Y0055765D01*
X0172673Y0055409D02*
X0172673Y0055409D01*
X0175911Y0055166D02*
X0146050Y0055166D01*
X0146648Y0054568D02*
X0210663Y0054568D01*
X0210663Y0055166D02*
X0178046Y0055166D01*
X0177518Y0055046D02*
X0177518Y0055046D01*
X0180668Y0055765D02*
X0210889Y0055765D01*
X0211137Y0056363D02*
X0182664Y0056363D01*
X0182255Y0056127D02*
X0182255Y0056127D01*
X0183701Y0056962D02*
X0211414Y0056962D01*
X0211975Y0057560D02*
X0184738Y0057560D01*
X0185774Y0058159D02*
X0211377Y0058159D01*
X0210778Y0058757D02*
X0186649Y0058757D01*
X0187205Y0059356D02*
X0210180Y0059356D01*
X0209581Y0059954D02*
X0187760Y0059954D01*
X0188315Y0060553D02*
X0208983Y0060553D01*
X0208384Y0061151D02*
X0188871Y0061151D01*
X0189426Y0061750D02*
X0207786Y0061750D01*
X0207187Y0062348D02*
X0189879Y0062348D01*
X0189768Y0062118D02*
X0189768Y0062118D01*
X0190167Y0062947D02*
X0206589Y0062947D01*
X0205990Y0063545D02*
X0190455Y0063545D01*
X0190743Y0064144D02*
X0205392Y0064144D01*
X0204793Y0064742D02*
X0191031Y0064742D01*
X0191320Y0065341D02*
X0204195Y0065341D01*
X0203596Y0065939D02*
X0191608Y0065939D01*
X0191882Y0066538D02*
X0202998Y0066538D01*
X0202399Y0067136D02*
X0191972Y0067136D01*
X0192063Y0067735D02*
X0201800Y0067735D01*
X0201202Y0068333D02*
X0192153Y0068333D01*
X0192243Y0068932D02*
X0200603Y0068932D01*
X0200005Y0069530D02*
X0192333Y0069530D01*
X0192423Y0070129D02*
X0199406Y0070129D01*
X0198808Y0070727D02*
X0192514Y0070727D01*
X0192596Y0071326D02*
X0198209Y0071326D01*
X0197611Y0071924D02*
X0192506Y0071924D01*
X0192416Y0072523D02*
X0197012Y0072523D01*
X0196414Y0073121D02*
X0192325Y0073121D01*
X0192235Y0073720D02*
X0195815Y0073720D01*
X0195217Y0074318D02*
X0192145Y0074318D01*
X0192055Y0074917D02*
X0194618Y0074917D01*
X0194020Y0075515D02*
X0191965Y0075515D01*
X0191871Y0076114D02*
X0193421Y0076114D01*
X0192823Y0076712D02*
X0191583Y0076712D01*
X0191295Y0077311D02*
X0192224Y0077311D01*
X0191626Y0077909D02*
X0191007Y0077909D01*
X0191027Y0078508D02*
X0190718Y0078508D01*
X0202914Y0071924D02*
X0207355Y0071924D01*
X0207954Y0071326D02*
X0203512Y0071326D01*
X0204111Y0070727D02*
X0208552Y0070727D01*
X0209151Y0070129D02*
X0204709Y0070129D01*
X0205308Y0069530D02*
X0209749Y0069530D01*
X0210348Y0068932D02*
X0205906Y0068932D01*
X0206505Y0068333D02*
X0210946Y0068333D01*
X0211545Y0067735D02*
X0207103Y0067735D01*
X0207702Y0067136D02*
X0212143Y0067136D01*
X0212742Y0066538D02*
X0208300Y0066538D01*
X0208899Y0065939D02*
X0213340Y0065939D01*
X0213939Y0065341D02*
X0209497Y0065341D01*
X0210096Y0064742D02*
X0214537Y0064742D01*
X0215136Y0064144D02*
X0210694Y0064144D01*
X0211293Y0063545D02*
X0215734Y0063545D01*
X0216333Y0062947D02*
X0211891Y0062947D01*
X0212490Y0062348D02*
X0216931Y0062348D01*
X0217530Y0061750D02*
X0213088Y0061750D01*
X0213687Y0061151D02*
X0218128Y0061151D01*
X0218727Y0060553D02*
X0214285Y0060553D01*
X0214884Y0059954D02*
X0219325Y0059954D01*
X0219924Y0059356D02*
X0215482Y0059356D01*
X0210663Y0053969D02*
X0147247Y0053969D01*
X0147845Y0053370D02*
X0210668Y0053370D01*
X0210915Y0052772D02*
X0148444Y0052772D01*
X0149042Y0052173D02*
X0211163Y0052173D01*
X0211477Y0051575D02*
X0149641Y0051575D01*
X0150239Y0050976D02*
X0212076Y0050976D01*
X0212691Y0050378D02*
X0150838Y0050378D01*
X0151437Y0049779D02*
X0214136Y0049779D01*
X0223464Y0049779D02*
X0225705Y0049779D01*
X0225705Y0049181D02*
X0152035Y0049181D01*
X0162808Y0038408D02*
X0213139Y0038408D01*
X0212261Y0037809D02*
X0163407Y0037809D01*
X0164005Y0037211D02*
X0211663Y0037211D01*
X0211240Y0036612D02*
X0164604Y0036612D01*
X0165202Y0036014D02*
X0210992Y0036014D01*
X0210744Y0035415D02*
X0165801Y0035415D01*
X0166399Y0034817D02*
X0210663Y0034817D01*
X0210663Y0034218D02*
X0166998Y0034218D01*
X0167596Y0033620D02*
X0210663Y0033620D01*
X0210812Y0033021D02*
X0168195Y0033021D01*
X0168793Y0032423D02*
X0211060Y0032423D01*
X0211308Y0031824D02*
X0192491Y0031824D01*
X0193922Y0031226D02*
X0211827Y0031226D01*
X0212425Y0030627D02*
X0194521Y0030627D01*
X0195119Y0030029D02*
X0213534Y0030029D01*
X0213741Y0018657D02*
X0195622Y0018657D01*
X0195374Y0018058D02*
X0212510Y0018058D01*
X0211912Y0017460D02*
X0195008Y0017460D01*
X0194409Y0016861D02*
X0211344Y0016861D01*
X0211096Y0016263D02*
X0193666Y0016263D01*
X0188934Y0016263D02*
X0173666Y0016263D01*
X0174409Y0016861D02*
X0188191Y0016861D01*
X0187592Y0017460D02*
X0175008Y0017460D01*
X0175374Y0018058D02*
X0187226Y0018058D01*
X0186978Y0018657D02*
X0175622Y0018657D01*
X0175870Y0019255D02*
X0186730Y0019255D01*
X0186688Y0019854D02*
X0175912Y0019854D01*
X0175912Y0020452D02*
X0186688Y0020452D01*
X0186688Y0021051D02*
X0175912Y0021051D01*
X0175912Y0021649D02*
X0186688Y0021649D01*
X0186688Y0022248D02*
X0175912Y0022248D01*
X0175912Y0022846D02*
X0186688Y0022846D01*
X0186688Y0023445D02*
X0175912Y0023445D01*
X0175912Y0024043D02*
X0186688Y0024043D01*
X0186688Y0024642D02*
X0175912Y0024642D01*
X0175912Y0025240D02*
X0186688Y0025240D01*
X0186688Y0025839D02*
X0175912Y0025839D01*
X0175912Y0026437D02*
X0186688Y0026437D01*
X0186688Y0027036D02*
X0175912Y0027036D01*
X0175912Y0027634D02*
X0186688Y0027634D01*
X0186688Y0028233D02*
X0175912Y0028233D01*
X0175668Y0028832D02*
X0186932Y0028832D01*
X0187180Y0029430D02*
X0175420Y0029430D01*
X0175119Y0030029D02*
X0187481Y0030029D01*
X0188079Y0030627D02*
X0174521Y0030627D01*
X0173922Y0031226D02*
X0188678Y0031226D01*
X0190109Y0031824D02*
X0172491Y0031824D01*
X0170109Y0031824D02*
X0169392Y0031824D01*
X0166483Y0029430D02*
X0155420Y0029430D01*
X0155668Y0028832D02*
X0166932Y0028832D01*
X0166688Y0028233D02*
X0155912Y0028233D01*
X0155912Y0027634D02*
X0166688Y0027634D01*
X0166688Y0027036D02*
X0155912Y0027036D01*
X0155912Y0026437D02*
X0166688Y0026437D01*
X0166688Y0025839D02*
X0155912Y0025839D01*
X0155912Y0025240D02*
X0166688Y0025240D01*
X0166688Y0024642D02*
X0155912Y0024642D01*
X0155912Y0024043D02*
X0166688Y0024043D01*
X0166688Y0023445D02*
X0155912Y0023445D01*
X0155912Y0022846D02*
X0166688Y0022846D01*
X0166688Y0022248D02*
X0155912Y0022248D01*
X0155912Y0021649D02*
X0166688Y0021649D01*
X0166688Y0021051D02*
X0155912Y0021051D01*
X0155912Y0020452D02*
X0166688Y0020452D01*
X0166688Y0019854D02*
X0155912Y0019854D01*
X0155870Y0019255D02*
X0166730Y0019255D01*
X0166978Y0018657D02*
X0155622Y0018657D01*
X0155374Y0018058D02*
X0167226Y0018058D01*
X0167592Y0017460D02*
X0155008Y0017460D01*
X0154409Y0016861D02*
X0168191Y0016861D01*
X0168934Y0016263D02*
X0153666Y0016263D01*
X0155119Y0030029D02*
X0165885Y0030029D01*
X0165286Y0030627D02*
X0154521Y0030627D01*
X0153922Y0031226D02*
X0164688Y0031226D01*
X0211205Y0012073D02*
X0034726Y0012073D01*
X0034171Y0011475D02*
X0211577Y0011475D01*
X0212176Y0010876D02*
X0033616Y0010876D01*
X0033060Y0010278D02*
X0212933Y0010278D01*
X0224909Y0050378D02*
X0225705Y0050378D01*
X0225705Y0050976D02*
X0225524Y0050976D01*
X0223706Y0089880D02*
X0236300Y0089880D01*
X0236300Y0090478D02*
X0225026Y0090478D01*
X0225625Y0091077D02*
X0236300Y0091077D01*
X0236300Y0091675D02*
X0226223Y0091675D01*
X0226478Y0092274D02*
X0236300Y0092274D01*
X0236300Y0092872D02*
X0226726Y0092872D01*
X0226937Y0093471D02*
X0236300Y0093471D01*
X0236300Y0094069D02*
X0226937Y0094069D01*
X0226937Y0094668D02*
X0236300Y0094668D01*
X0236300Y0095266D02*
X0226917Y0095266D01*
X0226669Y0095865D02*
X0236300Y0095865D01*
X0236300Y0096463D02*
X0226421Y0096463D01*
X0226086Y0097062D02*
X0236300Y0097062D01*
X0236300Y0097660D02*
X0225488Y0097660D01*
X0224820Y0098259D02*
X0236300Y0098259D01*
X0236300Y0098857D02*
X0223375Y0098857D01*
X0219379Y0103047D02*
X0236300Y0103047D01*
X0236300Y0103645D02*
X0219710Y0103645D01*
X0219710Y0104244D02*
X0236300Y0104244D01*
X0236300Y0104842D02*
X0219710Y0104842D01*
X0219710Y0105441D02*
X0236300Y0105441D01*
X0236300Y0106039D02*
X0219710Y0106039D01*
X0219710Y0106638D02*
X0236300Y0106638D01*
X0236300Y0107237D02*
X0219710Y0107237D01*
X0219710Y0107835D02*
X0236300Y0107835D01*
X0236300Y0108434D02*
X0219710Y0108434D01*
X0219710Y0109032D02*
X0236300Y0109032D01*
X0236300Y0102448D02*
X0218781Y0102448D01*
X0218182Y0101850D02*
X0236300Y0101850D01*
X0236300Y0101251D02*
X0217584Y0101251D01*
X0216985Y0100653D02*
X0236300Y0100653D01*
X0236300Y0100054D02*
X0216387Y0100054D01*
X0215788Y0099456D02*
X0236300Y0099456D01*
X0208382Y0092872D02*
X0191710Y0092872D01*
X0192308Y0092274D02*
X0208382Y0092274D01*
X0208382Y0091675D02*
X0192907Y0091675D01*
X0193505Y0091077D02*
X0208382Y0091077D01*
X0195937Y0115017D02*
X0193121Y0115017D01*
X0193720Y0115616D02*
X0194900Y0115616D01*
X0194379Y0115917D02*
X0194379Y0115917D01*
X0194379Y0115917D01*
X0194207Y0116214D02*
X0194048Y0116214D01*
X0192464Y0116600D02*
X0188908Y0116600D01*
X0190686Y0116600D02*
X0190686Y0123000D01*
X0188908Y0121578D01*
X0187897Y0122798D02*
X0187216Y0122798D01*
X0187010Y0123396D02*
X0188645Y0123396D01*
X0189393Y0123995D02*
X0186286Y0123995D01*
X0186973Y0123504D02*
X0186973Y0123504D01*
X0183287Y0122111D02*
X0183227Y0121984D01*
X0183171Y0121855D01*
X0183118Y0121725D01*
X0183068Y0121593D01*
X0183022Y0121460D01*
X0182980Y0121326D01*
X0182941Y0121191D01*
X0182905Y0121054D01*
X0182874Y0120917D01*
X0182846Y0120779D01*
X0182821Y0120641D01*
X0182801Y0120502D01*
X0182784Y0120362D01*
X0182771Y0120222D01*
X0182762Y0120081D01*
X0182756Y0119941D01*
X0182754Y0119800D01*
X0182756Y0119659D01*
X0182762Y0119519D01*
X0182771Y0119378D01*
X0182784Y0119238D01*
X0182801Y0119098D01*
X0182821Y0118959D01*
X0182846Y0118821D01*
X0182874Y0118683D01*
X0182905Y0118546D01*
X0182941Y0118409D01*
X0182980Y0118274D01*
X0183022Y0118140D01*
X0183068Y0118007D01*
X0183118Y0117875D01*
X0183171Y0117745D01*
X0183227Y0117616D01*
X0183287Y0117489D01*
X0192270Y0118608D02*
X0193478Y0118608D01*
X0193478Y0118010D02*
X0193294Y0118010D01*
X0193478Y0119207D02*
X0192270Y0119207D01*
X0192270Y0119805D02*
X0193478Y0119805D01*
X0193478Y0120404D02*
X0192270Y0120404D01*
X0192270Y0121002D02*
X0193478Y0121002D01*
X0193627Y0121601D02*
X0192270Y0121601D01*
X0192270Y0122199D02*
X0193973Y0122199D01*
X0194318Y0122798D02*
X0192270Y0122798D01*
X0192324Y0123396D02*
X0194664Y0123396D01*
X0195699Y0123995D02*
X0191931Y0123995D01*
X0195062Y0120156D02*
X0195062Y0118378D01*
X0196646Y0118378D02*
X0196646Y0118571D01*
X0197033Y0118571D01*
X0197033Y0118378D01*
X0197027Y0118328D01*
X0196977Y0118241D01*
X0196890Y0118191D01*
X0196790Y0118191D01*
X0196703Y0118241D01*
X0196653Y0118328D01*
X0196646Y0118378D01*
X0195062Y0118378D02*
X0195064Y0118295D01*
X0195070Y0118212D01*
X0195080Y0118129D01*
X0195093Y0118046D01*
X0195111Y0117965D01*
X0195132Y0117884D01*
X0195157Y0117805D01*
X0195186Y0117727D01*
X0195218Y0117650D01*
X0195254Y0117575D01*
X0195293Y0117501D01*
X0195336Y0117430D01*
X0195382Y0117360D01*
X0195432Y0117293D01*
X0195484Y0117228D01*
X0195539Y0117166D01*
X0195598Y0117106D01*
X0195659Y0117049D01*
X0195722Y0116995D01*
X0195788Y0116944D01*
X0195857Y0116897D01*
X0195927Y0116852D01*
X0196000Y0116811D01*
X0196074Y0116774D01*
X0196150Y0116739D01*
X0196228Y0116709D01*
X0196306Y0116682D01*
X0196387Y0116659D01*
X0196468Y0116639D01*
X0196550Y0116624D01*
X0196632Y0116612D01*
X0196715Y0116604D01*
X0196798Y0116600D01*
X0196882Y0116600D01*
X0196965Y0116604D01*
X0197048Y0116612D01*
X0197130Y0116624D01*
X0197212Y0116639D01*
X0197293Y0116659D01*
X0197374Y0116682D01*
X0197452Y0116709D01*
X0197530Y0116739D01*
X0197606Y0116774D01*
X0197680Y0116811D01*
X0197753Y0116852D01*
X0197823Y0116897D01*
X0197892Y0116944D01*
X0197958Y0116995D01*
X0198021Y0117049D01*
X0198082Y0117106D01*
X0198141Y0117166D01*
X0198196Y0117228D01*
X0198248Y0117293D01*
X0198298Y0117360D01*
X0198344Y0117430D01*
X0198387Y0117501D01*
X0198426Y0117575D01*
X0198462Y0117650D01*
X0198494Y0117727D01*
X0198523Y0117805D01*
X0198548Y0117884D01*
X0198569Y0117965D01*
X0198587Y0118046D01*
X0198600Y0118129D01*
X0198610Y0118212D01*
X0198616Y0118295D01*
X0198618Y0118378D01*
X0198618Y0118733D01*
X0198617Y0118733D02*
X0198615Y0118807D01*
X0198609Y0118882D01*
X0198599Y0118955D01*
X0198586Y0119029D01*
X0198569Y0119101D01*
X0198547Y0119172D01*
X0198523Y0119243D01*
X0198494Y0119311D01*
X0198462Y0119379D01*
X0198426Y0119444D01*
X0198388Y0119507D01*
X0198345Y0119569D01*
X0198300Y0119628D01*
X0198252Y0119685D01*
X0198201Y0119739D01*
X0198147Y0119790D01*
X0198090Y0119838D01*
X0198031Y0119883D01*
X0197969Y0119926D01*
X0197906Y0119964D01*
X0197841Y0120000D01*
X0197773Y0120032D01*
X0197705Y0120061D01*
X0197634Y0120085D01*
X0197563Y0120107D01*
X0197491Y0120124D01*
X0197417Y0120137D01*
X0197344Y0120147D01*
X0197269Y0120153D01*
X0197195Y0120155D01*
X0197195Y0120156D02*
X0195062Y0120156D01*
X0195063Y0120156D02*
X0195065Y0120262D01*
X0195071Y0120369D01*
X0195081Y0120474D01*
X0195095Y0120580D01*
X0195113Y0120685D01*
X0195134Y0120789D01*
X0195160Y0120892D01*
X0195189Y0120994D01*
X0195223Y0121095D01*
X0195260Y0121195D01*
X0195300Y0121293D01*
X0195345Y0121390D01*
X0195393Y0121485D01*
X0195444Y0121578D01*
X0195499Y0121669D01*
X0195557Y0121758D01*
X0195619Y0121845D01*
X0195683Y0121929D01*
X0195751Y0122011D01*
X0195822Y0122090D01*
X0195896Y0122167D01*
X0195973Y0122241D01*
X0196052Y0122312D01*
X0196134Y0122380D01*
X0196218Y0122444D01*
X0196305Y0122506D01*
X0196394Y0122564D01*
X0196485Y0122619D01*
X0196578Y0122670D01*
X0196673Y0122718D01*
X0196770Y0122763D01*
X0196868Y0122803D01*
X0196968Y0122840D01*
X0197069Y0122874D01*
X0197171Y0122903D01*
X0197274Y0122929D01*
X0197378Y0122950D01*
X0197483Y0122968D01*
X0197589Y0122982D01*
X0197694Y0122992D01*
X0197801Y0122998D01*
X0197907Y0123000D01*
X0212131Y0137761D02*
X0212213Y0137761D01*
X0212131Y0138359D02*
X0213022Y0138359D01*
X0212131Y0138958D02*
X0236300Y0138958D01*
X0236300Y0139556D02*
X0212131Y0139556D01*
X0212131Y0140155D02*
X0236300Y0140155D01*
X0236300Y0140753D02*
X0212131Y0140753D01*
X0212131Y0141352D02*
X0236300Y0141352D01*
X0236300Y0141950D02*
X0212131Y0141950D01*
X0212131Y0142549D02*
X0236300Y0142549D01*
X0236300Y0143147D02*
X0212131Y0143147D01*
X0212131Y0143746D02*
X0236300Y0143746D01*
X0236300Y0144344D02*
X0212131Y0144344D01*
X0212131Y0144943D02*
X0236300Y0144943D01*
X0236300Y0145541D02*
X0212131Y0145541D01*
X0212669Y0146140D02*
X0236300Y0146140D01*
X0236300Y0146738D02*
X0213268Y0146738D01*
X0213866Y0147337D02*
X0236300Y0147337D01*
X0236300Y0147935D02*
X0214465Y0147935D01*
X0215063Y0148534D02*
X0236300Y0148534D01*
X0236300Y0149132D02*
X0215662Y0149132D01*
X0223347Y0149731D02*
X0236300Y0149731D01*
X0236300Y0150329D02*
X0224792Y0150329D01*
X0225476Y0150928D02*
X0236300Y0150928D01*
X0236300Y0151526D02*
X0226074Y0151526D01*
X0226416Y0152125D02*
X0236300Y0152125D01*
X0236300Y0152723D02*
X0226664Y0152723D01*
X0226912Y0153322D02*
X0236300Y0153322D01*
X0236300Y0153920D02*
X0226937Y0153920D01*
X0226937Y0154519D02*
X0236300Y0154519D01*
X0236300Y0155117D02*
X0226937Y0155117D01*
X0226731Y0155716D02*
X0236300Y0155716D01*
X0236300Y0156314D02*
X0226483Y0156314D01*
X0226235Y0156913D02*
X0224938Y0158210D01*
X0223242Y0158912D01*
X0224578Y0138359D02*
X0236300Y0138359D01*
X0236300Y0137761D02*
X0225387Y0137761D01*
X0225986Y0137162D02*
X0236300Y0137162D01*
X0236300Y0136564D02*
X0226380Y0136564D01*
X0226628Y0135965D02*
X0236300Y0135965D01*
X0236300Y0135367D02*
X0226876Y0135367D01*
X0226937Y0134768D02*
X0236300Y0134768D01*
X0236300Y0134170D02*
X0226937Y0134170D01*
X0226937Y0133571D02*
X0236300Y0133571D01*
X0236300Y0132972D02*
X0226768Y0132972D01*
X0226520Y0132374D02*
X0236300Y0132374D01*
X0236300Y0131775D02*
X0226272Y0131775D01*
X0225725Y0131177D02*
X0236300Y0131177D01*
X0236300Y0130578D02*
X0225126Y0130578D01*
X0223948Y0129980D02*
X0236300Y0129980D01*
X0028016Y0024902D02*
X0028709Y0023229D01*
X0028658Y0023570D01*
X0028016Y0024902D01*
X0028124Y0024642D02*
X0028141Y0024642D01*
X0028372Y0024043D02*
X0028430Y0024043D01*
X0028620Y0023445D02*
X0028677Y0023445D01*
X0028883Y0022073D02*
X0029000Y0021300D01*
X0028883Y0020527D01*
X0028883Y0022073D01*
X0028883Y0021649D02*
X0028947Y0021649D01*
X0028962Y0021051D02*
X0028883Y0021051D01*
X0028709Y0019371D02*
X0028658Y0019030D01*
X0028016Y0017698D01*
X0028709Y0019371D01*
X0028692Y0019255D02*
X0028661Y0019255D01*
X0028478Y0018657D02*
X0028413Y0018657D01*
X0028190Y0018058D02*
X0028166Y0018058D01*
X0027340Y0016616D02*
X0026101Y0015280D01*
X0025873Y0015148D01*
X0027340Y0016616D01*
X0027013Y0016263D02*
X0026987Y0016263D01*
X0026458Y0015664D02*
X0026389Y0015664D01*
X0024878Y0014574D02*
X0024113Y0014132D01*
X0023443Y0013979D01*
X0024878Y0014574D01*
X0024693Y0014467D02*
X0024621Y0014467D01*
X0022292Y0013717D02*
X0021875Y0013622D01*
X0020607Y0013717D01*
X0022292Y0013717D01*
X0019611Y0013791D02*
X0019587Y0013793D01*
X0017450Y0014632D01*
X0017307Y0014746D01*
X0019611Y0013791D01*
X0019424Y0013869D02*
X0019394Y0013869D01*
X0017979Y0014467D02*
X0017869Y0014467D01*
X0016432Y0015444D02*
X0015655Y0016063D01*
X0015319Y0016557D01*
X0016432Y0015444D01*
X0016211Y0015664D02*
X0016155Y0015664D01*
X0015613Y0016263D02*
X0015519Y0016263D01*
X0014651Y0017537D02*
X0014363Y0017959D01*
X0014033Y0019028D01*
X0014651Y0017537D01*
X0014434Y0018058D02*
X0014332Y0018058D01*
X0014187Y0018657D02*
X0014147Y0018657D01*
X0013717Y0020053D02*
X0013686Y0020152D01*
X0013686Y0022448D01*
X0013717Y0022547D01*
X0013717Y0020053D01*
X0013717Y0020452D02*
X0013686Y0020452D01*
X0013686Y0021051D02*
X0013717Y0021051D01*
X0013686Y0021649D02*
X0013717Y0021649D01*
X0013686Y0022248D02*
X0013717Y0022248D01*
X0014033Y0023572D02*
X0014363Y0024641D01*
X0014651Y0025063D01*
X0014033Y0023572D01*
X0014178Y0024043D02*
X0014228Y0024043D01*
X0014363Y0024642D02*
X0014476Y0024642D01*
X0015319Y0026043D02*
X0015655Y0026537D01*
X0016432Y0027156D01*
X0015319Y0026043D01*
X0015587Y0026437D02*
X0015713Y0026437D01*
X0016281Y0027036D02*
X0016311Y0027036D01*
X0017307Y0027854D02*
X0017450Y0027968D01*
X0019587Y0028807D01*
X0019611Y0028809D01*
X0017307Y0027854D01*
X0018124Y0028233D02*
X0018221Y0028233D01*
X0020607Y0028883D02*
X0021875Y0028978D01*
X0022292Y0028883D01*
X0020607Y0028883D01*
X0023443Y0028621D02*
X0024113Y0028468D01*
X0024878Y0028026D01*
X0023443Y0028621D01*
X0024379Y0028233D02*
X0024520Y0028233D01*
X0025873Y0027452D02*
X0026101Y0027320D01*
X0027340Y0025984D01*
X0025873Y0027452D01*
X0026289Y0027036D02*
X0026364Y0027036D01*
X0026887Y0026437D02*
X0026920Y0026437D01*
X0022518Y0005046D02*
X0022518Y0005046D01*
X0017673Y0005409D02*
X0017673Y0005409D01*
D11*
X0076300Y0098900D02*
X0076300Y0103700D01*
X0086300Y0103700D02*
X0086300Y0098900D01*
X0096300Y0098900D02*
X0096300Y0103700D01*
X0106300Y0103700D02*
X0106300Y0098900D01*
X0116300Y0098900D02*
X0116300Y0103700D01*
X0126300Y0103700D02*
X0126300Y0098900D01*
X0136300Y0098900D02*
X0136300Y0103700D01*
X0146300Y0103700D02*
X0146300Y0098900D01*
X0146300Y0128900D02*
X0146300Y0133700D01*
X0136300Y0133700D02*
X0136300Y0128900D01*
X0126300Y0128900D02*
X0126300Y0133700D01*
X0116300Y0133700D02*
X0116300Y0128900D01*
X0106300Y0128900D02*
X0106300Y0133700D01*
X0096300Y0133700D02*
X0096300Y0128900D01*
X0086300Y0128900D02*
X0086300Y0133700D01*
X0076300Y0133700D02*
X0076300Y0128900D01*
D12*
X0031300Y0076300D03*
X0021300Y0076300D03*
X0021300Y0066300D03*
X0031300Y0066300D03*
X0031300Y0056300D03*
X0021300Y0056300D03*
D13*
X0046300Y0046300D03*
X0056300Y0046300D03*
X0066300Y0046300D03*
X0076300Y0046300D03*
X0086300Y0046300D03*
X0096300Y0046300D03*
X0106300Y0046300D03*
X0116300Y0046300D03*
X0126300Y0046300D03*
X0136300Y0046300D03*
X0146300Y0046300D03*
X0146300Y0086300D03*
X0136300Y0086300D03*
X0126300Y0086300D03*
X0116300Y0086300D03*
X0106300Y0086300D03*
X0096300Y0086300D03*
X0086300Y0086300D03*
X0076300Y0086300D03*
X0066300Y0086300D03*
X0056300Y0086300D03*
X0046300Y0086300D03*
X0051300Y0101300D03*
X0051300Y0111300D03*
X0011300Y0111300D03*
X0011300Y0101300D03*
D14*
X0051300Y0027325D02*
X0051300Y0020275D01*
X0071300Y0020275D02*
X0071300Y0027325D01*
X0091300Y0027325D02*
X0091300Y0020275D01*
X0111300Y0020275D02*
X0111300Y0027325D01*
X0131300Y0027325D02*
X0131300Y0020275D01*
X0151300Y0020275D02*
X0151300Y0027325D01*
X0171300Y0027325D02*
X0171300Y0020275D01*
X0191300Y0020275D02*
X0191300Y0027325D01*
X0215275Y0034300D02*
X0222325Y0034300D01*
X0222325Y0014300D02*
X0215275Y0014300D01*
X0215275Y0054300D02*
X0222325Y0054300D01*
X0222325Y0074300D02*
X0215275Y0074300D01*
X0215275Y0094300D02*
X0222325Y0094300D01*
X0222325Y0114300D02*
X0215275Y0114300D01*
X0215275Y0134300D02*
X0222325Y0134300D01*
X0222325Y0154300D02*
X0215275Y0154300D01*
D15*
X0111300Y0154300D02*
X0111300Y0148300D01*
X0101300Y0148300D02*
X0101300Y0154300D01*
X0091300Y0154300D02*
X0091300Y0148300D01*
X0081300Y0148300D02*
X0081300Y0154300D01*
D16*
X0081300Y0151300D02*
X0080335Y0150709D01*
X0080335Y0113898D01*
X0056517Y0090080D01*
X0056517Y0086831D01*
X0056300Y0086300D01*
X0066300Y0086300D02*
X0067343Y0086831D01*
X0067343Y0092245D01*
X0076005Y0100906D01*
X0076300Y0101300D01*
X0076005Y0092245D02*
X0070591Y0086831D01*
X0070591Y0070591D01*
X0046300Y0046300D01*
X0066300Y0046300D02*
X0067343Y0045690D01*
X0067343Y0027284D01*
X0070591Y0024036D01*
X0071300Y0023800D01*
X0071674Y0034863D02*
X0085749Y0020788D01*
X0085749Y0018623D01*
X0090080Y0014292D01*
X0217835Y0014292D01*
X0218800Y0014300D01*
X0218918Y0015375D01*
X0227580Y0024036D01*
X0227580Y0056517D01*
X0224331Y0059765D01*
X0222166Y0059765D01*
X0150709Y0131221D01*
X0146379Y0131221D01*
X0146300Y0131300D01*
X0136300Y0131300D02*
X0135552Y0131221D01*
X0132304Y0127973D01*
X0132304Y0108485D01*
X0163702Y0108485D01*
X0217835Y0054351D01*
X0218800Y0054300D01*
X0218800Y0074300D02*
X0217835Y0074922D01*
X0210257Y0082501D01*
X0210257Y0096576D01*
X0217835Y0104154D01*
X0217835Y0113898D01*
X0218800Y0114300D01*
X0217835Y0114981D01*
X0217835Y0124725D01*
X0210257Y0132304D01*
X0207009Y0129056D01*
X0169115Y0129056D01*
X0160454Y0137717D01*
X0105237Y0137717D01*
X0092245Y0150709D01*
X0091300Y0151300D01*
X0091162Y0151792D01*
X0083583Y0159371D01*
X0079253Y0159371D01*
X0076005Y0156123D01*
X0076005Y0132304D01*
X0076300Y0131300D01*
X0105237Y0100906D02*
X0106300Y0101300D01*
X0105237Y0100906D02*
X0096576Y0092245D01*
X0076005Y0092245D01*
X0081418Y0086831D02*
X0084666Y0090080D01*
X0092245Y0090080D01*
X0095493Y0086831D01*
X0096300Y0086300D01*
X0096576Y0086831D01*
X0099824Y0090080D01*
X0108485Y0090080D01*
X0111733Y0086831D01*
X0116064Y0086831D01*
X0116300Y0086300D01*
X0121477Y0086831D02*
X0121477Y0032698D01*
X0094410Y0032698D01*
X0081418Y0045690D01*
X0077087Y0045690D01*
X0076300Y0046300D01*
X0071674Y0047855D02*
X0071674Y0034863D01*
X0071674Y0047855D02*
X0074922Y0051103D01*
X0107402Y0051103D01*
X0111733Y0046772D01*
X0116064Y0046772D01*
X0116300Y0046300D01*
X0126300Y0046300D02*
X0126891Y0046772D01*
X0126891Y0081418D01*
X0132304Y0086831D01*
X0132304Y0108485D01*
X0136300Y0101300D02*
X0136635Y0100906D01*
X0136635Y0092245D01*
X0142048Y0086831D01*
X0142048Y0056517D01*
X0171280Y0027284D01*
X0171280Y0024036D01*
X0171300Y0023800D01*
X0131300Y0023800D02*
X0131221Y0024036D01*
X0122560Y0032698D01*
X0121477Y0032698D01*
X0121477Y0086831D02*
X0125808Y0091162D01*
X0125808Y0100906D01*
X0126300Y0101300D01*
X0081418Y0086831D02*
X0077087Y0086831D01*
X0076300Y0086300D01*
X0210257Y0132304D02*
X0210257Y0146379D01*
X0217835Y0153957D01*
X0218800Y0154300D01*
M02*
